<mxfile host="app.diagrams.net" modified="2022-08-26T02:55:37.921Z" agent="5.0 (X11)" etag="tj6y61L9XjlfdMRGZL-E" version="20.2.4" type="github">
  <diagram id="VQU_PzI-0HFTHbzgI69F" name="Page-1">
    <mxGraphModel dx="1149" dy="572" grid="1" gridSize="10" guides="1" tooltips="1" connect="1" arrows="1" fold="1" page="1" pageScale="1" pageWidth="850" pageHeight="1100" math="0" shadow="0">
      <root>
        <mxCell id="0" />
        <mxCell id="1" parent="0" />
        <mxCell id="JNj1z8LvOt_FmI-8M0Pt-37" value="" style="group" vertex="1" connectable="0" parent="1">
          <mxGeometry x="50" y="10" width="850" height="850" as="geometry" />
        </mxCell>
        <mxCell id="JNj1z8LvOt_FmI-8M0Pt-30" value="" style="whiteSpace=wrap;html=1;aspect=fixed;" vertex="1" parent="JNj1z8LvOt_FmI-8M0Pt-37">
          <mxGeometry width="850" height="850" as="geometry" />
        </mxCell>
        <mxCell id="JNj1z8LvOt_FmI-8M0Pt-34" value="" style="endArrow=none;html=1;rounded=0;" edge="1" parent="JNj1z8LvOt_FmI-8M0Pt-30">
          <mxGeometry width="50" height="50" relative="1" as="geometry">
            <mxPoint y="630" as="sourcePoint" />
            <mxPoint x="850" y="630" as="targetPoint" />
          </mxGeometry>
        </mxCell>
        <mxCell id="JNj1z8LvOt_FmI-8M0Pt-6" value="" style="rounded=1;whiteSpace=wrap;html=1;" vertex="1" parent="JNj1z8LvOt_FmI-8M0Pt-37">
          <mxGeometry x="30" y="250" width="170" height="100" as="geometry" />
        </mxCell>
        <mxCell id="JNj1z8LvOt_FmI-8M0Pt-3" value="" style="shape=image;verticalLabelPosition=bottom;labelBackgroundColor=default;verticalAlign=top;aspect=fixed;imageAspect=0;image=data:image/png,iVBORw0KGgoAAAANSUhEUgAAAJgAAACWCAIAAACtqtYGAAAAA3NCSVQICAjb4U/gAAAgAElEQVR4XrS9h5blSJKmB+CKiBsqdVZVV/eo3SEPyfd/lOHh2R3OTMsSqULHlQC/7zfgZlTPzOHysBaJROBCuJubcjNzc0f7T//0T2/fvm1+rW1IQf/++Fflt89+Pz8/vlsnlJPdQ5tS26Ft+7br66Rp+tzmzrwZZk0z86GeK/3Q99uuY990XdMNy6ZfNoeT5tD2XeM+G4bukNND11L2bOCUY0DnQmpsho4f7pZpyS1Hb7a5XEehappDduABtrTOY0BqrMsrKdstD1jr8crx5NkDTUtpe4ptPVLO3KI8Gbd6yeMwzKHi+/fvj/f+f54MAW2E7yuU1bKp7PFXbkseT6Yn8nd8MaSrPUUGi81ERc5H7OZ1SDjLkef6pu95Y9u1m1ZaQhJIWISUPv1MAjYdGOq79ishB8gbMkhIWWawytDS2rhUwHqh/klsQR6CdODpC+gicbDP62AfJpnaUqXWW7bWO1SWB/JelekDlFn8sbdpxRMWOG4+XqVCyOPVX+ukMC7ircX/v9ieXSis/JKQNIh/v3yzZFFagi9wa3k8BHa8EsFpmy6vtSDfuzSWZ3OVh/JAtTqwgPSuSlMYfctSoQGMD+4okGvSb5BrYM48ZJk+mdqt2HLzPyD5FiDxp6TPawrixAfixeIHALL2ku7AU8AOnbADRd6Y6FVnkGkqynL/g+1XJmSghatpG6dTnf9J3fVwcFdbCDghUhzVD/+ULESR+pSlh6pe5z8E6UB13vfA/7xP6xHSPDBBM77qE3kKzWv5gRr2h5aFMl5CkqQbgjsCxon8YLVhGCs57rwoQ3m5uCdnvHp8QqH1JajYzw7FCtND4UB1fi5QCj9tKaKcI+UUerxeLx1b6c9fmZAT2GAlDU39I1K/1u5ZKBMy5MnAJufX0zmBUuM7KWvEx3Q1DbecoDSvjo/nDz+4AanFbslM2D3lV6Wcukcc2QEZ3Qgta+NRfiK8UtjH8u5XvRgaT/vIHd4P0Nbi/WnjR1HxoP7l0FM40j5t9Nwzuv5D13E77xejFIRcSBvzdBowYmaqgmu/MiELN8WVBWQY0rb91VZQFSIKvOn5eppG+mr9q/dHTEovL9CKCV9oJTk6xISwEoYH0GHIFM+Ju6HdDyBvlnOw6dvLGfuwnNFRImiUGztCHRr1l/058AWzjwSgCSrVjzwzNbWu83DRbqQg1Ns3h32za5pd2+7ajn7vWMi86RZDtxyaRYENKJhokW+AqAJ9OviYfo+XRcKvTsgJMjqHsdWjDDwHZoSonh3JcWwSUI0AqsACo39G1EmoIzpLsHwqIiUX++6RlyOOaXvfHvpme+i2h2bXN7scuXF50pwvmyVGj+/wftkmyHCEeaSiVRcgQaT4FWgbNoGK4IaK4T63er40Ncfd0OypFypuh3XfrId23XS7vF0NW7btqm1P2+a0axZts5gNiyFGKhRqBWtCZ0qvn2lniS4F/coSmaIFsLBdkpHWBVO/3OqZv7pYJRSoImw0NsqW0Tbx1lhS0CVhQWBhJTSdMCwpsiN/h3273rUPHPfN5tBs6Qqh89AvkNIFVEi1YqxIWMdcfLYVwIW/upzKhIj/WLXPVRGXipDbptkOVDpY9bZ53DcPh/ahb9eYO7ye91ez9nzWXnCcNyfdcDpPu71jmRKSx44sLB95r7ai5a9PyKn0anU1k/NjzXXdpyYy5zTbM/D49fzJ8SYiV5J3lDtLiWorinuiCGoU6o64gy+7u23fPO2bp12zAaF7EXgxb/ZLKGCpkAFbVnPWiidAeFPTl1InLEYQCzapPbWCyyghq7a86IqheTo0j/3wBAmpdD1sNhybRy+yt5s+bbHAZts1+xn7sJ0PJ31z2g8nh+Z0oYCusOJmQptni18LW4XVEc+/OiGr3OdHaZAGHilV5wXNXxFvvFgPC77224iu8rRL7YV84y3oiOY89B7RYPtDuzu0exAxb1YLudsHmoGuEY1KT3lQ08rpepv2YC26dStm1YHFTkozWq4b5t2Aogv1rDGgjHuAHNsSWssFh2HY9/bHQHKzGW42/e1meNgM+92w2za7HVW026bdNS28JJdQWttseJ8H2uERvboeFstmsWjOls3VSXd1ohc8b90haHqB4+Z5fv9P8COnSij/SL/x2gjC1z+x5XMT7Pz1lku2NSgsF85Cw5nBrD/szOiB6If6AeIhbajQTcTu6lQCLOYiuJeWIDFY7jusRsmLLCrI7eHQbg7tY/Yybyh3wdl8mM2xpJCdCs6MwBZBR/kQvigIPcPiEqV/3bc3T8OH++HTw+F+jW4f+tg7PQGKWacRMUtdcXYBBCZbUwmOybyZzZpu3lyctrtzG7+ct0sejfkzouoX5LRr/tUlkppokw2OFCo1aX1R6rlNXkgJOfLCf0RLKSYpY4raE6blmqa2JFTU0FD+6IewZR53zeO2edg0jxvu91DxXPNEeoHDIqSyS3SOd0ezsj00Lcr2ftfe70dDkdunMyN2y7aflca1HaV0g9S/2gQxWvXQoRhgi4dDcw0h7/ofrvtblGnUrup70cwW7XwhqbRLiy9xR3Z9v4cZecLiIfLlSlZZQtGVyKGbAF6Oz7YRh6D11yZkqUFh0WdLPcpP6XYaMoExEa4gCWjPTo+gTnIXolEoyEhzFCjFOcY54oVKhIp0gY/74R5Cug9nu+YCHTtgl3ZQ9HTZXiKR87bft4d9N2vay9WwXKKwFFNQz+v3G2up2OgwH5ADlLCRBpsi22ggRQdAF9sWRuNmFL0bPd/dpr3eNOw3j+mMu+5kiUgNiDgFzhctanOx6GczZH2SSHhrr0UGh2lXR8lTLVDdPNnNX560l3TnJ5K/dNJzgnLl1yZktc5GyvLHyoqTNTtGeoW448OjHfGLe4WVSYHyS5JGo4UpeJUuTyqCQwgLH2OLalwgkbvmfgs5h8s9Kq7lOQCZz4eVXID9ajCOXhH4zpbtycJI+S6mxyMSuTESBCE5YiCt5oRoy8dMVZJPu8kuWailMLd1SKotElJu+PLQ/PwwPO1afJ6ua1enA37O+cJ9uRiWHOeHBSQJjoAEdkGppHfvgP8hrWCjs797auhf92dNe6aCZXcUQP4pHBUH/eoSWXgW7WmamxUeKfqL0yjfElb/Tk+LoeNvfoA8W1zHEaERSguGnBIyRin2/ZGK95sBwkDdPd2Rnpnm3wyvG2u2r0EERGVAMNFue+zYPhK5pVssQvawyXYJH6TikkhrrPCCQgMAhgZj8Y7wYrYcJOTn++GnG0OtCF1H2GHRvFg1L7OvFv3J/HAy7wlE2KwQkm57189gu+1hdv3UzNdN89RsdoOe0q65hXd6SXi+bFdoZqrT132O1V9bIo8EO5IxBHpGx1DLC/VE6HR8uC5/fTp3q4DpolqsdFteU4enuPF+BGTavex1/s+lZjufaRRg/cTX1vwBlwblUgCHUiN2TdGVI9tHsaYGlWr2hCGmi1RYZjNmMJx0h7G6bq4fmpPTZnnSolcvTpsX583rs+bNWbPCwZi3J0SUJmJQ8J6xGtWpuhRvFg4AKsrfbAYNtzVvNRcnw4utvIUSCbTlto6d2f8E1Wp4snSeJJtQHFwUtoKSOnCcRPdIzXorR6k4PZy/42u5Lt4pVRsIw6Qdwqqw7el8uDhpns6at+d0LUTgFMkSq9gQDkmoC9PJ6jZi3nctVj4XTmagMZzQdODuctWdLL4qsYKASomfFSwhtmDuDv1616+3PfJ0v+3WexyMDh2AC3F5NiiOp83loj2bNSdti16Y97CWkFuCDGSILkq8OZ81u6WcQiW3UHeHHdeuD1jjWHB4U8PJkr7SUYIRnelrfnVCimORq01gYycrIMis1vtA0bWY+iiS/46W9UZw/XWLeeibdrkMLVoYhJxhUMxavMbzk4Zm636cDJfLHl+QZ7AFoVr6F99SshQ7S4aWEnLZLbrukliZ7O5j2CanCzrRUYWF4XwrPkCDTh7BRaYN+w2Pm8Pd0+Hm0Y52vZ9hrfDMajmgTl+dNVeL9nIxnHdtQm4JkUuptMwg78RqbXPGoOjS8C81brftfYcph8olqjA8bu22VRR0E3NNsFDT7VcnJGXCaNjz6IagS/qBHM6oVAU3VV3CFmw8I2ugCply4+tpoa2OGq1peoxWyp3NWogB0fT6B41YjdW2P2n7ZecDozmSsmP3UlC6KGsaTjBrMUawayy/OE7hkPiBp7aqnLfwzatES0lBSOTD5nD9uLsOIZ8wPhHr2bA6aV6eDW/OIWEHFZE2R2OiTiKQUztTF64FBWIt03kv5j094/0TfWwbicR0glf6lRqjm+FZynDHAn5tiSwaMkJDJMWhmhqrd8wmXuDYs4TpRyKVZg3+vrK4vwIlDCAt6/ngEeePB+NO8yPWW7wx/3iUui0+BdJpxBneETfRWdXuaruleqcoqYsQE5QrFSHCKEXOBDsjJ+kUx75RmU5h6Yq1meGbz0/t53X3ZTO73bdPfUdkx8DQzOjSGYJIsA2DK9SyYSnsGTyeW6ZQCvNSE8x+ESfS3p0qyzLfG+1bLA3jISg8FZx4+JUlMq2CGbX7taf37gdOqNjjSMnQpkCY/k4ABdu0Jw2tm+HdyFEp1RpJj4Cn6ZB02bVgzeOcUA67vloUqaWlmCDf0ouNjo5fVSxXcIkniW5v9tkZJDkYusNATQwo42HyESWrYBUtoz4DZLt+am/Wsxu6MeLyDJbp8EiPkxmqskWMoGLFvlVOIxqm5gW8Yl3+UPKCH3bY1a6WQA/34TBi/ShYwrBgUlieIenXJmTU2lM/I7RPrVusLKKL7Pt+tx/YJ7kc9Uq4aSRqcdbI60cqKgd4ffH9NA/Sh4k/iRTGlRnP5vB+e7bAuG/OTsTaXCNd8oAkiygVGTZJ2RHHkaPDMFJR1QrYD9uenWGKpz1mS/d0GGO1hmu1QUaFwB/jbcS7m+Zu2xEHwMwhLiFDQEiIF0KeZi9QU6dVVWy/fnIMkymunKe/xAVqiZjDCpQDIWEaXawwGf0xgqFKn+Dn769NSAL5OGT4UkQvt1jP2bcQtd3uBvZKcJCb0qLgdGLMr/pGDRP822gQQ36UyDSBDmRHCYUU5pRlMPZi2Vwsmh2GOVQE02ikqeiUQVHKs4pwfLXkcqx7JGqwS8z2aT/cbfs7wkOMfO2GeyJ7qtryVyRJqOJop8l3M2MMDJDhtkJ7ehPcG5REhhWlBFQ8edbTRpBqhxDHjSeENJrD8umGscAXGEchJBfVdo6qegxHjS9UEb8yIQ0zJkJ2jQOEOG497ojrh48YWZXrpVId/RuKuU1qt6iYh7zqgXAzz9jVho7V4ZULCHMTAzEooHXVoNBOK5qTV2MVpQalmicgCH0OrY62sn7xEb7JISc8A6YcCtZPdyzFbLvwv8wgQdUiJFAeGlIOojAw78g/yFC25kjoERm3YWOxU/ncSXeZrW5ae1i0Hh2f9LZc6wtsMRW171J8ye/05K9NSOz+LbbWcP2IUu0hJFK436sK0kcGqmpFwSyMNqa6/7TqeWPSMi+K7kis3K4fV4OEI2rVZXLsvlkcmgsZ1lb6dC6DIrQgwtZCdKhIUaVq0yuWqSpC7JjED9Ke1BABrt1gd/l5iexQtkoFbQ8LhZCqGgYuAiJP2n+HAJPgRARHOkmNVFottWlFxTRvvFqI+Xr0bKJlqBryTsj61Uc/UCwElu6fmus71Omw29k17g+xYFVciWhpaGtiBne2Lq0cdy/mRrV6bEmfkSeKsKUgyvYqYjUMxUVvef9k77AiNEgZo1DmLXQzfdlGdpCKPMtgklQ06M6j0X4RztjYhNdDSPNCIJeBvVY6BYQCRJXAkxxhFwkLXNhF2pjh1khkSrV16US4wJUSqFxInePdVO3d8a20oJ7PCacyiCqpnvhKx4SrMihXd6x13J4/VBVOdwpJxW9eG397SmRS+j1tB8JUUE9LjxEWQ5qhYKiYPV07L4wwpanZj1tuj2AluZweEmykWwfqhUAneO1bDL5i33ukj8QPIwO59GoQKYaEF9QddZ5gs9ctH0rVPETnhIWyWiiR4A3rn66O2tMf43AE93kYosEd0fD2HVjpkDxOi7vlp/ZU4gv5ddQVdbtA+PpQPUP5FpI+Qn7iXI4Xk5o/SEGaUyBH2/ZgxRqzp1HPtzw4biOOo/V96vm9ektwM0A6rA/9447IiMERbWgCLgtiLhwdCqitUGvh9bblPafjseJqGrwa+eLx6oKSYWxrw++ESzKGruF6fspQkQKYsitzCV2HRmYcCAmEInM1ZWhrY8rOSPORCEyMy6V6AjduY5CIoUolRYWbY3EEaJWTxpHOZr01hLbeGZzzFboYyFtuihXxUqEsFqv49q9XC8r8DSA2B8XGA2XaZIy6OUHcO0LtB0K1S+MBsKomkORNWARC8hIIsU3PykzBtRXJrJ2zsh5CTrcCpE5ERAjZbyDkvscLJnQJCS+W7dVpe3naXZ1Cx1Aw74Usx1Js3NfyUrp4T/t1+qzelqpd9D9GgOoBkZsNAdKJnmtJUjZNlHmlC4YkhWjbx+BVieUlCpjQmbKMZTPSxNiWFqxyyREk+UKRM6izl4tXggTy5MOagE73sO7utwxzM/AU26gcCptb6AonppbqYwOceAsodW/UTNBSEc/wHIS80Nzan8z2qxmxKnSE9peICNaAREKGQkfERfbF3XQtP6L7hC0Jvzbo633Bcw92IORhvZeQxPi7Wcdw7tWqfXvRvj5v356bEDVW/rVS2+D7I9WO9U5UHHFordxzsFAtV/V7hTe5Feck6AvsOAJEy+1vRp+xvIagKRaQKPDtGDghkq9FIqHiORIfeR2fTP8D3SwNf4D4rRBoTYeQw83jjGHkW5QeodFt8xRsKZFHoVM7isqgs6oXAmsv/BUSS82YghRng4EtaGkcB5f1cDLbrRj/6pBHFAyPavwGTgiZqoKVNMuTbNNVTpUUn4Z/JH962wmoPBvrQKNBG9XGgdFkurAr/NaWIQVlaiyP1nytTPROjRsrC5bZxmbax8tQ9lLe4fF6IFRkNLEaTMgjMbaeHd14NncQIwMY1V5L4V+1pAqgJD0NfKQY2KNhk6FKqDUjsGkSW71npYqZQLFxCi5tFw4f/uJhQbB+wPtaABOu14ZwT/vToxEDwvrkjtDR+GYKk3NVIinJ9itRMEyNKuPCfnpkRMxwyvzQLJvupJudLhenjOcs54s5MmLgqkqiACQyRQZ7v9iCqeL7EacRmRGCIv2I+xqNI02BsAhZFG2vdMhstcc4FGDZIH/SP1TZKTBUjM1VW/GJ4lSqjxIktbRQtQZS4ROe9F9m6+xx3h30SBSp3x/6F6fNsELZmiBT4qaBqcxYBpVRDiVwQr9Op/701K/hCEwacs9n/cKhDxJEhjk400ILOL41It+6g7oQ0j4VE4zhQ8OqBwKVzXbT3D4ZL4SQL06aFyRDq9oDPjygMKaM0DERQLJ2+oc9MVuSRdrPT83dut0TXD0M9NonMwjZQsjFfDaHkASTyxtNeSMhqzgvHLcjFXMlhLAlEZ1cmY6c2JEYWW0xWclXwFNWbhXHoDlcnu6KXZqFBJIthTwXR4oPrjzKCB7SXsmumvNuys3LobOE7E2PYDiXzKtEIfot4xGXGHjditE71Y8zITUwPQeNlnpsAkrskVDOur97ODBU2Gn39ub4oLJQyYZtqSoZFoGnIIwiDyGJwvAXCV4MayIS9FhYU4zvI5GLbj9rt+FMjL6rvJr/Ez/kllxsmB5CHmgIwfefnpovT93TBj1REgkh56cw1om+m1S0i6yCRCK2Xgodt2pa/RBPx6Z6aXoqF9VyeS5HYUmv4GzR/AzpLToA13mer630ap4b/z+79/WmL6bAUMy9mCA/LJ2jmEArjZ2KYWVtSEKD61PzPwzn+CBoYpYrLIfEQQEjO6MVT7C0shH3yKUxP3iOdBDunjrdpjiL2pSgka0CrBjIb8iMkSUhE/VlQPE8vSydNJx92MjYDsgwbmo3k6bYbLfCjPADH5NzDwO5d1/W7C0qmk6KtxgAYFD6XA1B1pZ8U3vxe9HPPlIEjUSq4lOL/0dS5U+dRweAN9UgjYjOoftPYfyKl5PYoHe0/Z1mGm0oBaIhpc1UcghSW8lfmsYDxQbClnrrIWsJIUc5DKf4vGNa9FL0QHsadOgSF0Wp6uzwhIFSWB21tTvgmSWuJh+AIPOgiNBaMqWpraJ68Vt9dST1CO8ESaErIB2bAhbmcAh9IUg/JaXDrLjtrEEWEamHpvlEz40RxLQPUQH6woPVAulKr67jTfDkZjfcwIjEoAbVtZb/6fDughwGB8VKndaLQi0Uvn9UrYXSYhTxHVpO/ZHPjxjVN6XOwTS/sunDYflR6X4SL7FMyUl/U4QE5FGawtm+Uqg40iiICZOPNwLnMz4rCKJXtVKjIH2HC2gbhxrojQzgdE5JJj0HQ0XtQxdOmKLfbg6bzd5gIV1RCInHSZkkBKdi6IeZS7MQGsVG/gtM9ecXx2dA1+1MixYJ9Knkl5j0RqY5VMk8BVyIftc8zYcbQhmJ3Gsjj0o6fKtiTQSF8Q0zlZsNMQ982UXzct68mrek/Fyd0sB4Uaky2JGE/via1ypi5RSveS+nbkVLcZjX9Z2gonDBvarpSHnYi4fM2yxrSoksKoqRwrhFp6JixEm4RkxNVVjNeImHy/wHtkJrNHcM1bphUWzw0IIkAbIXkUUyVw8zcrqFJOoGiDEmnxiZetpvSTlMJjAtowjSRE9OJomUigG7juGpsFWAfgbXhJxcE540EN4dhkgkCeMMwwzDekAEmUpH3vNTO1w7Gq7LgCOiRIq0+mesL3ojo9hR7iiz5VJF/WbVfEfKFuIYQsqZY7XTn9CS5L/jdc+Cpghk0d1nRjLkvdyP+pmucwX2UtzUuQlQISxM/iuvzmpr969ll8DJkSnx2TFl5uJXYB0uSvGTlg3WBC5PimWqIqaDViczgcIZwDIFa0YIQl3kCLv12vHh6vfNggRJkid42tBXsACbE7josSMgrb6g/QIdkojLICi1WUwBVmQNZqbNSwHFONFi0WFb8uslPiWvz/oVljyqVfwYrwFFRHH5aUtyQHkhFgyJm8OxmFECYQ0SiN6SfsfcvxOzYVE5FdQoKKy6xDFnqpWvDCdSgjeKL0AnjPnX7YjDzCepXynP+HWmIRobZIZKTIxgny2Y4N3IYF0eK8io0ljwEY6xroAQgOKRjkRDMrOnSP97h+7wJNdxGRmP3c3bHSyMvYp14IvAgJ7VTtAeHWbgkWYKoTAm65UkPMZyK49bUcYyxNDXe7GniQaQe4vDpUEhRIJxFv0QEcOkJKv9xBEaJljhkCxPBiQSvwgficRzspZBUHKRg820Yzbr7AtNHuvOTjoypzG2SS2/mrsj5Y5KTmZqVTxSUdy7O6aTbfwT1OQwkfAIcj2XunHKg2QftRQ2R3OKijUAFEImHpACRlqGkKLDt+JJhlDennSAT44g1E2FR/NtpGUVV89MxDXQiuggl9g7BxRsRrJoee3OvdKMEWEUBMPRw1NrgjlCYhga+UP69e9TPcfStKlDG3aCVIrZhACSbaI0xNZFmUt+IoVG9uf7YbXv8Sgco97i6YoLqIjR42BMBkp8yX5hOGdewAl9oRFNduLGTn3NXkoiiAy+jzVPhJsksuCJvDzbxhe/guxr8H31HDzoC1IRhkVuRiax1vg64rG6zNgcAiFaUokN8P385Hz8XZXL2eNZXgizi816lpKQ5NDCktiVNOONdn3+9smpuXkfSuF7zWdIixE+IwywWfpCkKnRixatFLep6kRY3ZWcQmAqDrQjRsf2UNVI78h+SY+B/J7x0VXfnO2G063ZmmRIwyvbXfvEg/GtKZojAwyruXYpKXcvVy0ZlEQziI9XCsQYjyz0pdEjjIWAILTmH4xIEx4fqcemBgVsEeafEERaBn/T7oCcXRR83dItX+2Gt7vmVWIZF4uBHhtmN4WwShrJQWGR1yo9FVtzeKMqzAXPJ0UqkaJX00V7p56s5+paXYl3NKJZYaIHHYzUISL0YeQv6fTSiWLfK82wwsg86JFx09BJIWXvCdqzezkFJdJarhB3IzAhqtjiTTo/FDrz+7gNrldxbTB/TGVimDOdMUeEDyq+Oh3enDobnjxmJxdZozqbXnWUgmcgWL8AjUBFIsVHqobfJqM4T0zAB94QMm+mabygxou9wEsGcxhcgZDLgf6ZuPmrpYS8JBvKBRcMNE/1Fn9LFasuElJiQBIJIy2BPvelVvWM3o8UjabHhNkIX6Q7ZfpD4RF+uzj7Tl6zp8GUIJcQE19XGBebwTVdx6q32MK3LaUKUdQDmnsB7mMFe6goDsCAiqpeE1XqYVuG6aSsYMU0dt7OBTOJon1cmEWdB9zpoekRX540EBIdi+wCcCz0YhQMI8CgLfZrYy1T46PMwL2/hSD/fVCCevH4YACXYJ6MrCGr6E5q49SzVqQhgYlx5aTO4UoqDuREKZEzaioKlXSNXB4qVWWFheMxhshIRbVfVUJ7eD+YrWsT6hxAo+/jsWJeIfWZ4FNCktOW4owmmuajz0ZeMowPCoKbYoMCwN+2VKXreM9Ixan9ATn0k4UKN3B1RcQDt6j0abnEwbXU4cACC3u0TN+8XZCv9QuJhJCvTxrM1FFMQ5dIi6PLaQvA6OIEuK/UKfzRI0cmqvK6xjOB2K1YPL+Or9ZJ8WkZct4UGZrIaImy4xmPPEuKIiwGf9FfWo/ktIl1LNqmJrevNZfO/QquxAv4quPjeb01MtgI4whmCY/tSKFClzbwvihJyxyLTpkpJ02thoeVg7Boh/HV8SSX6+Z0b9QqI8NR/ogiq7ZK/po3SdVOZDcxTnX/bFPnM81d1UXd8nr422fsfjQIVAxjwRNaUnCgISBQmiugxVlLw+vu+NeybB/wpYHHm54r+dML3HfqlyHmTMMYUzq5iAGZPA7XDIgAACAASURBVNSRitKiSEi5hbqx0EAQjFJ4ZI6/9a+acWzfETifzf9nuJlok5frJkeLHeMKXI9wu6ejVlpKJPkhDClxfDeVpphfgBu4CstIZyj+C763jWmzb8ptiedQW8IZ7mqLCK9otM5Yjb7H5XQ9gXfqrWMbHOkTkI7bsY+0UPa0oZ61HLevWAGcNHBqpX+/6mzvQUjsHZgOQUQKTRQ2CUOOCu3CXiE/x6pgqqbQGOkKnX1aQGovVIrJgBPE5jBuY/NGwat7ebpeqcrsHmQnYUZfojOFC2lJ3YXCUhlRGs8qeV7Vs1oDTEqgYTZkJCSXuGjZttSXq7lFJ+nirIroidDSCJ3AJSuPp8s+D/Q6KMFfNeY/A4TITjAbhhKg5zyVy1Y1kbbwkiYW+sFI/fIZAXC4TZfDMDZQHndJODHkNLr1HCFVnCxqZWFScJEe/siDQcizLTTPNrKauBvRz5/cTPMLv8Ui9URKrdNQ9ogBMFhFRLsVPbw0NbiqtCigCRNwi9YGC26FB8+t/yvirCQmI1OleVPCiCmP3OJP0KNkQl8bXq9zLz1SQKwaUs1Y/IQAfuNW+SulFVj1t6DgVglPUcTScK6Jw+lxq44CGgE5xnIP+/0hkczDfNvPOCYbCtUPXR3Vc5LpTGcO59dVK0yHKlMsOFNDh8RugiNnRkdwSWTbnpGWqXZ8zj/VgmeA/+Ju/VDfxOEdm1nvBzd1CGVSVf4e0WbhBVUd/Rk4Creccf14C8AUsyrDZtgfg+KCXPJgRjAX8915JjVEWYKKl0QATjo6yJCjYLTMI6GDEoH9z7ZRtY7vTn/ydJGQ4oK1NI4WOOyHG0SQyQBvrYvC+N9hvd2vt1viT5nFTyDK/hI/F+CIWCZa1jJU67IImXTI4BG6NxGZ4nxVQ4LHMWuDjAoMQWFwYxQ0tExbC3e2WdDq6NWxrYHVQo6bL0TQOZnsjHp4OloKd0ZeqfaGIlWWL6c0/nBJCco96Z/K2AtjHOtK8UXRxncjd1CrIXxDjJA1gDLYAgYYa3S5B4yJhCyjvtIAKw/mc/Z8q98FkjBhtY4v8PrI0+NdXivIykeOsjHa66AMo2VOQtCUz6z5p/7haXe/3tytu9t1e7vhuHBuLVFH5ggy9XDVnp+2Fzme4fMyAEtpGefKRFIVSyX61o/olvES1UPFaosIU7TUBdW+qZX8Lbvur0lYrQdyrYjIUg5H+Z2wI768OVXF3yg5jpJwOve2sLFPVVcJhaU8aTneDFuMbJdyfQuJZJwLRUXspjQTEulgKoPPMHXMlLx8ZCmBzdtV0fOjABeDIRLP6/76QnjCikVoDAFkEeLdPQ13j+w92ZvOpB0617FgvvWa9SdICXRxEo6sqpBZYaQb6VmeryGhR2bTs2qMR4L6cTFZfY1QNS3RC0bbshUyR8BUViVz/74d/+5KseUvLweXJUKKT5rl0aemgoMp/qtYczIizfLEz/NyR+i8+hy1vhQa1ttHkKVlARQTBs8SnCCHsHgRMh1NOkxDhNF/KaIAfF5FLk0cVGXmWauFkOmcjF9w5diwgF/rBzfzTd9t2Q9QaPhwc/hwvf/w5cCUs107YxWMbdM9bmeP20Vyn9rdfrE7zBiseSKfIjbtYjucsD81J/c9cWEpetJCSOI+L07aF0wQP7GHQOGQQFmIBBidj6DKyWvJMy7gcrTTPDZRnnMT5H8vaTa+3qBBnISW4xulw76aqLkcFrawSZh0DEbE1PvpsquIic4pN0rL63JewRTAqqiSbo8+FJ2TYccKxaVH8XXtIEr95espYizKk1/c9QXiLRIyXOPfQlFec/SW2UZwSLcZXNuLmWNf1v0fbw5/+rD744/bx/181y12LADfdusDEyLJsHZq0tR/JxM7ZjW1zlj1h9TCjBaxPoJLJJy0DJlmb9+eNf1Fh63L5N4CJkeQwRopcnHwEtSECHXyi8aUfrEBEb/8OzY+KEiAp4q1CJ8KYdWT3vd3HWUgyxF0w5AhlvWn2BwLhkKuz1aJI4HrAQt8Vm5K0YKTOcsqzQCpez2ZgkPiwGWh2Qr6r6f1xFT4WIXjLRmvtvTirpQaEGIOzxhsIfPg/tDc7poPTw2E/Oefd//9T5t7jNRZu5vNd2SmNIgm+0JSsbOaH0tTOF0ZAXUNtmosFbjQ39zFYohIfXPefHPRPJwbtUK1MseRrk94THezRRP3FkChw6gzJnulmsExIbqyy4LuoP5r40Os9DrhVkvKkTjKyAJVh++Nu38SRjZpnW2iolV/tcfyfooIW+TJAOrpRBJP5J38SVE+HYlUHAGiwEqbq36LTGH5E2AL4jqpa+MDeYrc+izr4nvhmJEpNKtYf4idlJOPT/3H9fDhqf/ptv/z3XC9n20Xy8VifnYyW7Dsy5LVRmqpiuRb2DUaXHUeU02vzQxbBuEo82uAshueeubdm5OPxDP0+nnd/HjHSibDi1OOPVZSXDQAMtwuXgW8iAGYgjs1r1otfkiPdvZFFvJMprb52mb+9y5vZYaHGtBestQf6CWDO4lbmhtOSjX3x5QnYopsVj/iEORaY6Evx5GMkAgDm1I5imIJ4p/MYscYdPWc2oGHcY/ayUpRfbFn2Mtx46SuCUDQqLU/7Wl4iZptj9AW3wQ3xhpdEJ1LdRXVWEzhKpVPW0wbcmSbH+6HPz8c/nR/+Om+v3lobg8zktdXi+7l2ezlWQvqGbpiUBuFOWbRxa8g6zc7LiZpu93GRRs1glhc7I6FhOESqEsV+5aksU9PzQ93zatV87uXw+9ekUzNeoAwLEh0lrkdZmk5I6VjsK+oKsaC3LShg3tuWaxozaR+l7jVF3KBOtjRha1YqQ4UQyBKxq7KsLsRToZBWJ7FEXn67FN2TMqWFUGKbxygi9hMm9QqUulF17RXua1kLJQOIcnKJNX2ZoMZX5Ofx7XJSL5lx9qvDZSbOTZRDs1Ev8MRYEAILia3wsnqqrwCE5Y+9mKBEkIa3QgX2V+MikFCbpq7x+bzXfPjTf/728O/3Ox/eiT/bHboWYJrdnLWvrpsfnPZfnc5vGYpmVXzemX6U7EERwcZBuZF9HAlazVS2uOmZYW2Hx+a4WHYPjFpq4OQzAfGAzm7VxuDSmzgxbJ/c9VfyNsZuAFHsjwKFz4TQcFU+PJrzy5y2SAkZvPP980Pt+0teGScYVv7kBMRktFaCek6YvGRQBb99JtV9/bMXGccO1iT4Us7PZkpA3bBUaFerEZYTSkg9UfoLJVnVBVRtRJy5yIRP9+3Hx9dZhCKQtcRHrCReepqb6YFzpw6774Uk6zL82rVETTgFrIBY6VTT4K1dYeKUq0Yyj4lyVfso2vkfE3ifQy74trfPrUf75qfrkFK8+PtgF79xII9Zq3Prk7m7y8gYf83V8NvLwewwP7uzIGOI7MyI9xlVF0no3kkB3zdQk6kltnhSkSLrA/3eKXM+GHpvNgijD9fnQ1vr5qbratXLVhlc2B172yFvGAo+lVMidjcwC9CU7EzX+Knu+bPN/TloWIIicTfbdu7HZogHGz9uAGuH5EMq4HHWIvoYc1CNllnQYQ0Lw8mdEXRqQ+oxbZVlZ5AseqVuQyhIbea1iAJGXsQaT98eGh/vGv/fNt+uG8LmJGxWOaM5I8QEqeOIw2XiqxTtmjuViiV9vbMxZ5toqPiLNnqkmcsAZxh3SM4BZRsxognLKd4yt8AcegZdEWhf3lsf7jv/njd/f5T+2mDycp8g+b1fHh7MWNSFbOr3q2Gd6uG49tThh4HRo9BTcRE1cWJwhmvRr4mPseIrlWoRphf9/5i+HQ/sPjepxmzXpiD2Dm5kDUymbzy1P54zySV4XI2XMwOlzBHgsYxMbTxJaOIrYtGg1ji9vpx+PII7lDRw4/3YDCBi+wkJ17MhrNueLs0tyhGnEXFcyXU4hqcTLT+uD/cP+5Zo+jz/eynm+71RcP+6rx5deFoFy2hIVnvClyVfMZI1Or0Jjof9iTPnTWTAo+KAa76+U4F68r0BjOTgBO7nVhKJFIJRo4YLoXDaSsd0JfH5p61BOW/4eMTzelfnw9vztrXqxkr0hnfVLcGhjAyaotZDqMt7AW6tKyhzlIWX8Dm3ez3N81//4Q5isuI/6Dz97ur9m9fdX/30kyOC1Z9c++dkwAh5RTlHa6AkwygO7GNEwMZhAX2M+bakfbZvqNfpOtdDj/ODqvh8KntvgwzzBN2hCaExI4dDqf97MR5lphS2VXb2d2i2XJKv/iEFA6//0Kbm4+PyuXHx9yLBBHyZVrhqbWT7srsGm1s9JQjMwyGI1n7frPp7zaH/a6/fph/uG2YCvjuRfPbt81vMUAuxD6zZMF1YkywQebTWT7Fq+jYStNhyHx6HP5406ISPj20nx/aTw9OYZBIKSF2e5ZdTWJtxNj5T2QKkwLCTtQM02//1GBgfl73Pz70r+76v3kJ2gkddCS7OqaUwEIIGWKaR4Lvp7OWS6QeZ3E8HH+WcgIpv7/u/tsnUnjb1Wp2tpq9Oht+97L93942/8f75pJsl6yISTeb5IssfFGK2/Zpn5SHbMHmIMJ1/ZWZks5lZELoi9kBB3IOrx46V5jd9uu+oxuTkHdGkGdtfzZ3xgZAV1QydJm2aFZ2rI3bx+FPX4b/86fhLxjVdEUbtGUGROMIYVdfzPrXpwd2ghhPbfvYdHCnqiOidocFtzt8vjtc3+9drMdsxOHbh5ac/xkp3hFAtlAxDCQt6TRgUd0HdhVRUMhkjw+P7b9cN//0gUmTdE/AZnoHWY1gjCPKHHFckdKxLIGyTJdCeUwHFJV7kx1cni9JresvlodoRK3LF1jGohra0TFHxcXaYdqQ/bUYUed05OvRMyPLf7huf7rvvqwtd3XmQqPfvGx++7L97VXzHlOK/BfmtCZRc4tWxKLpVYwUmgFIw+Wa8kw3z9RzyaAz4Qmx8ookseblDuuDdZBapIRFanRCyNcgwvfTg7NyCSKfz9tXRJNnhgtwEkZhlA3tzOgamcjHJEJsqJ/cezohMI08XZ356YVa6/aKxPuT9uWye7lkPkG3btp1i+878gF4vF+2L6lo0V2fzkhfxlEhg5mOE5G6um3PP7WvycPIgvEonlSu/hrJGkXNhBuW47nft3++a/502/z00DALhxouYn8iQ1fznj6C4xnRZgRDQsqUVYyfkTjTJHzAyt21EpKBh1oxrGeiZPvxXqMJ7Uq/TuLyBS7fIkIJRlIEhDQPKfEhnSuUMv3Tv3xBTTU/PnR3O5K+zHT+5qr5r2+bv3/dfAcViflmHh1crzWx6T5v28/b4TNLZhANd8UuuswDRuzrVcfxwtynyiZKXxfDwLadNv1lx0RqKLzuZywpTmkA8bjtABpNej7rXsyH+5OBpRlOGQIz7ztsn53Oj+ehIor0h/vmwyNaxFVP8YhqxwYm9cu1lIzozviwBgWiDPgKThb5n2jBIrcX7f3F7P4l0tN9fJp9eJyhn1kk/Qbd8EXtsr1sUbAXlwnDVPWxOcIMdnWQ7Qe650dUgrQEJDTkq1MTG+mDWKfybNaDk/P53uUUFqweSl657ypBmIRZmywr6w/g/H7f4ZV9eWqwkiDhh/sOSD7etT+Qct5pV/IWYxLpa1IE8pPsKYrSN4Wz6GPh7n/90vzhS4O9A3K5JyEvmv/6xh0D5BLfa0AJDLiYPz8xI7f900Pz58fmzw8a0y8Ww9XC42+vkFFW7u5M5oxbw4mtjzJgkLIGbvDY0BbwxGf4DjSxJPWme8SAabqXC9MD+dYC77uKp1YTsNoNsOOGQsgPj4QRkAAUmrPR8D6J5X7/sv37N7iG5hhyJHUINcakX460viapa8iPRosu0Hqrp4vV+s+fu/Zze8sVpuAgvNct0xxnu/aybd6R1shKqZThm4VD0QiweBd/vGv+2xf7I1xYXoQqqOjfXDV//6p5dzGcOnF8fzrbJUNuFh2jqxBCZMp03O7M2PXbIDi+eFD/7ef2ft3h0OtB3DPaJSEhG0bJi5Uord6BEhzGql6bQvf9DAbH8PvjNfrBhapgcPQJovP+svnbV83fvcKLNGrHt9bgOOdV3zf/dtf+613zrzlCyNfL/vXywJGQCuSr6RNoOednaGul58xU2NVidoae1cxpPiJSd82H0+aOsRSXpJaB3p+212eKKQ9HV8cBLNWWRadBHwBgVkBI1trC33/pwhPN9y+a//U94Xip6Gw07DxG5uk5BCmCGHGqeQ0ctR5dyUfso+lv982PrET9SEikpVO9vesuu+ab02ZzlT4prKR3G2HiFxbi9bpBEP/5c/Pzo2mrBJhAMbVDyH98JzxZ44QQ0gFm1vCJDSwcOSJLFVkAGMyFWkqEUQRmLP94gzUsk7FK/U9YXgyeoKJX+rvmf8fcUiLpzsnQYA11Qmg4LoRy6HLX9DQsIcX6hizmPAOO4Q3hm9ilIABfk0UK8ISQhj/c2LF/5JW1ub/gB0rTEfEdL2gDj9ysD2j2t1kIGncbhYCt7zKO4xK02AkuDY2h/7s3DVNefng4/MiHMh4OwHC3mX1Zdx/W0CFrk+EwpOGFwfV++PzY//l6+P1nvywAq3532b296L676N4RrCDYhLOvxSThEMQYYzF8aTmsNLj0iuvZx8lmkqRuThyV92fD370cYL6ndSsYeHWYLfjynO8QbixYRdzZeofDtt/D/TdPs7un2cMTkUl9QUd4Fs3fXjXfrOgXm5WpL7pg0k9LPuGqABJChhTx1bA8nHeAMdGh1ZiHNdy8aDbvsC0c37hlucbWcWk0NvgcWGebkJ65bYlSEdzZEcFCfteOLEJIFtHGuGTUkBADKIaQr1cYkIRlcdoIF7jCF7iDkNjZ//qZ8CZhGmZI60rO9ioeOqGPD6im4Q83w4uz4ftXLeruEQ/y4FLPLEFrMjUTJJxco2355pwFxprZadN8PNwzbf5ui8l+v1lcbxYf1x1aYYXhZxzHlksZOrYQ8k/Xh3/71DODaTnvvrucffeiJdhEaOLVEoe1Z4eQsNc4WW3MJAppG2ci3uK04YsMzXk7sOPpYt+CfSYPk0/802G2eezu7rtbzFrsz0QVzqCI4oW1tX/aHx53+89Ph9un5f3T4uHJFc1IYP/2HK5qfns1vJeQNVG5jGQ9bO2OZ12sdNQPNXjICdYDpgRgv5g3354125d8jpCgI8jsb1jlYIdS7d7gx681KpFukBOJNIlrhvdD1iwLjNxjAaNVIpGwJF3j37xpvr+SkKsZWgcNAL2MR8ObWAR/umkgpJ4NHSdLEkWJ4Y5oKawJ2fRPh8PZ6fAF3ge0s/ZN377Eq8DHpDGZHwJCCZ28vmgXq+b8kmIPP+JLDms8a6Ky+BIfN3MsvRcYqHkpm39IZicC8Jebwx8+H7590Xzzovv2svvdVfftBWEKTQwNJ4XQ+GRiyPwYmYBqicHYy+5QJ6xGLBJxeFZdTwji/QrOIFbSrjE0sDseuluWXolEYjQQ2kZ8MdiYBL3eH+42m+v1Hr1398Q6O7YFN+M3583/8tql6N+cDpf42VJIbKsO1CdTrK1aA6TRszox8duw6mEUJPLbM6l41rX/8hmbtmep7W0/sFb7l8sZeoIuQ8c0HpBF0wpH/124yZ4P/Y5/SskM3786bb4jprAasHfpzsSIsu+ENGjp5xkS/8W+x8nlyAQwJvaxiBgm2Sf0LWbYxvljn+5YRpWLw9NptyEyYDIPK1fbZdJy1IIrPBPctD9mVNKkB1hhxwymNT61Jb9cNg8nfPJhXM8fgHG0WfeCBTBYtPibtmNZpm8u2m8vMZX9yAbeS0a2TAvxKEVtAJP0md5NthhgY2T+SBTtgSkZA+vBt4xsM5TGVEti6Iv2BZ4oOrTTUMC9g5BCsnINFmxuDCes65sNK3B0rJ2MsD5uW5Ygd+X41jHzb87UgahZGhhNZhBHICq4/lWrFlbzgIEemRThNBSc4PNhpcLADCaoAiT0aBl4QPD0Q1BsGdHR2MmE53z3i9WOqyy5w7mi2p/ksWPEM3WPedyhomKRxa3d9AsbH3hLuO7MTxrg8BJ9YIrF2S3E0k2EifYscPAZZhnWqFDN8EraMTXrQq/HMBBeyAkzFGez1XyJ+8jUeyKIT5vZ9V17PWtuZi07HTCxtFjqww9fGPnqHllBA73Kslpn3TcXw7uzHmMYKsJqxo39+rktNcUr4yYIOnLMggufHwiaaKxhZ4KRHU7SJXo+utheh1XOoZaz6WE4RmQJMhB5ZobU9qTdnWrRPLKOynr+ZXP6ebu/2y6f9nPsDLtborh0H4ngMK5HPA2MuVwofarzcEGL/tiU9wayDRTVJ6EYaUBg6gHUFaYiAYrD0jXp6WDpXsHKBtvn0BEMpy0sUZv22cFrhdlmBdFYkXYh3ZUTvQYmb7whFcMcKhQhRl/sNTUVWmqMoyJI8B1j/d9fuqL+CbQ8wdvNtBLyekzHGg5Ph2tY6a7fXqH7qUw3USoS/Gz4iKPdjqvmjoQkkWCGd8yyDut1d8PXwubNzdxj51ePjG5zJI7PAiaPRIphHQzUVfv+HHuKUIhL27g8fjQNs1DUp86+N+wEE9B5//mmZzcQajh0YKiBaAmrEK1O+dYAhhi98jBfOicJPYGShZBYNB/vEUXXB4CKDDezAv3nzeLLdsbxbjcjVswIOYiBQuhSjB1zkSa8ubA0C8wfWAhfHerKlOJPKoJO4NzUBwqZgxe71hBeFtdgEJ5ewLmuTACaObOTPCnNNIYFid9m4UYaiFdpQICCHPidJJKGl0RCyNewA6mLRmcMTEUc9ViKlih/tHMIOfzmsnlzMRCz4AtC0BJqHTbt00N3YFRh3eOhsq7Zbo0fR9TW7EiHbE7pD5yGqhlNyQO8zFpVHVr9HrWbZdhYdgiJvJaWDqawEqzx8Yf+hydSTzpWgu9xMU+wyPv3547D0GB42QA1Ywto0fpyqkNi6klsug86ysP//bH/+Y6PkDUfbod3l1rO58xKvGov5u2FH4ogsOcHyeiFIpF8QHA4uUNxJSIayWNg/Mt2jq30OSNl9CP0SuAIhMD3zCcEjJq+k54IKhr9YR4uuNX8rohfum0eILaH90wcjTu85TQxsuv4EhQm5FJ4wJoSSUwqhPQ7Q47blzbuDdG5yoUcgWECcMTb+HAsIuJUJIIpKH0+XYAtY18aAsaJslCOoauLkECgByjKSJ5fGGG0ufnuRazBRf/zFdkFpIl0H1jX4qRj6IpAMG4YT/JZE9K6MLtgkZJ1LTCGyxNThl/UE72fffszOm1wxf77NamXPQmYP+86TBVU1nHxV/SF3eqG+E5WNHM0e0avj+tHJMURqwU5RwNeMkF5+jZ0PqPK9MpvzjqGdBDo9yy7kIXREalHQ+0OMDGEBK8/7XoiR+jqaFT8RV53xW+8XowzbkEkjDQse+QGp5kYNMEj+mNexjzGzc2Xz5zNejh1DJomQsLqK3H8MJc+OWbZPJ20WxJflV0IA42NaNv3ZNQjYowkGb9VfWoIGGZFtfKo6xuSlyAh0WYsLS8T6OqAUDp8B+v9egYvKasUaYeNFonvgy2769on1vVu2zUAEoLC0TkdZi+cVsdw1c/3A7GC7rZ7vHPQjvSfzf2BFGeid9gm8BdTydLHy5sad0l6AG477HxzkVgJOPqy61n2cbN2pIK1xvhi1J2haxeNK3Oe91kMjzAFhgmxlUz1Jr0PLjHIFwr1BNL+xFD5vV93oEEQkgwHPd0zsr+lpd0iqwd0zR2slpwV7abGZRIZUcBEgorIB8m6CA+0rM/ksGj0PUMo4BaEmHbgxJesIq9txWjSxyetP8YDNhovzpU8DU2KlkSUAPvjQ8uIB1ZnKIS/pwXLU6zE5UhNCBlKxj4FM+4yioSMRJqQse173cF+bj4cyIVImFtkhTMUrLkHEXmQzXiZsqhEKo7PJXKDICvEBpCQxXfn2IeH949N87l7XHY/d93DY3+/PmyRqvXw3dWMxfn5uBf9WTFm/S1C0kOgcNT5qNOBRCHWgdXuO7D8JLCySFnXbOb9bk7wzu4mWBELt0TPHQZnOEVj8pauayCZY3Ap1+XwcYOx2vzE1x22mHwOoyLlrw1ZmCSAvaYxTwsb3coiJHRlcbvH3eEBaLSb3FEDhozVUEZI/CDZjhWRJCTOla4YS/di2CMe2x7GwsYm6EM4E+xje+NasGJFqOhGh4dEfnxAV7E6l6YkIayD34PSCwAAxQcy1lCeoajRepeKSqSLQcTYydKjuPJmEyQCWbumkN0BW/31VBUbRZtmJAQeco4reUgTLX0UPUihX8vCWy48ghKkIpQh6o4gn/MOcDpH6lkYhSuRIUpOU3G6EODJMQBwgwpCOvtrVUsWcnP96nHxar/6wOf/kAOE4IBEosl7hJLw2+fMa8AbZngS/+rtSfObF07GIMaN+T1qeWKTCSiqQ9TxsQfFmJSmcoABljimWgx0gRhAWg8wdz4gWzjxgUK1RfhayhKBClIayOY5P4L0vBwx8wEv21426S5Oai8EjChymWqtT10LbbUlX6Llm0vM42XEWbHFxuMTwcTVuLiAFMLuwhiJDFoPBSMNdMMQDLea4does5h880fxiK9Dng7rXP7bbYuIMOy337BCQnc5n72Ye8Srgb7JlSvxo2ixx0cYLBzGd1SZSGG7POuWq5jgqLNdR4dJB/llh6TuEVnMNPKnSYnmAb4R9wpVBL5vnN7NYD1k4xZLMOB+EVWgJmKEmJTfXbS/vWSofPj+iliMw15CUdhFIWWxRPpRehwAJNVzxbgu8/1ZPuWETDOTAv36dhI7SM5ut86UM/JQK9YbajMfbu5MAIs1NantGZmBe9DMNC1VWdFqr91HKxjBpldy2IQQMW1PrMeZ4fqIsW6zhIUuCokNSb9TaBwh1xh2hhQpjQ5xzf3Wl/4ATOEX0shZQnRNRmVJDKNMfkbFxfnkrACintGPMb8GQh7I2CAI0raf7h3PFqxRKAAAIABJREFU+3Tf/Yi5/9Ri70DdOZNX0NuzlhAaC+WBGrgjWQsoAjsUvzpHz816csktJMQKZS8v2pdX3YtLx3uHLVTU7fqZr8DfH57uDyyBv9+TCI8FOzujV8OvNw/B74LiMro4XWYdQQ6LTOQBfYWXQg/9d6+Hf3zTvj9zqGQkpEyuUhAmaiOEvffjWXAGwcWrZfvq3B1tDAmJlRM8Y+d5lMHTweFKpC1eQGKn8SMJEQAGEVcGjgjDughFVFToKxIxRF6S1tY3VyTvEEZwSoWRWZKCVTOQz12cUzp9JdrOwAuE1JsA2hAyEgkhnUVC6UDskhJ2p6R9kABBtFkHme/ljcNQZYMYioiYGxEG/SMhSVlYdx3JVD/dtH++bv74Bae7/bRvUWh3xG+79pKhUdJ/GCzEkkpsSemTkGbCavYo8TCGLGJ/SaDkgmHt9tvXGsNYFBJy05x8QRoOnx72dzvm9M23hwUJBnuMCMZsY99j6/54LYcdlEjklVFPFugDhiAOQl60f/+6/d+/GTivsZGscDcqLwCBNpFIQ/w4YBcnHfT7zYvm2yu0scYqibgn95KDJ0kKdHXF9ESlh2lapcuCTb6X/GLGIqC4pw5F4NtgSIaQ7oyPQUViIzgn2Pw1bY1ug7Q0lB9dQ1ExPSIocRCQkhFK6Kd0OZgfowURxCdm6BVrCqDBHbRHL2EpYGvxKpx1RlaZWlStBTtQEN7xAgjo6ghQrZsvEJNRkXX7AVGbNz/f+qnonx4ONJgiX+GTEDJdtm9OpOI358N3L414YeIBXjq7bs/X+nAY9kQu9AJNz03Yj3RLsry+SZ6gqhdenjVPT91PC77RqG+928/uN4wGs/KXo1dkm5EZe4lb+aL5HndqThjP4Bac9IJBmIsBf/fbq+FvXup3oiSdPJSeGUAyNOj+5cm1kBkgRPOgUV1Q7AxtDPnZB6LQFxtkqCfJj52eFdV9RyF00niEWXIXETeonaEJFv+1I0JmEJWsqITuLyqqAXjRrBtNDewJNAqmOMxR2hvzm8xKc7fAdlbdQ6CZ1DY5FOoQUYINynDpigANPYdmM3re7gEWxs/9uHGNNAizxyOJUgZZaA3TsXnY9cDo+fDf20+4kpvMYw2bkEdDkJcdQl2dzqEiyXN+1TRDMASUSXvE9IeP7NhdS3VG5sdmi+fXMayKR3SeD2kSLSLa8HY1vD81XmgnFB68YehxPseI55tG2/2MRIWfH1zCjdrPlj1r4F6cte9f2ZDTVfN5g+PI0THe3171v3nR/+aqf3+hhNH9WxzYALUt6eGuxExvSs40H73AT8f2gKXgD2xaCAkLJvLgoqykIp2wOgiE50OPmKYUg1bBmELfkr7L9w7oJln3SG2oaw5w9kQ5p1YIU6pVxYb68RPrasu6jYPhB4MN8/rhZdcYzwIWJtAsnQtF8i1hYexneNAEZQjJGBshdnQOBjfMQqsSUsJ21/vBdn+x5JPvNolaUM3wOMtEGxKER2AWCGmfbA+k3Zi16HbbfMBlu4cx383a96vub18gDUR/HBpj3Uo6PBbFdJX3fE+enmzHR8IikURJAIA2w3ojIVmz1PWENIFktLb5yByu+QxFArszDKcmeKCFhOgOr2jVvIeQ73rZ/wxD5nE4fWxnj47k/MPr/h9eHb6/0oglFphUoHSM0YqEykiCJRxPnJovQUJINCXLUJOuAfEQR6j4juTbVb9B7vvhDFpmtiHpDYzCIVPEkpBIhpIM8bAwGZYc/xLl0RCJeRjfzerqvxDEdUbZ2KHEL4aQ9NBEcOAnAlIlkTqoVESPzhAChFR2R4nUnzbO60dhyUjQI4aDUCmq1q1jVTg9b8jD1I20GgHK8osEPhQaJNhluXSQCSCRmOFyo36Q2v4J6YXkL1fDdxf9P7zo3121Ly8bUtQvTDyJU+qHCUzm3PKtBZZjh/vQJBhNcJ9pZOpVzDxkEfvoVa1OzlstyVR+T5fxAbQFG5wL9uFTxJ1OBZhOyLYik5FUj9Vw8tAuT4f5Ccljw9+8Gv7+Vf+bS6uOQCgPRkukgkFBEppp9WcMbyJqvfx6PmcVqAEX5f2FX/xlUO/FSU9/zrLxp5jKB/JjHJ+JC68JjXQyrg788IqLVFIDWmrqf8deWAspytXWOHIA/YChiMtJjboY8bl3aR4ECWVJHqXzShn3yPgEbBqFYpzIUvKJlx72qc+sILyOIsHmT83PLQu/Nu/yKRMyAPUUtK8deCp74fZlw0e6yRlbZxwcujJuTLEXrN48nxFyfHNKQnrzu8v+9dWOScuYGzCmrah/fCNgD/v3n257utU/3pJDZRINRWEK4djRob5gAhecKB/baANBDPIxQ+NieP+y+WI+iosSldtzd9YhH3RRYAVmpdkaAi7kyYdHTKp+c+oYi/O3xrg1JqF8w9FxImM3Jjp/fvJ7UFCRoc3X8gfGavPyHFEQVwgMhYMoeB/P+OVT9/qpeUtchsjZYLqTmpMHyDUh7IcrEpMwjtZIquIgf0yeep2i2ARmMMUX/iCR5d8+EV42wvtmuSde+PZsfsn0qcXcrjTkpyiZWa3NEAITOg79yWLmJKDFDL2KUoaQaDxyZ+7O1bSoGTBigA6HpNODpttnLsA1hj4rP9Mb0y40eOYQvT3rWBGaWt+c9XRyr1fk1e3JRyLsaVJwdIy1M/+SCNbj8Pub/t8+MVVo/vnJrzBaSAiJccToIH4Fatx8eXjAzgxCDgjc+81w54cVdT9CSPfbVXcHx2TiO3lKDkSYrTS82+HzoGA6w2OgasQpfTS4s0eAWckBgJA/P0pO9Cq6irXYQkh7BGokH26JmzUwqZD4LT0U+mj28ql5FUIy+IzvQSCCxEYS5rCt3u2aSwyizJZip06ZOLuqNWrdEy9p9hGGrhlkGCiVP/XfP+BZHxbt5vXJlnlqb1cnlycnSz42oG8TcZaQo0QK3Omc3eqNtaOUneBo4uznc2fGoGmRSDvFmAVguSQSpTrDKHDakZ0XyrCmIv/2Rfv9i9n3L5kZczhdkAZIQvo+AW6dHYpJa7QXSY4lOxtC/l+fDteb7nrjBC4XistoOwIB9lcYyXaPQUJ8BQh5hd2Bidg2X8gjfWjXBDw7Z8AzWE+G3+zk4CLxTFVg0NugjzuBDsphYCMoLW1ahGQom4QVgwZEU83Je9JDJ8MIQqLbnVtzTqKlHiFUwS1Q78xnDH5hb7xE3z4Nbxiww7bgYw8MqpOBjSp+YVYchFEiTfGg/1EbhSfBVvHSVynFCkE/8LlDsI1EErT70/Xwzx/h5sM3Z9vXZ0/fnh9Y5uxySWrLUrNINpAH5rhvCkUlDcSy+JaEuY29KMMIjvxtE89l2humBDitaQIs6MtwD5ONrwiat4tNc7ppz0kQ4QMXfGUBTlzibLVkw2Kmv1yZ+gfvsjyLbEN9UMSwCMnNDiD/5dbJLj/fd58e/cY0T2EiYtYiBCAOF4WOXdvPzsBeDVFyqJ3YKXrSFBAzHpCpfqs7S/bipzujg6/OuptVw37G6L9MTzygPs+DfScSXWrGUJmCiMfGzlDGH78waclpJOYzMq5LMjGpGy+Ap6ebIOyZAJzdC7utwaNoXOHi9XnzfQahPjTGkhiQoo8gpREHH153ei9WBVRH/uRjXwwdPDEmF68faebFzAMcQAuJ80wbZXjrDWvDMVnsavbdSxLVmAECPrVt1U0gHQY1sgogOiItgXKSoP4G9nEql6Ovf+kZu+mJL//00F7e2l+/P+vfrfjaVk8M6Hw1e83YHxbHvn1PmivDNiYoZ9IyJawc7EWtoUqxtxn5JDgXVaJNRr+C3NCXYFMwrvSX2xknWGjkUOGx0RN8e9mztD5CcOnQkl8BZxAA44isVKN5sDhjdfRednVEbk0lYoSezhVP4OebFgG9PGPvLkNIh4fJLfFIgMrGgj9swuhkx0lIwEQC2BnvZA4NJgamCukjTDr7htmDVz16BaWKvxHUGbNzpkS+K0Gw65SZ9BeamhAKub8j2MS3FzftH68Z5e2A52LZoasYgk2vFioWLvIL+kHsWvcmn5F1oj9mMymWt5jv9BFn3Yur5bvX7Tevhpfny/MThr2losMjCviRkMZ4FAUGAejAMLRw4Pi8wheyfYY9wwg/Pc4WNwKKfiLR9vXpfj6fnZGWivl03r0jIpVPLQLcOKuIAGm+xIAZgkesdwR7aHP4j2bwMAuBEIBlbgKz4H646UhQ5nuF6HaGqV8RLrjE53MyFF5ExpWcWgzIsFkm4mCodSuWDs/0BELwc7JyCb3SR+7kD7Kkzs6a87P2bMVkx37V9iRWrdo941YucG2M0jEHbN0nxjXXDj6QzY2JRECgspYIPrBoxbcv2n98R3S0f7mkBBLvIRwrHchWQGLYL4TEqCGzDRsVWWVO4E+PaN7+mujrTXd9z2w1PxD2gnyUVZzsDEZBQKyT0lGQEAdjvR2ckzpl5TAUf8dHglHW9A6r7upy8e71/JvXsHV3htekw5Lxv4xrzM2MS09lz0cIlERFPN8LgyMkG/7hxqghM0hQrVhddCknXX+1PDyd7fDYiCMvSATRntRnwnCiXPudHDXsskO3+v6inzTJTXYYEE/rL7fNP39i8qVp5vQraDM6Epah+fYCn52Be6atuEZPRiEyIOrIgWkcOzCA3BPNSnbMbH8gqxZaMgbhjOWH9k+3LVNxl0zZXBmhvmACAhly7UHGYjo0EHdMMoksmpXafCFD/EF3sIwsDCV4Gvfmu6vuH95hapGZ1Z+0e0YMMKhRzDioZpMkzE4bcXLoibH+QDuDBOd3RCQOcglB5r2Rk3EiAwtehXjjnsgJ5wwHYRyRaYabATyVXoVFkjlgpFsMF+cd0ea3r9p3L5PfnB3SOSkSVa//6W/dGCUl48U8wR1cIjjo/QXWiuEIpt+tmRdBjmQ/wyrYPkHvDqHEjwEp4xSLLGYVG8oeBKxjCmLoaqAYj/EO80npdB+2A9bNv1y3//Kl/QOTQImEARCyeDZgGX5DXO2VIc1XZ3zXiNYQXbAfEFK36Of8wfilovmMz2A5QAeu0ZsZPrEJ8pedp+NzRFkPh9lTz9D0bL4Acg22LDVgOhaut9lNRCroDk6d800QioDq377hI3tJg1OGYPWlsU6TW3TeCiqK9zxqhp10td9eDOs3+nx8K4K87bXfRIXSplugJpMR4qfg8FC1+uKUwx1+SpTQSgZwLuFRh3pImkGjdGer/r+8aX93ySim6dE2PMdMF9Zes48UK4UlBTRaP2nXdnKnHaL5/StGM0z0e8ISecSanUPF2/vZBd7YyYy+4fzUiCXjsDZYW8zSYVm77hASm6IaS72fNsPPdyTLkLw6/OGu++P97I/3qlmaTSopRuari/b9Vcu0L/B4gUpkUXBhLcLVgLkICx4hWdLH6adOEBdTxUiasra0D9trA7Obb0GmLjMoZiagORmlK8VkUo+dgnofQjLDG3MdQcTxx1ag7eQM0POh2ON2l8aBK+mCQBJgiDKzn2QyIeQSmZvfo89ac52wmL48eMT2KfbDLmNxN/IB2Mm4CRUdQpQKo/lkBJR8BsKiftHHKBgwdO/JXiAchqgUCaeu0aSPjHAqkTGHVRZHiUTYMbFYzYiZyVhiH68NVJI2Tx7UTip2H1YDRgTWBMtYYXnzIlYl0VT5xV6DoiGfeoa+0xFvDSuzsD9vcPnJDd//4cvww3r+I3MbnkDs8ApKEFRjCuPF7P0VagC4zcOYu9QPaChFAlyIW8wE2wN+aQCOeU/Uhs+wHs7gBodKqQ7yGChntNepwk7EWT+gVHShHefx25bFwh4NvmA3Ma/hwtkajDOTsY6/gYKFoR0tkmzAoGGl3EUlQL5YihAS3MUzbxgOM5j16mT43YWTNf9yOvywxNQggcZIGeYxRike6vVDj1MgEf3K5fihEvM/wlJgFVsdToKhGSvFkaP3RU7Q3kFESBY2SmzqSMipRSOOtKd9B8P1m8Q8T0kE2rcd/TA0GpwLyBIoWFMX2+GcKaVbnCeW09AQxSqrcLB6P6OARMu4LiEjJWSmMwuaiQZ/uR1ucZiQRTo5PO4zMnp7wgvfkWZ/Tn6i2b2FONmswJZ8wjbqlsmjtYOXIUUxkV5C3okmHpxouGsvMBlYIoApjG33KAmcLSz6ML3K7mBZONyYy+ZtdkZFvsNrumSymLUW1kI4ZcZaIOZ4rMmtozyKVrCjHnb+156OUYJTkZ8ByZoizrHSaktBNSwMPwEGRNLUn7OQ/4BZgAPK5wbeXzob9fscbZ6bMU0rqhM5Nh1ZuOwXW/Rr+gGm/Jz23w0ECvqX7ezdvPvmpMOIYJw5qyr0hIYZGbxlIpLLrcx+vp/94dq8GJKw0dfs9D1oD5No4ZjRUm4+M+Hvdoafywpoy/ns/bL7hhmmK6ybgfkS354PGvoEZUBxuqMakuBoNAnIwnMAnYZx2/lVtEM05zf9EKoCl5JEQgaeyXh7PBC8dSkKDMInhuQy3EO3GutRX4DwCPYdQnmJmjnF6+1fLrRyXaMjhSuFBNfkb2mTn7ljF8UfDc+jlAYMirVwUoSQcizcqxV5DcaeyHPHlsmiN6h6IGEQLnMQKvOeUcaudwKQk2GBxAmmoDT8EILVseAaoSuU/DtCipDwIT3t1QlfgT28WO7fzIbb5ezmzCl6f7wb/nTXf94ettAHxmfYuTOSRJ4/zgiRdPOFssKCxjRZ4YyBAEOMC47EOx75LOLaHAOi3sQKiF4SNHCc71JyujTdMpMlYn9l8g3RGPFTBBNt+T1ddFonP4NORv7Q+TqdHFk21iw3UoRcZMe8bEb1TFVketvMBE/7dN0BhcPBHJI1Te1JhMvV0+j9rArrNJlWMFMRsVLQPA/zcEhmT8HoJUjprBZG0+i/yfLlo9OafqbqCAOz9ZiiRDAEN8EwW4RYE40MF2L90zf0iCEYH8cNt2h743Qa4S8veG1kpCD4F1skUhwikS86nKc90yIeT1hojPG2gaRskhm+MCB/e7jbO6EEEI0/GaoBk86XS6zVcOvThuTBHjkgDZ7O0wgb7jBFM1WRiSmz5puZs9j/lhntmKlXTl9ikCgoo+MBWRpe6lHNRUEG+iIhp1yyI4xEIvDSPbScO8N7T0CSyEFuGRtH3zIaQwCRIzrYeX34IRLSoIy54BNiIm+VkoQXTffq1LO0rzglRtZX4QhM6bMCmbvURMjoNBk/WO5J7+iTykMR3sraXPuDPRF0gdq1J7Tjf6I7hE+FqdS+4IVX0hfSX4wcU0RLiYFdO6Ny50SU9eQldxmOFprdQUYWQS7GnV4Mw3ckjIOdBctyMPxLtq75zpViY5aN7dVkhRkYnSCh4YJVf1QzhgOgNmNkyX7AY9HB+O6KeCwjfFrIDA3GTQ8IgQbMFDOWvjeJAEwpqeKu/gRq/kftFkILfg0QU7giwZKZyzwDB0g/jTuZVh0Y1h0fyaMRfe7wvF2YbUocTnNfYmlchJFE+fj4BDTviD4R4WsUnaKiXizQtHqNb4qht4hO0JWJi8ZWeUU+mWYWhz2jTXHsRNsqNKiSkPlmbRATnAQtxXUwllYS6ofgOuqO1KBvuZ1oDus44REyBwPX8LDvyKInkxgrY0va6cHkU1ahwGkjxAqsFEhMhOM5Cxm4xmc+hY5xT6rAuSkg0PWEdJKRikdUiBWJkPiJibXKK+0uiyryERyNDQ/f8o5DUnrqYigo9QXC/T4pCXlChRlUiTtOKRkVYFVeT8H8ydsjUSU315TX2G0A43151ofz5lFerNmrQhsmCi05MwEqNWjDp2hZJI0UeHkjZdnQiLEIGPESwzgkF7zit6oa1cpwTCDjX0l/iJkGyXFyCIpcT980fpLnGYiAAM4oG8g0ZIIO4wy7XbffdXy23YUFtIb297vd+WqRhZNniCADM+77A4nLry67VxeEbAgEdgSUmTyFq0PKIMIanOsGCQF1BwI2WcDJtTilYLB8X9vEE0iYSIqAVGeZZ9yrHI4Uqn0E1hznS0Kv/bvqSxGLoKnQUW0hWmRJzJd6o2+0Ap8FKmkXLiFMgT1kpq56VDDHLYwVaoQeka0JJO13OYQbGbpwi9ZJJ1AsZi0V0fBVC0h5gjRyAz+Dolz2aAMje0Fa6pUHJ5L7kJhU9nHasD0J8DBc3DevXb0EKpo1KiGZGoh1atSmZxDqhn3rGBNjqldEIAGZdQBIwdoQ8G1eM232anhx7ooGpp/U16lqREDYCrJAWT+Ug5G20fjZAZSN04mKaUDuV1tKkgXc9tXAQvonp4tk/pumGYygP4kKnogf6aiCqdY9BVbJR8yk0LqTCo+AcVp2rKBFWUSs/ZEGBWx5JHBPpVejR36Qb7KnAMlqAaFjQVL0KqKlUK7P9+7aFDJiAR0vp94eH5v+ABMKisdgYjiFFNuTwYXG9qeMP/MRY8IWpNaTITHD7l+dzFgHlMlZiFrHRHczQTSsCYKjWs9IoDWbr+Cr+gqZ0zFwp7bwob2+6LOPK7VTmJkaCRbs1mwC9AmSNHcdnSA4gAdi5DOrUmrHOouePGDX35mbXRD7KqiqOqrF6TCrmqA6dEk/mxN9Er2YPFxgO7aenxzHEwrxXyH12fUwSYTH54PyFPuMe6rYlJMmTVuB9fUSt4qQmHKiisdHYlpkwTG+mzoUT3DD0fi/c88GEu+Y62uYipAcSfv0kY4NuboEgwyMSXHU7gJPxpgNzC6dBeeJaEh3JKW0IMBaKchCZpovR8rAaRMw8Iwoz/HYLhESFhcRucqJei/AGsCEvVAehOld+cSpjbQPoxTjnOmtpWNFQFWcuuo0R+9IiWCk4AVOe3SoyO1c50m0tYTMO2qy2sVkkGc0JeDVlTqmEWnXeDcXqhT+8KtIUlenMkVYATlqCkbxIpRiLMCyKZ5Ft+nlKtDCjwAS+qHZvEdY1tckAH1YKOLKZkSnS6lbrO/zdPQXYLFbR0oP7o6ISDmB0D4jdmJpMEH75Tv2NXmwtvTvYQqArBZYOvdBLd4kYXqmdDFTlaAdc+GIFdjxs5wS+R+ZP5xaR+wUBCnYrotwI8o37Qj0VqpAW8FIRX4Is8MEeWxC7whdIAmaiuyFk+PNqWouFJ+m0YWK4OZZQ+u8IKx+MCqDji+6TXlUWcp6vldMVsf8Ht8vUlcbbIQvVwHVSNrNSCG+F/FVO6DonSiLuAHiqmK6U0Fpsa1MLaXc8kP1JYRWHAMhrbWhbBYXnRc+cEsRqrBUYYuCMk/SGN5x0it29b48OR/gStLwLZAH08h6qQr1Z2pO0alpPPro2CkUTF6Qxja3SvOCLcjuuwEtRVWRPjBt1dSgggcoIAw0AkWdQDU21DdGdAW0IIEytQCjqnT+ar6F9WjeBLYcg55JWKhTXAqtIlMdUyk6Vwk1hlKZCoZLSH+toLOzfIiKWa1aMIJWMBzbEsQopxiBtaV5PIdQHYG3cUWlKqH4NldsfOEpkilJ0pKv/YV0iqGpkw8zWES1jEJL5oI96x2RFKyLIR5Mu6klBdfBSoMeX6FIg1Bxvo+kydizD1ihRUVarGVqZhobMqcKZVEoeTEPPX/OWrxcxwKzjs8I2eyZoxmrWGxOXcL44jNa0hRdQno+7kXRBHuxmLV3slAxVisuI8m7zAsHCQxTO28Q/JXQRc36Pm8DvbgS6pQkCkSHAJpUA3uFOYXExqo93OW7IClalqfTCavBbb1tUCPwIs9amggsRs/Al9adF9WHQc5En9QkVJqWXBSyBA8yjYZbaS6XrasKPSIhHUpaFgao+nRUwAFNDr15Is7iRKBqWm5NLRdQ3S1KKD4cQbJyS8jP1FC/OBIQUAqUyErWy0PWY8nVvYdRbAi7ikjPSdcuEQmfTqm5ymgGrqQLYKydkKbTjXZNZ0c7GHVSjMWGNUygC7BtLAoVtQRzEhdVa7VaXFuWbKPCiUPoMb4jxWp7hoSiUjJlfEKgjx5kmlF0hYiM7jIPmZiZJFFkyriqRgVMC7Oho0TmTnEFIixjSiRqn2xpqw5TCAR3uQWjiCMvwwq227BCgGTjV/GZdQtYgEvwsShV747PpqiJB6YneG6ukuHFhOLG2qsCazJhO3AEKv+XmhqpE2LYQMUCgUyaMjPLs9i8MFNrMGspLvKhGZJK7PXTiIDqsYq3GZ6O/On1MIwQlvRzxZakrbUpkGWdRXoozF8QmPVHY0K7vv4tq1Fss4DTuEiC3MWqnNfr7vxuznIrfDeePFAinyKq9ipewAKVfZ91liM0AVCgh11GEANrgTQKtAOZ9kK8z1c0suIdUV9OLNbNGAfGI36aixmlMiyw1K/hZh2WOuFJ+P56i0QamYjwjZSu50SQr8rNwhgM1xPjSbVL3eQ8VTJ2Gz7mjU14zeIIBGTzDrFpdgF1mIECLC+yhuqwgGq3LRJc67Pa1OtpkssjsCVq+SVT1+38itxBmFhUvkOZKAMGPVjTiAkIhJ9Yhut+xyIxe1dIIA9X7EFIls8Eg/YI5HagkxnXBabUEUAKHE+ocwrGUc8EX4APrGkLAhoUjRhPc0rTp92ymUrLrCqcWrwfQ0finnX+GOhgPf7yHxKwiqK0Jssfyzxyr1UGwnEDw+n8i+oZZ1C6SlOVWEQnlRKlUOoNg3iFzYg9jyGzrAfIugwsTnzfd2TdIZFOYzahnhkwBsodbgAs1Yflh5YxFSgmYR1RYMufUbEobUmJcIpgVXhQVggX6+kUNBYTS0NrHSUyXzM2PY7wU/+w2z+yPAxzV00BEX5SDm/WMzLwIDsKwzkkhR2OUmREUkFGhSidGGJUHREMdYoRuWjnlAsqoaDMjYpU2HkpbSUEliQBV3RBLdRO3iV3XVXH13g6bz/HxIidgq+KDrDBCVsNYxXIQpFS5AKqBSt5SvY7tsvbQld49MUjB0uYcbKuKeox9F0IxvUnMhTnNhVUZeaSJQamX9QSGAuwPKHIHeHmUTOycpvzdNoi0swStFbG1yCeU7Q7x1RWAAAZiUlEQVTck2PIBGZdozBBXiTfqXkkxOE8E0MOIFxjDyGKRKBBUCS15/G0PAIy8rVAW5K8PEIaJks4N+JZnKr4Y7FjtnJkw9lErzLIDPPJdKwCmxkj6kCTVJy/kCGGsS7Qk2HwGG8iwTpz/Lrli651ewQl8Pq8VfBCkDySNsrSu1wqBvN2dJ4GM/XhPjJiwrBfkrjSrQhQqo7wygAixEKrWBkmdZftMOnHwMjjRWRvpzxb4LCc74j+OoI7ackAsose9GSfELsn24rVqEhb9ds8PV/VY947VRowVjmmDSCUTp1T8oIemLOxTdZMvg6NuqvUSFPuxEeIqC4SmeNuIZYEUNHsGsGMNbIElkddamcYAiXi7vy1qDIYxVBKCkqhXswuHlwMIZ+boajkmZrqSAIYuf9whImD0yZ5Ahpb5oEFk/lZW5Vc2E1zA3Ye8IQ/gV+KhEjjmfwFCSdammgGj1lMCJjmlpCPRaWjijody6ziYWXNG65ajbQM2oumlOD6YR4NOdA4uxOzvAiIZ4EzVij7+Hj48Hgw67An15VBE9fdRdrIKgbb5utYr+BBPxDtBDamULFWwMbVcklWI9t9T9Aq8STMkAR6g/Wgm1ePWBAD/lYPAjbYZ0QP1iH7OZ9lNOkJSUJXURQswos8ZhqwxaTlargUmkb6VUACipkMxJpJjB5yLIJRTgoQOXUsqlB9JLKKG+FMyVIoqMyPr1v4eMR7ODG1h5g0JP4Zu+v7KJGj3pjIlyIn0PkrE+fCyDIjbqwgD46ljzQNqlQ/QgBRIAE6EgwoL5EDc70wUD8+9H++3bMLqLYio2jOzHVJ0xn5Osfe1ByC5Ks0D8gOjzNEw8qxp836FP3mmBKtMBL5VWOF/CNoAiIV9W0yFpXQGFcpE3liDkLNEyV/zjw8kpjVyEKs9RAb0CbKzNbwTCJNUGZyNS1i+Qk+V8KRp6AiabX/wRYi2Ud68tcU+w+er0s8WKUdT7yeH6UEwS44Ac0yO4uaMuxB38O0sNgCQUvVBvlgTRvgq6OoAvDI+cUyFh5G44nsHOBswY7Fwbli7+Kua1cNYUF3kmK4xeS9TCvzWzvkiIpo8yfslqRljCVnB5jaKlNgAXEESGSF+BRWUmbpmoK0kimR40SC0kgVjQQM1uI/eEzjYCleZ/464S1zz7KUA2MtGIMHZVDPneTvAwsX+IZvUqizhbKwABv9q4lta80LVh5gGFjVasc5dqI+NG4lRPxQxN3q+PWB/7czni+hKWkOn5a6sTKNWHbmr7dQ0flnWdMlQYSitqrWdltzBE3dVJAUciwvZddVHjYeEv61M4CQxQ+OUoE7BqeyupRDpHQwPMZ05atVxzg2qY5MGSjweNuOPLSUkNLSVcawgwijY0wyKhJC2nFSCj0T+UeMvyaqngGCsmVUoQKtbzhZ8BEqtY4GlyN6Lm7joqQM8DEDfNEekO4skUNWFXylgTphjRE9+mOdSMp3IcR+mzmzKEykkcE+lilwVH00MSa0+HhMjwTN/z+TURznpePRAmm3iJZaIEFxBCPsUtEx9JJIHvApexVRonoNqUJKT4pW3s3/2o5nOSkEWESFI2FVCbnhG00qJb8DwRTUJcPa3TuWxb5szVCVclZH4CMxGGsrKnJkNeis+MfQtza2qzDEujWPbcnSkJQonNFw0aaZamkhbqMBGNjkKqQ8BouTctbbfuPahcOWzwyAgiyRg/zpvJY2rCY519gdPJj0tRt2Gz5shSwScrJPQF1XekRpr2imMHmoyKZEHtE0ou0//fP1Qc4K9UURlUSoWk/Q1HB80VVHunwslFFZ2Mfnw+JBwATXsYi67v2UPD5TV6XlaOUjfnAu7E/adNbaZKA4y5Aw53vlvFSS/1nHQccImCrEGruRzfkCZikOy7h0oYhKlTFLRApCUmbt1VhyLVHltisILNgpSabgUqCsn+W60DU6bQlP2h4R25W344kX6aNx3HxnPIEpeWnhKxh0Zqm5mI45WiOjg8AgG6UTpgqL8nL5kSnlf3SrOsenLa0KQzemCwHIWMwGr8E3APBENd7YQ06rxRo5guMWNB+RkxInTIXzxVNVJCoswD4DVwwHn9Ryxo3JxmehRh5mvpUTX1wNplbVThi9kBajRJBGBBj1pqslrZ65tFkYynsYTQgWtCSvgHgCPgBf8KIZhP6NhAWVmbBhqQLjtQJQjJPiC2xwRq2thrdK7I2JnsxUnOBIcybifX05EsA8BZKk4XkkO2tR200wKYWgChWjKaKReBmMib04RC4h9z+4/bJa3x9hr8IsUS1jcFyrzKNcPjJMNGi8ZCFI9Xkh8BShE0KSlt7hpCrIiSQcn5Nfiq1RQdgRfOuDZL5HnEWsVhiJ6dMk6rGc28XAyqguj66PMmK/EGDtQX0Ew+IhJFTEZCV/s0xfKpGQm0yaiQanv2SVUDKYq6FhCMopKkZIsmGwsNwkZAb1hkEyEwUSoCGYmlN8G64FplE98ZYv858bLhPVv+JTAAs0hRMdmcqJ56viDT+KoxFyAQgiRdX/OCHrnQD7bCtsU5KwyZ9iJwMdUJS0UmkZEkjCsoOq0aqIo5kALHbZ7NryQYrkYgsD+NfLFsRLKihedqG4PV6/n2SLRLKSgR/BYNyfzCBnyDKVgvlZDrzY3nBxzkacewZfZNaR4sWnPJg4Sz6/C7Qi7hASlAHRTiqS/79fcTl1C3nWYQgijwUCORhnFU9M5aok4IdxA0AOueT9aiMnYU6p6GWmQ7Hegha0RaMlxJwf9YxRXRLpDQsRkhT7HxOS65b+DEDBdyvo6jxoSTNSY/CELKJ/AAXmpaNmJHHLbEho6zJCfg+FPjmUFo4yWsJWEyFDrpSWgr0zsXphxLq8Bw1Ij3ZyL+sJERZnGcqsuYCnRRUs5pGF7lxcRT4euSI+h0xHAVVtwQ5EQm63y/IbjkVkIgHpSMyCS0o4iyTwkTuoxHT+Il/xLt5GRqejbCrWmuJrJ5Rj0v2MWfoUnhpjYtqqIkPOg+s020ZLHOqngZT5/1R3NspV3EgUjm1iIJCq7L7/Q+5WJbAmBvJ957Q042tj2JDdqgzD9b0z+uk/tVotqeWuB5alOy1LRsWIkjFxE5DBSlZpX1StqajVpbInr50oAJiaBigjiXJ76+aKT4RMIYAx5jirma1eJRNAw8h8Bv6gpzhuNPN0kEvxQ4GNLHpVKnuSVEbfxB/A6vkpK3bYK/kG+8KpoHHHx5yMRkjHXYrZ9q1FMvOX3ciOHZfzACjxHhEflIZ+BRacW/b5+ic2LqW7MAuGqzaUXtGemmYsCBd961llDEqg73+8vCbGAtslg+ggCQdsTPPbPOWIoIlzWM7Izcnd61+9SezyNTQFVCUmDJso2ZAHGrvcZ1Rr2ZTa5tq5jkfDwhIm1qABtmyRQgQn7wwvBxyZbM+n5kF5udi5ij84mSegV+21Wo8PQ8Z84vpyYSNBt3CJeRK3LdJ+hRhwV+6ZjbVFESJi0To+66SNsoszmTtOYqfFGfHyRRcQ3aULJZykpwrEkZCU+NvYH1GdmVxmdvm87m3es273ytmx7C2h0WBwMqCkNOLDBJ3TpwQAghIvL3ulgaVtIo3MyiCjjIuIIsfGGY4bYXH47x4QZt95TUfMcEDccjvdeyrvXHQrLhVOle1K15fNXopCI7GniSBzP7/K8fW94z3Rqd9RdKqUt/Xot84DTTGMqVNGTqPt+0hsltxAXkKDMGgjNkROLMGfAuZcqnfDkW+4YKMin+YuI9MarJXf5WWkC4OX/pDRXbYFst2e9bps+kw4NnZDuBOI3Zx3spDb0mF/VqLAfmN//cBMp7IDC5m5g+IMQwlTkw3b1NZMqbx154v0LUvLRX8H98gdNeJ3ZYBLl8HaYWLW4yNgL8ZL9lIFn978qUG3eHL5t7W0ust3l7+lVc7U0aViXCCaCDvH+kmjcScsLlJSlYzpLL01h0CVumhLJgCs0hdkBi+fhhp9JOGVx86u5JcUdFWVj9TeR4bTtwXzJsIJNatKTnfVuEHdG8+CGyaqSUrvKUNNH6jW1TqFxcqHxmBSLu5kg8TO2d/DywE1pfbFUb7fTtU9fPEFY+ci0TPZJ+VOodvilvApzkwk3ghHYukIZe0s8/Uk094oamVheCnqtAdp04YzzcefvgtS4W2wkW3wLWpXDpIClY1A0I2Eo+GiGS6IeMIrWjxqetEwRVsYJbln0fBOtAm5CDutZuhIhgrCFBeo8rYehUVuEz1FulOFRagPznAcLKusNN0J/Mdfn+kjm3jI+DjnxRNBxt6zRTKsvmEvP7Fb3+PwzdxsxrLaYfF8jZhKna51CCnSHEOj3klmLj59EUaHj6GZ3aHNz4a5XDaWlvc27HDxES9TRopriRGU0DuVycejRSIr3pWPzZQWEcEqSOZuAbUBip/JIicHO5NzXf2xP4tryzEX1/pcEJ4yP/r6VUZS2sbgEJTTo9A65fJFYyedWiNVUDqmIy4JYhm4YZgjxGJVpzW0LaYNBeiF+Ix5I9B5ZgVlclIGLQiOaUNsVXwCdCQc6YutoYww0sIIIiqZNgxlmzsvzISVIL0yZOCBPKQaez0riuMJUXNzK35RekCaowOYTDJ7iHYOv8Tw1QKWkS4uyQ5fpwc+MFwRMId0OYqJ3dfG7HLmzGsTaf1Yo6Ii3gRqiZCHn8AK6YjJ5wYVI80QtO0FQzu27KP2I89z8+crjGzlgeO5S/rm4kvnUzRkEoKCqXZIsA2fcjH0a2eW1tOs8hLkRCIjvjJXHtrAamX6VxbwX7cOoU7uWYzj2TEekmX0p7FKmL5w+FFnYapQcvwrc/keXsrVJUJkvUb937MB0Kg3GlDIJKFWwQW3OyFC8dniryF9Jis1qQ3HFY6SkQE8E3YUCAM0Oh1+EFHCYywDdfV8BEkcrLeYT1MJHBXdDEo5B8bd/GRmqBGhlHsdfjCOtDdZjJTslvlfXpttj/M5UAjBEFhWSGTNlZ4q3NM0FDeDC+3mlEiN8ltNLhprEm2nHcV6QzirHPhnL+YHAh0wcrhhnQcBY6neyZBP7O5gIldL1KNmBCpV7SYKF6WiNATY2JWeo23456zVYIkUS+voFGqCEvOX0wz/+eYTGzojZKkpM+c5Sz4LajM3kJpUBuCFs+0VwQpkJFzaCsJ6i+Mih4WJGUQQoux4+oEwokxS4ky4YaoyNeqA1wcZh0Atgc2Lh4wUt3U9ya5zggrWgHDk0h/GBYoAkqvejJ01JISQcjUs65/AajvdXORLxRZXX2Q8BDJLMrGkKrqOt+zou+IQIJQPr1C5+F0ZRDO8pzBEOF4bDWRLD0dJJnBZ+5Ne2wEmljbnO5EdxwKebsY3YECLfHtjyFaDqr810kT6TXLVL1DLOVQQg0FJDIuYfz8iwfJXxSv8eTs+niQDHq7BPFjjjDNEI952Zj/YBmw0gzh9SaVM5zOYtM4/1SIHwi/+OcQtoAW5uUq19EQbUxNE4Qeq6tEiFXGwtLbBlEEyucUNggS8oPdlzP76ztMsPGLinjCfn1kqgG+FLor9m9mk76zGuZzQUwbSY0NkSmDqCvbTjtl6xzyiXMzxKwSd1vlunFEjXiWfGMnLMufAzqdMWbA8wGgiWTtoJA9W6TGuzXEJdJkWQc6K8YMSQoOE/SA8/39+d6RomK7cxjKI57pm4yilQFG5/opqDdyX1wVzTq9NG15J/eYV7FwydVgMEr1H5/k6/dbi+gwLkk05l8Pr3XxVy+BF4oA0fS64NBFeNsYb0J0jbJncpi7WWum/Np4IhVRVUI7GSeDDnNHZkyU2ifHpqQocjpDocQYFe0ko08xr8olPpxZGc5d8SlR0qRgoiK4uYHLUE1fxNCVyJ30typBYk8RAYkepbSr4HjnFMkVENJhS/df763+/u0Em8Mbdes6eZ8s2IPK0RaXIyktS/nyFkS3+2z6Hiy1bbbUgLeAHF7Vbc/tiqbtwKtpv0UW8Aq1taR4KSVur/aW9BQJA66YrYrMQ52+gxe6MxMURirglX7y6vXlL6IKVmzoQlimuvlfXX+nhI+Yoi4ZZ8kNksTvOfPvIObFsJcNpLCMJv8tU1+orhn6FRZCQtrQwhAezzllMiiLYJe7JO5qX5fAWUfglAiQEjJrKi2HhSCtvGHDDSM5pYx7tzasc30SwDCCnwwaGIUXEgfriTOfzGUZuIRFuwTxdhefiYX7yxjv9RUuQGfPNYtqTzKc5itgqa+GVLFaTypfEVj5aEc9wMGL80yhRgBiW715/fpGlHjQywuYRGAhBZvWUmzU1p8W2XQsqm2IhOlKPaUNbhO54wlyEiFwgGcZ/crbZO+dwjsc/pNhA8msQNpOv/LNWaVM+rmBaGDkQl3oQ+Wwog/grpyyUf5cBULSuR8JLMyv3EX8rYWGviLvkiueQEfglb6pJ/qn/GUaa6tlr4D6naXvPYJ2aaS+0sOqexYpC4i9HYvwLYRY1MowSb58WzoCvQpL3PMpwBQMTC5G0xvOl6RCU4J5gSxxSCf/uPReVoNa/feBoJ+zPhGjP/hMXTDhlkaGj7l95zM0UB+5p1l+xgBF3ORt6cF1yEAVrtyiZ7s0AkfE+CGzEyqUEAiQ0wSR4gDDzP0xdETKDpbR1L+Ae8WQgl96QwjkNzkVjeVUkpvgYETJBIWEn2TBVOaMW6eN4JfeYZnMPuWOphizh32oiPv0eRqbAKXR/p8xqTv2qqS6jN0XI/6NB9MmoE6KHhSzQSRiHZavdNL+ih2fVhYwmy6xf51khmnkYfTOTDJL2Iu+vOOvswzvONmX1DcfBXHmQSgJMwRwjzGD5ORJyV6QdZDYToXsZy9uUGTLKBqM4E5wdc0lGMiDuUsqglIGlUlWIQVcfk5LmMIOK7Lk5BZRfcDKxbsnuYVhRzRxQCCMJ6cfwyUIi4bAQdwR56dRxELIKklOjWU3tCo9sFtYCWGa3NAtlh2yWoMfgO6+w4LiKaqeyIbwtcnq1zcusuQkU2nQhKlfLETVNVRAU3CiUKBGesGSCH07oa/Qy6auEE7yNhogCxN7BWY/gs0KVA4Q+vSOAmqdX0wLITQAS/CKcOGSsHm5Giyw3TXgyXUDwKScqc5AtQW8JQvsLawyIwBuO0iJVA4pYW2Sgi3oQsJh2jhJByxFtWqThMbICCO3PZBajCBkp8119GUYSxCblysufCTvsUhLLREwINAIiQNbQnu76lpHxIR0sDMVGEr6NkWQvmcsvSzuuvpxnNnKVZ7vkTAj6JI9Ta8vxV9ppRLuNMMmyXlnt6ksSpcmpbzXWksKy0KgpySF2+O6EOjlJzciS+MccYsX0It6ZOmhoc65m61ZUPkN9CjLamuP5HDxGhGO0H6cKvpSFBOHFN4ZxQdcYiS/CC422I6UqnnogCNz+zcQy+zRkLkNb1uAgKcwleNp1VhH4xrlP5rFDDttydvgk9j6HJxD3lOlHzuX75JGy3i66iFaQkCHmQceQ9dtV6yBSdOazz4bkecaTdMZeUnl+7sz5Al1WHr6Wiz5OriFa9A3gBuSIqZxKh7Q4yqtWZ1IFJy9Y5uvwkXhAbPPzOAo/MTpowhnyay1mPZStnSCShr2/IcQ5S7YIkX1ze3tNyFmDrOV8JDqnrPkQMG+bYgDzSlviZZSOwifQjjRRjwDktCiTiAnXRTrjQoWRVS7MYv5IgMziaax7Y0+TnQ8YSe1IA8V6+hjb7VxAo3woy14FIz8WPN+vWg/Mpg7x7sPUB6xnXq9EBSdvdgkbzCTyzeT0hXg2qUy1vwj1+CRRKYx+QwvRIrFU2XGYqVDjvmNWZOuyh8HCS3pEDcnPLs16/eM969UYqN3eao+w9pBuyZtY7T3b0hoCjgBUpQzIGyDZUZaEm5nt+UxbRKJiL5heiLOpW0Z6jjknZGYbWApm8B+M6GhiHrsaPcoqqxLhqZpHISkomziLJPpaN6CBdl87R56sXw+fPsjwpayn3I+/niB7UM8qbOqzuyxbA0wpuPQ0T6RxGO1gA5xhJ4MHudgozvnCbWB4IsQbyEy00WCsjeNQbw+3h5GEbGV+gQ4prccx6oF5ITrjT3MKIAsOWyi/YJKdvPpICTOFzKsFqEbvOoqswNlXbZmUp3WtFkiHajkbhlaeRLnOwPw1Vusq+X/5F6gjvkv0L+saXranlAghAD81BenqaB8fr1670S7n5qpbr195yDONzzDBnDSVcJb64dIVPbxkTSEY/l3Wn9oKoUDO67a4slMOcONve4lCJzgwHFvXLUeSodv1hE/e+F5b5S71cZ3Hk+9Xrc+V/he/u6Ruiw+evhJzaaMBqR6jw5GL9DRwMSYyndLZUOYkYs/cddimV1OPpgsRZz3ABj4jbziZz/x/CMgFWKMwkp7U/ZPC0oThlkejEZAei2hddKucsZUjp3Jpj1UNpUlyPY37yv/nprGO3P/fb8/iMlSWhZmsggAeYJkRgx76eCh6I+s2yBhjGWHSCUlk+6FpydKt1U3LuGgVFv8EOE88op6wcl65eoIB/gu8iScOR/ICgPVqvFZuvs6/zYG/SYsMGTYxh8RfEKNlkEjrGJo20fI5tsbc/JFqMYb59L/sHBZaxQMGpLLdFx9cLGSFqBAulUidC+Jq3VSXGgXr0MPFoybi7vhb7qAYqJ7n6t+EkScuSs/Bb6PXByBbNm30fQ6B9tN+P5WgJoaH5cMi9PByl2IaS1rseKotLoj6dwNYCAEA7g6zL6FcOVv7qZzHphbFTiEPq/PXHwnl3IS/99pYAAAAAElFTkSuQmCC;" vertex="1" parent="JNj1z8LvOt_FmI-8M0Pt-37">
          <mxGeometry x="130" y="260.53000000000003" width="40" height="39.47" as="geometry" />
        </mxCell>
        <mxCell id="JNj1z8LvOt_FmI-8M0Pt-4" value="" style="shape=image;verticalLabelPosition=bottom;labelBackgroundColor=default;verticalAlign=top;aspect=fixed;imageAspect=0;image=data:image/png,iVBORw0KGgoAAAANSUhEUgAAAJgAAACWCAIAAACtqtYGAAAAA3NCSVQICAjb4U/gAAAgAElEQVR4XrS9h5blSJKmB+CKiBsqdVZVV/eo3SEPyfd/lOHh2R3OTMsSqULHlQC/7zfgZlTPzOHysBaJROBCuJubcjNzc0f7T//0T2/fvm1+rW1IQf/++Fflt89+Pz8/vlsnlJPdQ5tS26Ft+7br66Rp+tzmzrwZZk0z86GeK/3Q99uuY990XdMNy6ZfNoeT5tD2XeM+G4bukNND11L2bOCUY0DnQmpsho4f7pZpyS1Hb7a5XEehappDduABtrTOY0BqrMsrKdstD1jr8crx5NkDTUtpe4ptPVLO3KI8Gbd6yeMwzKHi+/fvj/f+f54MAW2E7yuU1bKp7PFXbkseT6Yn8nd8MaSrPUUGi81ERc5H7OZ1SDjLkef6pu95Y9u1m1ZaQhJIWISUPv1MAjYdGOq79ishB8gbMkhIWWawytDS2rhUwHqh/klsQR6CdODpC+gicbDP62AfJpnaUqXWW7bWO1SWB/JelekDlFn8sbdpxRMWOG4+XqVCyOPVX+ukMC7ircX/v9ieXSis/JKQNIh/v3yzZFFagi9wa3k8BHa8EsFpmy6vtSDfuzSWZ3OVh/JAtTqwgPSuSlMYfctSoQGMD+4okGvSb5BrYM48ZJk+mdqt2HLzPyD5FiDxp6TPawrixAfixeIHALL2ku7AU8AOnbADRd6Y6FVnkGkqynL/g+1XJmSghatpG6dTnf9J3fVwcFdbCDghUhzVD/+ULESR+pSlh6pe5z8E6UB13vfA/7xP6xHSPDBBM77qE3kKzWv5gRr2h5aFMl5CkqQbgjsCxon8YLVhGCs57rwoQ3m5uCdnvHp8QqH1JajYzw7FCtND4UB1fi5QCj9tKaKcI+UUerxeLx1b6c9fmZAT2GAlDU39I1K/1u5ZKBMy5MnAJufX0zmBUuM7KWvEx3Q1DbecoDSvjo/nDz+4AanFbslM2D3lV6Wcukcc2QEZ3Qgta+NRfiK8UtjH8u5XvRgaT/vIHd4P0Nbi/WnjR1HxoP7l0FM40j5t9Nwzuv5D13E77xejFIRcSBvzdBowYmaqgmu/MiELN8WVBWQY0rb91VZQFSIKvOn5eppG+mr9q/dHTEovL9CKCV9oJTk6xISwEoYH0GHIFM+Ju6HdDyBvlnOw6dvLGfuwnNFRImiUGztCHRr1l/058AWzjwSgCSrVjzwzNbWu83DRbqQg1Ns3h32za5pd2+7ajn7vWMi86RZDtxyaRYENKJhokW+AqAJ9OviYfo+XRcKvTsgJMjqHsdWjDDwHZoSonh3JcWwSUI0AqsACo39G1EmoIzpLsHwqIiUX++6RlyOOaXvfHvpme+i2h2bXN7scuXF50pwvmyVGj+/wftkmyHCEeaSiVRcgQaT4FWgbNoGK4IaK4T63er40Ncfd0OypFypuh3XfrId23XS7vF0NW7btqm1P2+a0axZts5gNiyFGKhRqBWtCZ0qvn2lniS4F/coSmaIFsLBdkpHWBVO/3OqZv7pYJRSoImw0NsqW0Tbx1lhS0CVhQWBhJTSdMCwpsiN/h3273rUPHPfN5tBs6Qqh89AvkNIFVEi1YqxIWMdcfLYVwIW/upzKhIj/WLXPVRGXipDbptkOVDpY9bZ53DcPh/ahb9eYO7ye91ez9nzWXnCcNyfdcDpPu71jmRKSx44sLB95r7ai5a9PyKn0anU1k/NjzXXdpyYy5zTbM/D49fzJ8SYiV5J3lDtLiWorinuiCGoU6o64gy+7u23fPO2bp12zAaF7EXgxb/ZLKGCpkAFbVnPWiidAeFPTl1InLEYQCzapPbWCyyghq7a86IqheTo0j/3wBAmpdD1sNhybRy+yt5s+bbHAZts1+xn7sJ0PJ31z2g8nh+Z0oYCusOJmQptni18LW4XVEc+/OiGr3OdHaZAGHilV5wXNXxFvvFgPC77224iu8rRL7YV84y3oiOY89B7RYPtDuzu0exAxb1YLudsHmoGuEY1KT3lQ08rpepv2YC26dStm1YHFTkozWq4b5t2Aogv1rDGgjHuAHNsSWssFh2HY9/bHQHKzGW42/e1meNgM+92w2za7HVW026bdNS28JJdQWttseJ8H2uERvboeFstmsWjOls3VSXd1ohc8b90haHqB4+Z5fv9P8COnSij/SL/x2gjC1z+x5XMT7Pz1lku2NSgsF85Cw5nBrD/szOiB6If6AeIhbajQTcTu6lQCLOYiuJeWIDFY7jusRsmLLCrI7eHQbg7tY/Yybyh3wdl8mM2xpJCdCs6MwBZBR/kQvigIPcPiEqV/3bc3T8OH++HTw+F+jW4f+tg7PQGKWacRMUtdcXYBBCZbUwmOybyZzZpu3lyctrtzG7+ct0sejfkzouoX5LRr/tUlkppokw2OFCo1aX1R6rlNXkgJOfLCf0RLKSYpY4raE6blmqa2JFTU0FD+6IewZR53zeO2edg0jxvu91DxXPNEeoHDIqSyS3SOd0ezsj00Lcr2ftfe70dDkdunMyN2y7aflca1HaV0g9S/2gQxWvXQoRhgi4dDcw0h7/ofrvtblGnUrup70cwW7XwhqbRLiy9xR3Z9v4cZecLiIfLlSlZZQtGVyKGbAF6Oz7YRh6D11yZkqUFh0WdLPcpP6XYaMoExEa4gCWjPTo+gTnIXolEoyEhzFCjFOcY54oVKhIp0gY/74R5Cug9nu+YCHTtgl3ZQ9HTZXiKR87bft4d9N2vay9WwXKKwFFNQz+v3G2up2OgwH5ADlLCRBpsi22ggRQdAF9sWRuNmFL0bPd/dpr3eNOw3j+mMu+5kiUgNiDgFzhctanOx6GczZH2SSHhrr0UGh2lXR8lTLVDdPNnNX560l3TnJ5K/dNJzgnLl1yZktc5GyvLHyoqTNTtGeoW448OjHfGLe4WVSYHyS5JGo4UpeJUuTyqCQwgLH2OLalwgkbvmfgs5h8s9Kq7lOQCZz4eVXID9ajCOXhH4zpbtycJI+S6mxyMSuTESBCE5YiCt5oRoy8dMVZJPu8kuWailMLd1SKotElJu+PLQ/PwwPO1afJ6ua1enA37O+cJ9uRiWHOeHBSQJjoAEdkGppHfvgP8hrWCjs797auhf92dNe6aCZXcUQP4pHBUH/eoSWXgW7WmamxUeKfqL0yjfElb/Tk+LoeNvfoA8W1zHEaERSguGnBIyRin2/ZGK95sBwkDdPd2Rnpnm3wyvG2u2r0EERGVAMNFue+zYPhK5pVssQvawyXYJH6TikkhrrPCCQgMAhgZj8Y7wYrYcJOTn++GnG0OtCF1H2GHRvFg1L7OvFv3J/HAy7wlE2KwQkm57189gu+1hdv3UzNdN89RsdoOe0q65hXd6SXi+bFdoZqrT132O1V9bIo8EO5IxBHpGx1DLC/VE6HR8uC5/fTp3q4DpolqsdFteU4enuPF+BGTavex1/s+lZjufaRRg/cTX1vwBlwblUgCHUiN2TdGVI9tHsaYGlWr2hCGmi1RYZjNmMJx0h7G6bq4fmpPTZnnSolcvTpsX583rs+bNWbPCwZi3J0SUJmJQ8J6xGtWpuhRvFg4AKsrfbAYNtzVvNRcnw4utvIUSCbTlto6d2f8E1Wp4snSeJJtQHFwUtoKSOnCcRPdIzXorR6k4PZy/42u5Lt4pVRsIw6Qdwqqw7el8uDhpns6at+d0LUTgFMkSq9gQDkmoC9PJ6jZi3nctVj4XTmagMZzQdODuctWdLL4qsYKASomfFSwhtmDuDv1616+3PfJ0v+3WexyMDh2AC3F5NiiOp83loj2bNSdti16Y97CWkFuCDGSILkq8OZ81u6WcQiW3UHeHHdeuD1jjWHB4U8PJkr7SUYIRnelrfnVCimORq01gYycrIMis1vtA0bWY+iiS/46W9UZw/XWLeeibdrkMLVoYhJxhUMxavMbzk4Zm636cDJfLHl+QZ7AFoVr6F99SshQ7S4aWEnLZLbrukliZ7O5j2CanCzrRUYWF4XwrPkCDTh7BRaYN+w2Pm8Pd0+Hm0Y52vZ9hrfDMajmgTl+dNVeL9nIxnHdtQm4JkUuptMwg78RqbXPGoOjS8C81brftfYcph8olqjA8bu22VRR0E3NNsFDT7VcnJGXCaNjz6IagS/qBHM6oVAU3VV3CFmw8I2ugCply4+tpoa2OGq1peoxWyp3NWogB0fT6B41YjdW2P2n7ZecDozmSsmP3UlC6KGsaTjBrMUawayy/OE7hkPiBp7aqnLfwzatES0lBSOTD5nD9uLsOIZ8wPhHr2bA6aV6eDW/OIWEHFZE2R2OiTiKQUztTF64FBWIt03kv5j094/0TfWwbicR0glf6lRqjm+FZynDHAn5tiSwaMkJDJMWhmhqrd8wmXuDYs4TpRyKVZg3+vrK4vwIlDCAt6/ngEeePB+NO8yPWW7wx/3iUui0+BdJpxBneETfRWdXuaruleqcoqYsQE5QrFSHCKEXOBDsjJ+kUx75RmU5h6Yq1meGbz0/t53X3ZTO73bdPfUdkx8DQzOjSGYJIsA2DK9SyYSnsGTyeW6ZQCvNSE8x+ESfS3p0qyzLfG+1bLA3jISg8FZx4+JUlMq2CGbX7taf37gdOqNjjSMnQpkCY/k4ABdu0Jw2tm+HdyFEp1RpJj4Cn6ZB02bVgzeOcUA67vloUqaWlmCDf0ouNjo5fVSxXcIkniW5v9tkZJDkYusNATQwo42HyESWrYBUtoz4DZLt+am/Wsxu6MeLyDJbp8EiPkxmqskWMoGLFvlVOIxqm5gW8Yl3+UPKCH3bY1a6WQA/34TBi/ShYwrBgUlieIenXJmTU2lM/I7RPrVusLKKL7Pt+tx/YJ7kc9Uq4aSRqcdbI60cqKgd4ffH9NA/Sh4k/iRTGlRnP5vB+e7bAuG/OTsTaXCNd8oAkiygVGTZJ2RHHkaPDMFJR1QrYD9uenWGKpz1mS/d0GGO1hmu1QUaFwB/jbcS7m+Zu2xEHwMwhLiFDQEiIF0KeZi9QU6dVVWy/fnIMkymunKe/xAVqiZjDCpQDIWEaXawwGf0xgqFKn+Dn769NSAL5OGT4UkQvt1jP2bcQtd3uBvZKcJCb0qLgdGLMr/pGDRP822gQQ36UyDSBDmRHCYUU5pRlMPZi2Vwsmh2GOVQE02ikqeiUQVHKs4pwfLXkcqx7JGqwS8z2aT/cbfs7wkOMfO2GeyJ7qtryVyRJqOJop8l3M2MMDJDhtkJ7ehPcG5REhhWlBFQ8edbTRpBqhxDHjSeENJrD8umGscAXGEchJBfVdo6qegxHjS9UEb8yIQ0zJkJ2jQOEOG497ojrh48YWZXrpVId/RuKuU1qt6iYh7zqgXAzz9jVho7V4ZULCHMTAzEooHXVoNBOK5qTV2MVpQalmicgCH0OrY62sn7xEb7JISc8A6YcCtZPdyzFbLvwv8wgQdUiJFAeGlIOojAw78g/yFC25kjoERm3YWOxU/ncSXeZrW5ae1i0Hh2f9LZc6wtsMRW171J8ye/05K9NSOz+LbbWcP2IUu0hJFK436sK0kcGqmpFwSyMNqa6/7TqeWPSMi+K7kis3K4fV4OEI2rVZXLsvlkcmgsZ1lb6dC6DIrQgwtZCdKhIUaVq0yuWqSpC7JjED9Ke1BABrt1gd/l5iexQtkoFbQ8LhZCqGgYuAiJP2n+HAJPgRARHOkmNVFottWlFxTRvvFqI+Xr0bKJlqBryTsj61Uc/UCwElu6fmus71Omw29k17g+xYFVciWhpaGtiBne2Lq0cdy/mRrV6bEmfkSeKsKUgyvYqYjUMxUVvef9k77AiNEgZo1DmLXQzfdlGdpCKPMtgklQ06M6j0X4RztjYhNdDSPNCIJeBvVY6BYQCRJXAkxxhFwkLXNhF2pjh1khkSrV16US4wJUSqFxInePdVO3d8a20oJ7PCacyiCqpnvhKx4SrMihXd6x13J4/VBVOdwpJxW9eG397SmRS+j1tB8JUUE9LjxEWQ5qhYKiYPV07L4wwpanZj1tuj2AluZweEmykWwfqhUAneO1bDL5i33ukj8QPIwO59GoQKYaEF9QddZ5gs9ctH0rVPETnhIWyWiiR4A3rn66O2tMf43AE93kYosEd0fD2HVjpkDxOi7vlp/ZU4gv5ddQVdbtA+PpQPUP5FpI+Qn7iXI4Xk5o/SEGaUyBH2/ZgxRqzp1HPtzw4biOOo/V96vm9ektwM0A6rA/9447IiMERbWgCLgtiLhwdCqitUGvh9bblPafjseJqGrwa+eLx6oKSYWxrw++ESzKGruF6fspQkQKYsitzCV2HRmYcCAmEInM1ZWhrY8rOSPORCEyMy6V6AjduY5CIoUolRYWbY3EEaJWTxpHOZr01hLbeGZzzFboYyFtuihXxUqEsFqv49q9XC8r8DSA2B8XGA2XaZIy6OUHcO0LtB0K1S+MBsKomkORNWARC8hIIsU3PykzBtRXJrJ2zsh5CTrcCpE5ERAjZbyDkvscLJnQJCS+W7dVpe3naXZ1Cx1Aw74Usx1Js3NfyUrp4T/t1+qzelqpd9D9GgOoBkZsNAdKJnmtJUjZNlHmlC4YkhWjbx+BVieUlCpjQmbKMZTPSxNiWFqxyyREk+UKRM6izl4tXggTy5MOagE73sO7utwxzM/AU26gcCptb6AonppbqYwOceAsodW/UTNBSEc/wHIS80Nzan8z2qxmxKnSE9peICNaAREKGQkfERfbF3XQtP6L7hC0Jvzbo633Bcw92IORhvZeQxPi7Wcdw7tWqfXvRvj5v356bEDVW/rVS2+D7I9WO9U5UHHFordxzsFAtV/V7hTe5Feck6AvsOAJEy+1vRp+xvIagKRaQKPDtGDghkq9FIqHiORIfeR2fTP8D3SwNf4D4rRBoTYeQw83jjGHkW5QeodFt8xRsKZFHoVM7isqgs6oXAmsv/BUSS82YghRng4EtaGkcB5f1cDLbrRj/6pBHFAyPavwGTgiZqoKVNMuTbNNVTpUUn4Z/JH962wmoPBvrQKNBG9XGgdFkurAr/NaWIQVlaiyP1nytTPROjRsrC5bZxmbax8tQ9lLe4fF6IFRkNLEaTMgjMbaeHd14NncQIwMY1V5L4V+1pAqgJD0NfKQY2KNhk6FKqDUjsGkSW71npYqZQLFxCi5tFw4f/uJhQbB+wPtaABOu14ZwT/vToxEDwvrkjtDR+GYKk3NVIinJ9itRMEyNKuPCfnpkRMxwyvzQLJvupJudLhenjOcs54s5MmLgqkqiACQyRQZ7v9iCqeL7EacRmRGCIv2I+xqNI02BsAhZFG2vdMhstcc4FGDZIH/SP1TZKTBUjM1VW/GJ4lSqjxIktbRQtQZS4ROe9F9m6+xx3h30SBSp3x/6F6fNsELZmiBT4qaBqcxYBpVRDiVwQr9Op/701K/hCEwacs9n/cKhDxJEhjk400ILOL41It+6g7oQ0j4VE4zhQ8OqBwKVzXbT3D4ZL4SQL06aFyRDq9oDPjygMKaM0DERQLJ2+oc9MVuSRdrPT83dut0TXD0M9NonMwjZQsjFfDaHkASTyxtNeSMhqzgvHLcjFXMlhLAlEZ1cmY6c2JEYWW0xWclXwFNWbhXHoDlcnu6KXZqFBJIthTwXR4oPrjzKCB7SXsmumvNuys3LobOE7E2PYDiXzKtEIfot4xGXGHjditE71Y8zITUwPQeNlnpsAkrskVDOur97ODBU2Gn39ub4oLJQyYZtqSoZFoGnIIwiDyGJwvAXCV4MayIS9FhYU4zvI5GLbj9rt+FMjL6rvJr/Ez/kllxsmB5CHmgIwfefnpovT93TBj1REgkh56cw1om+m1S0i6yCRCK2Xgodt2pa/RBPx6Z6aXoqF9VyeS5HYUmv4GzR/AzpLToA13mer630ap4b/z+79/WmL6bAUMy9mCA/LJ2jmEArjZ2KYWVtSEKD61PzPwzn+CBoYpYrLIfEQQEjO6MVT7C0shH3yKUxP3iOdBDunjrdpjiL2pSgka0CrBjIb8iMkSUhE/VlQPE8vSydNJx92MjYDsgwbmo3k6bYbLfCjPADH5NzDwO5d1/W7C0qmk6KtxgAYFD6XA1B1pZ8U3vxe9HPPlIEjUSq4lOL/0dS5U+dRweAN9UgjYjOoftPYfyKl5PYoHe0/Z1mGm0oBaIhpc1UcghSW8lfmsYDxQbClnrrIWsJIUc5DKf4vGNa9FL0QHsadOgSF0Wp6uzwhIFSWB21tTvgmSWuJh+AIPOgiNBaMqWpraJ68Vt9dST1CO8ESaErIB2bAhbmcAh9IUg/JaXDrLjtrEEWEamHpvlEz40RxLQPUQH6woPVAulKr67jTfDkZjfcwIjEoAbVtZb/6fDughwGB8VKndaLQi0Uvn9UrYXSYhTxHVpO/ZHPjxjVN6XOwTS/sunDYflR6X4SL7FMyUl/U4QE5FGawtm+Uqg40iiICZOPNwLnMz4rCKJXtVKjIH2HC2gbhxrojQzgdE5JJj0HQ0XtQxdOmKLfbg6bzd5gIV1RCInHSZkkBKdi6IeZS7MQGsVG/gtM9ecXx2dA1+1MixYJ9Knkl5j0RqY5VMk8BVyIftc8zYcbQhmJ3Gsjj0o6fKtiTQSF8Q0zlZsNMQ982UXzct68mrek/Fyd0sB4Uaky2JGE/via1ypi5RSveS+nbkVLcZjX9Z2gonDBvarpSHnYi4fM2yxrSoksKoqRwrhFp6JixEm4RkxNVVjNeImHy/wHtkJrNHcM1bphUWzw0IIkAbIXkUUyVw8zcrqFJOoGiDEmnxiZetpvSTlMJjAtowjSRE9OJomUigG7juGpsFWAfgbXhJxcE540EN4dhkgkCeMMwwzDekAEmUpH3vNTO1w7Gq7LgCOiRIq0+mesL3ojo9hR7iiz5VJF/WbVfEfKFuIYQsqZY7XTn9CS5L/jdc+Cpghk0d1nRjLkvdyP+pmucwX2UtzUuQlQISxM/iuvzmpr969ll8DJkSnx2TFl5uJXYB0uSvGTlg3WBC5PimWqIqaDViczgcIZwDIFa0YIQl3kCLv12vHh6vfNggRJkid42tBXsACbE7josSMgrb6g/QIdkojLICi1WUwBVmQNZqbNSwHFONFi0WFb8uslPiWvz/oVljyqVfwYrwFFRHH5aUtyQHkhFgyJm8OxmFECYQ0SiN6SfsfcvxOzYVE5FdQoKKy6xDFnqpWvDCdSgjeKL0AnjPnX7YjDzCepXynP+HWmIRobZIZKTIxgny2Y4N3IYF0eK8io0ljwEY6xroAQgOKRjkRDMrOnSP97h+7wJNdxGRmP3c3bHSyMvYp14IvAgJ7VTtAeHWbgkWYKoTAm65UkPMZyK49bUcYyxNDXe7GniQaQe4vDpUEhRIJxFv0QEcOkJKv9xBEaJljhkCxPBiQSvwgficRzspZBUHKRg820Yzbr7AtNHuvOTjoypzG2SS2/mrsj5Y5KTmZqVTxSUdy7O6aTbfwT1OQwkfAIcj2XunHKg2QftRQ2R3OKijUAFEImHpACRlqGkKLDt+JJhlDennSAT44g1E2FR/NtpGUVV89MxDXQiuggl9g7BxRsRrJoee3OvdKMEWEUBMPRw1NrgjlCYhga+UP69e9TPcfStKlDG3aCVIrZhACSbaI0xNZFmUt+IoVG9uf7YbXv8Sgco97i6YoLqIjR42BMBkp8yX5hOGdewAl9oRFNduLGTn3NXkoiiAy+jzVPhJsksuCJvDzbxhe/guxr8H31HDzoC1IRhkVuRiax1vg64rG6zNgcAiFaUokN8P385Hz8XZXL2eNZXgizi816lpKQ5NDCktiVNOONdn3+9smpuXkfSuF7zWdIixE+IwywWfpCkKnRixatFLep6kRY3ZWcQmAqDrQjRsf2UNVI78h+SY+B/J7x0VXfnO2G063ZmmRIwyvbXfvEg/GtKZojAwyruXYpKXcvVy0ZlEQziI9XCsQYjyz0pdEjjIWAILTmH4xIEx4fqcemBgVsEeafEERaBn/T7oCcXRR83dItX+2Gt7vmVWIZF4uBHhtmN4WwShrJQWGR1yo9FVtzeKMqzAXPJ0UqkaJX00V7p56s5+paXYl3NKJZYaIHHYzUISL0YeQv6fTSiWLfK82wwsg86JFx09BJIWXvCdqzezkFJdJarhB3IzAhqtjiTTo/FDrz+7gNrldxbTB/TGVimDOdMUeEDyq+Oh3enDobnjxmJxdZozqbXnWUgmcgWL8AjUBFIsVHqobfJqM4T0zAB94QMm+mabygxou9wEsGcxhcgZDLgf6ZuPmrpYS8JBvKBRcMNE/1Fn9LFasuElJiQBIJIy2BPvelVvWM3o8UjabHhNkIX6Q7ZfpD4RF+uzj7Tl6zp8GUIJcQE19XGBebwTVdx6q32MK3LaUKUdQDmnsB7mMFe6goDsCAiqpeE1XqYVuG6aSsYMU0dt7OBTOJon1cmEWdB9zpoekRX540EBIdi+wCcCz0YhQMI8CgLfZrYy1T46PMwL2/hSD/fVCCevH4YACXYJ6MrCGr6E5q49SzVqQhgYlx5aTO4UoqDuREKZEzaioKlXSNXB4qVWWFheMxhshIRbVfVUJ7eD+YrWsT6hxAo+/jsWJeIfWZ4FNCktOW4owmmuajz0ZeMowPCoKbYoMCwN+2VKXreM9Ixan9ATn0k4UKN3B1RcQDt6j0abnEwbXU4cACC3u0TN+8XZCv9QuJhJCvTxrM1FFMQ5dIi6PLaQvA6OIEuK/UKfzRI0cmqvK6xjOB2K1YPL+Or9ZJ8WkZct4UGZrIaImy4xmPPEuKIiwGf9FfWo/ktIl1LNqmJrevNZfO/QquxAv4quPjeb01MtgI4whmCY/tSKFClzbwvihJyxyLTpkpJ02thoeVg7Boh/HV8SSX6+Z0b9QqI8NR/ogiq7ZK/po3SdVOZDcxTnX/bFPnM81d1UXd8nr422fsfjQIVAxjwRNaUnCgISBQmiugxVlLw+vu+NeybB/wpYHHm54r+dML3HfqlyHmTMMYUzq5iAGZPA7XDIgAACAASURBVNSRitKiSEi5hbqx0EAQjFJ4ZI6/9a+acWzfETifzf9nuJlok5frJkeLHeMKXI9wu6ejVlpKJPkhDClxfDeVpphfgBu4CstIZyj+C763jWmzb8ptiedQW8IZ7mqLCK9otM5Yjb7H5XQ9gXfqrWMbHOkTkI7bsY+0UPa0oZ61HLevWAGcNHBqpX+/6mzvQUjsHZgOQUQKTRQ2CUOOCu3CXiE/x6pgqqbQGOkKnX1aQGovVIrJgBPE5jBuY/NGwat7ebpeqcrsHmQnYUZfojOFC2lJ3YXCUhlRGs8qeV7Vs1oDTEqgYTZkJCSXuGjZttSXq7lFJ+nirIroidDSCJ3AJSuPp8s+D/Q6KMFfNeY/A4TITjAbhhKg5zyVy1Y1kbbwkiYW+sFI/fIZAXC4TZfDMDZQHndJODHkNLr1HCFVnCxqZWFScJEe/siDQcizLTTPNrKauBvRz5/cTPMLv8Ui9URKrdNQ9ogBMFhFRLsVPbw0NbiqtCigCRNwi9YGC26FB8+t/yvirCQmI1OleVPCiCmP3OJP0KNkQl8bXq9zLz1SQKwaUs1Y/IQAfuNW+SulFVj1t6DgVglPUcTScK6Jw+lxq44CGgE5xnIP+/0hkczDfNvPOCYbCtUPXR3Vc5LpTGcO59dVK0yHKlMsOFNDh8RugiNnRkdwSWTbnpGWqXZ8zj/VgmeA/+Ju/VDfxOEdm1nvBzd1CGVSVf4e0WbhBVUd/Rk4Creccf14C8AUsyrDZtgfg+KCXPJgRjAX8915JjVEWYKKl0QATjo6yJCjYLTMI6GDEoH9z7ZRtY7vTn/ydJGQ4oK1NI4WOOyHG0SQyQBvrYvC+N9hvd2vt1viT5nFTyDK/hI/F+CIWCZa1jJU67IImXTI4BG6NxGZ4nxVQ4LHMWuDjAoMQWFwYxQ0tExbC3e2WdDq6NWxrYHVQo6bL0TQOZnsjHp4OloKd0ZeqfaGIlWWL6c0/nBJCco96Z/K2AtjHOtK8UXRxncjd1CrIXxDjJA1gDLYAgYYa3S5B4yJhCyjvtIAKw/mc/Z8q98FkjBhtY4v8PrI0+NdXivIykeOsjHa66AMo2VOQtCUz6z5p/7haXe/3tytu9t1e7vhuHBuLVFH5ggy9XDVnp+2Fzme4fMyAEtpGefKRFIVSyX61o/olvES1UPFaosIU7TUBdW+qZX8Lbvur0lYrQdyrYjIUg5H+Z2wI768OVXF3yg5jpJwOve2sLFPVVcJhaU8aTneDFuMbJdyfQuJZJwLRUXspjQTEulgKoPPMHXMlLx8ZCmBzdtV0fOjABeDIRLP6/76QnjCikVoDAFkEeLdPQ13j+w92ZvOpB0617FgvvWa9SdICXRxEo6sqpBZYaQb6VmeryGhR2bTs2qMR4L6cTFZfY1QNS3RC0bbshUyR8BUViVz/74d/+5KseUvLweXJUKKT5rl0aemgoMp/qtYczIizfLEz/NyR+i8+hy1vhQa1ttHkKVlARQTBs8SnCCHsHgRMh1NOkxDhNF/KaIAfF5FLk0cVGXmWauFkOmcjF9w5diwgF/rBzfzTd9t2Q9QaPhwc/hwvf/w5cCUs107YxWMbdM9bmeP20Vyn9rdfrE7zBiseSKfIjbtYjucsD81J/c9cWEpetJCSOI+L07aF0wQP7GHQOGQQFmIBBidj6DKyWvJMy7gcrTTPDZRnnMT5H8vaTa+3qBBnISW4xulw76aqLkcFrawSZh0DEbE1PvpsquIic4pN0rL63JewRTAqqiSbo8+FJ2TYccKxaVH8XXtIEr95espYizKk1/c9QXiLRIyXOPfQlFec/SW2UZwSLcZXNuLmWNf1v0fbw5/+rD744/bx/181y12LADfdusDEyLJsHZq0tR/JxM7ZjW1zlj1h9TCjBaxPoJLJJy0DJlmb9+eNf1Fh63L5N4CJkeQwRopcnHwEtSECHXyi8aUfrEBEb/8OzY+KEiAp4q1CJ8KYdWT3vd3HWUgyxF0w5AhlvWn2BwLhkKuz1aJI4HrAQt8Vm5K0YKTOcsqzQCpez2ZgkPiwGWh2Qr6r6f1xFT4WIXjLRmvtvTirpQaEGIOzxhsIfPg/tDc7poPTw2E/Oefd//9T5t7jNRZu5vNd2SmNIgm+0JSsbOaH0tTOF0ZAXUNtmosFbjQ39zFYohIfXPefHPRPJwbtUK1MseRrk94THezRRP3FkChw6gzJnulmsExIbqyy4LuoP5r40Os9DrhVkvKkTjKyAJVh++Nu38SRjZpnW2iolV/tcfyfooIW+TJAOrpRBJP5J38SVE+HYlUHAGiwEqbq36LTGH5E2AL4jqpa+MDeYrc+izr4nvhmJEpNKtYf4idlJOPT/3H9fDhqf/ptv/z3XC9n20Xy8VifnYyW7Dsy5LVRmqpiuRb2DUaXHUeU02vzQxbBuEo82uAshueeubdm5OPxDP0+nnd/HjHSibDi1OOPVZSXDQAMtwuXgW8iAGYgjs1r1otfkiPdvZFFvJMprb52mb+9y5vZYaHGtBestQf6CWDO4lbmhtOSjX3x5QnYopsVj/iEORaY6Evx5GMkAgDm1I5imIJ4p/MYscYdPWc2oGHcY/ayUpRfbFn2Mtx46SuCUDQqLU/7Wl4iZptj9AW3wQ3xhpdEJ1LdRXVWEzhKpVPW0wbcmSbH+6HPz8c/nR/+Om+v3lobg8zktdXi+7l2ezlWQvqGbpiUBuFOWbRxa8g6zc7LiZpu93GRRs1glhc7I6FhOESqEsV+5aksU9PzQ93zatV87uXw+9ekUzNeoAwLEh0lrkdZmk5I6VjsK+oKsaC3LShg3tuWaxozaR+l7jVF3KBOtjRha1YqQ4UQyBKxq7KsLsRToZBWJ7FEXn67FN2TMqWFUGKbxygi9hMm9QqUulF17RXua1kLJQOIcnKJNX2ZoMZX5Ofx7XJSL5lx9qvDZSbOTZRDs1Ev8MRYEAILia3wsnqqrwCE5Y+9mKBEkIa3QgX2V+MikFCbpq7x+bzXfPjTf/728O/3Ox/eiT/bHboWYJrdnLWvrpsfnPZfnc5vGYpmVXzemX6U7EERwcZBuZF9HAlazVS2uOmZYW2Hx+a4WHYPjFpq4OQzAfGAzm7VxuDSmzgxbJ/c9VfyNsZuAFHsjwKFz4TQcFU+PJrzy5y2SAkZvPP980Pt+0teGScYVv7kBMRktFaCek6YvGRQBb99JtV9/bMXGccO1iT4Us7PZkpA3bBUaFerEZYTSkg9UfoLJVnVBVRtRJy5yIRP9+3Hx9dZhCKQtcRHrCReepqb6YFzpw6774Uk6zL82rVETTgFrIBY6VTT4K1dYeKUq0Yyj4lyVfso2vkfE3ifQy74trfPrUf75qfrkFK8+PtgF79xII9Zq3Prk7m7y8gYf83V8NvLwewwP7uzIGOI7MyI9xlVF0no3kkB3zdQk6kltnhSkSLrA/3eKXM+GHpvNgijD9fnQ1vr5qbratXLVhlc2B172yFvGAo+lVMidjcwC9CU7EzX+Knu+bPN/TloWIIicTfbdu7HZogHGz9uAGuH5EMq4HHWIvoYc1CNllnQYQ0Lw8mdEXRqQ+oxbZVlZ5AseqVuQyhIbea1iAJGXsQaT98eGh/vGv/fNt+uG8LmJGxWOaM5I8QEqeOIw2XiqxTtmjuViiV9vbMxZ5toqPiLNnqkmcsAZxh3SM4BZRsxognLKd4yt8AcegZdEWhf3lsf7jv/njd/f5T+2mDycp8g+b1fHh7MWNSFbOr3q2Gd6uG49tThh4HRo9BTcRE1cWJwhmvRr4mPseIrlWoRphf9/5i+HQ/sPjepxmzXpiD2Dm5kDUymbzy1P54zySV4XI2XMwOlzBHgsYxMbTxJaOIrYtGg1ji9vpx+PII7lDRw4/3YDCBi+wkJ17MhrNueLs0tyhGnEXFcyXU4hqcTLT+uD/cP+5Zo+jz/eynm+71RcP+6rx5deFoFy2hIVnvClyVfMZI1Or0Jjof9iTPnTWTAo+KAa76+U4F68r0BjOTgBO7nVhKJFIJRo4YLoXDaSsd0JfH5p61BOW/4eMTzelfnw9vztrXqxkr0hnfVLcGhjAyaotZDqMt7AW6tKyhzlIWX8Dm3ez3N81//4Q5isuI/6Dz97ur9m9fdX/30kyOC1Z9c++dkwAh5RTlHa6AkwygO7GNEwMZhAX2M+bakfbZvqNfpOtdDj/ODqvh8KntvgwzzBN2hCaExI4dDqf97MR5lphS2VXb2d2i2XJKv/iEFA6//0Kbm4+PyuXHx9yLBBHyZVrhqbWT7srsGm1s9JQjMwyGI1n7frPp7zaH/a6/fph/uG2YCvjuRfPbt81vMUAuxD6zZMF1YkywQebTWT7Fq+jYStNhyHx6HP5406ISPj20nx/aTw9OYZBIKSF2e5ZdTWJtxNj5T2QKkwLCTtQM02//1GBgfl73Pz70r+76v3kJ2gkddCS7OqaUwEIIGWKaR4Lvp7OWS6QeZ3E8HH+WcgIpv7/u/tsnUnjb1Wp2tpq9Oht+97L93942/8f75pJsl6yISTeb5IssfFGK2/Zpn5SHbMHmIMJ1/ZWZks5lZELoi9kBB3IOrx46V5jd9uu+oxuTkHdGkGdtfzZ3xgZAV1QydJm2aFZ2rI3bx+FPX4b/86fhLxjVdEUbtGUGROMIYVdfzPrXpwd2ghhPbfvYdHCnqiOidocFtzt8vjtc3+9drMdsxOHbh5ac/xkp3hFAtlAxDCQt6TRgUd0HdhVRUMhkjw+P7b9cN//0gUmTdE/AZnoHWY1gjCPKHHFckdKxLIGyTJdCeUwHFJV7kx1cni9JresvlodoRK3LF1jGohra0TFHxcXaYdqQ/bUYUed05OvRMyPLf7huf7rvvqwtd3XmQqPfvGx++7L97VXzHlOK/BfmtCZRc4tWxKLpVYwUmgFIw+Wa8kw3z9RzyaAz4Qmx8ookseblDuuDdZBapIRFanRCyNcgwvfTg7NyCSKfz9tXRJNnhgtwEkZhlA3tzOgamcjHJEJsqJ/cezohMI08XZ356YVa6/aKxPuT9uWye7lkPkG3btp1i+878gF4vF+2L6lo0V2fzkhfxlEhg5mOE5G6um3PP7WvycPIgvEonlSu/hrJGkXNhBuW47nft3++a/502/z00DALhxouYn8iQ1fznj6C4xnRZgRDQsqUVYyfkTjTJHzAyt21EpKBh1oxrGeiZPvxXqMJ7Uq/TuLyBS7fIkIJRlIEhDQPKfEhnSuUMv3Tv3xBTTU/PnR3O5K+zHT+5qr5r2+bv3/dfAcViflmHh1crzWx6T5v28/b4TNLZhANd8UuuswDRuzrVcfxwtynyiZKXxfDwLadNv1lx0RqKLzuZywpTmkA8bjtABpNej7rXsyH+5OBpRlOGQIz7ztsn53Oj+ehIor0h/vmwyNaxFVP8YhqxwYm9cu1lIzozviwBgWiDPgKThb5n2jBIrcX7f3F7P4l0tN9fJp9eJyhn1kk/Qbd8EXtsr1sUbAXlwnDVPWxOcIMdnWQ7Qe650dUgrQEJDTkq1MTG+mDWKfybNaDk/P53uUUFqweSl657ypBmIRZmywr6w/g/H7f4ZV9eWqwkiDhh/sOSD7etT+Qct5pV/IWYxLpa1IE8pPsKYrSN4Wz6GPh7n/90vzhS4O9A3K5JyEvmv/6xh0D5BLfa0AJDLiYPz8xI7f900Pz58fmzw8a0y8Ww9XC42+vkFFW7u5M5oxbw4mtjzJgkLIGbvDY0BbwxGf4DjSxJPWme8SAabqXC9MD+dYC77uKp1YTsNoNsOOGQsgPj4QRkAAUmrPR8D6J5X7/sv37N7iG5hhyJHUINcakX460viapa8iPRosu0Hqrp4vV+s+fu/Zze8sVpuAgvNct0xxnu/aybd6R1shKqZThm4VD0QiweBd/vGv+2xf7I1xYXoQqqOjfXDV//6p5dzGcOnF8fzrbJUNuFh2jqxBCZMp03O7M2PXbIDi+eFD/7ef2ft3h0OtB3DPaJSEhG0bJi5Uord6BEhzGql6bQvf9DAbH8PvjNfrBhapgcPQJovP+svnbV83fvcKLNGrHt9bgOOdV3zf/dtf+613zrzlCyNfL/vXywJGQCuSr6RNoOednaGul58xU2NVidoae1cxpPiJSd82H0+aOsRSXpJaB3p+212eKKQ9HV8cBLNWWRadBHwBgVkBI1trC33/pwhPN9y+a//U94Xip6Gw07DxG5uk5BCmCGHGqeQ0ctR5dyUfso+lv982PrET9SEikpVO9vesuu+ab02ZzlT4prKR3G2HiFxbi9bpBEP/5c/Pzo2mrBJhAMbVDyH98JzxZ44QQ0gFm1vCJDSwcOSJLFVkAGMyFWkqEUQRmLP94gzUsk7FK/U9YXgyeoKJX+rvmf8fcUiLpzsnQYA11Qmg4LoRy6HLX9DQsIcX6hizmPAOO4Q3hm9ilIABfk0UK8ISQhj/c2LF/5JW1ub/gB0rTEfEdL2gDj9ysD2j2t1kIGncbhYCt7zKO4xK02AkuDY2h/7s3DVNefng4/MiHMh4OwHC3mX1Zdx/W0CFrk+EwpOGFwfV++PzY//l6+P1nvywAq3532b296L676N4RrCDYhLOvxSThEMQYYzF8aTmsNLj0iuvZx8lmkqRuThyV92fD370cYL6ndSsYeHWYLfjynO8QbixYRdzZeofDtt/D/TdPs7un2cMTkUl9QUd4Fs3fXjXfrOgXm5WpL7pg0k9LPuGqABJChhTx1bA8nHeAMdGh1ZiHNdy8aDbvsC0c37hlucbWcWk0NvgcWGebkJ65bYlSEdzZEcFCfteOLEJIFtHGuGTUkBADKIaQr1cYkIRlcdoIF7jCF7iDkNjZ//qZ8CZhGmZI60rO9ioeOqGPD6im4Q83w4uz4ftXLeruEQ/y4FLPLEFrMjUTJJxco2355pwFxprZadN8PNwzbf5ui8l+v1lcbxYf1x1aYYXhZxzHlksZOrYQ8k/Xh3/71DODaTnvvrucffeiJdhEaOLVEoe1Z4eQsNc4WW3MJAppG2ci3uK04YsMzXk7sOPpYt+CfSYPk0/802G2eezu7rtbzFrsz0QVzqCI4oW1tX/aHx53+89Ph9un5f3T4uHJFc1IYP/2HK5qfns1vJeQNVG5jGQ9bO2OZ12sdNQPNXjICdYDpgRgv5g3354125d8jpCgI8jsb1jlYIdS7d7gx681KpFukBOJNIlrhvdD1iwLjNxjAaNVIpGwJF3j37xpvr+SkKsZWgcNAL2MR8ObWAR/umkgpJ4NHSdLEkWJ4Y5oKawJ2fRPh8PZ6fAF3ge0s/ZN377Eq8DHpDGZHwJCCZ28vmgXq+b8kmIPP+JLDms8a6Ky+BIfN3MsvRcYqHkpm39IZicC8Jebwx8+H7590Xzzovv2svvdVfftBWEKTQwNJ4XQ+GRiyPwYmYBqicHYy+5QJ6xGLBJxeFZdTwji/QrOIFbSrjE0sDseuluWXolEYjQQ2kZ8MdiYBL3eH+42m+v1Hr1398Q6O7YFN+M3583/8tql6N+cDpf42VJIbKsO1CdTrK1aA6TRszox8duw6mEUJPLbM6l41rX/8hmbtmep7W0/sFb7l8sZeoIuQ8c0HpBF0wpH/124yZ4P/Y5/SskM3786bb4jprAasHfpzsSIsu+ENGjp5xkS/8W+x8nlyAQwJvaxiBgm2Sf0LWbYxvljn+5YRpWLw9NptyEyYDIPK1fbZdJy1IIrPBPctD9mVNKkB1hhxwymNT61Jb9cNg8nfPJhXM8fgHG0WfeCBTBYtPibtmNZpm8u2m8vMZX9yAbeS0a2TAvxKEVtAJP0md5NthhgY2T+SBTtgSkZA+vBt4xsM5TGVEti6Iv2BZ4oOrTTUMC9g5BCsnINFmxuDCes65sNK3B0rJ2MsD5uW5Ygd+X41jHzb87UgahZGhhNZhBHICq4/lWrFlbzgIEemRThNBSc4PNhpcLADCaoAiT0aBl4QPD0Q1BsGdHR2MmE53z3i9WOqyy5w7mi2p/ksWPEM3WPedyhomKRxa3d9AsbH3hLuO7MTxrg8BJ9YIrF2S3E0k2EifYscPAZZhnWqFDN8EraMTXrQq/HMBBeyAkzFGez1XyJ+8jUeyKIT5vZ9V17PWtuZi07HTCxtFjqww9fGPnqHllBA73Kslpn3TcXw7uzHmMYKsJqxo39+rktNcUr4yYIOnLMggufHwiaaKxhZ4KRHU7SJXo+utheh1XOoZaz6WE4RmQJMhB5ZobU9qTdnWrRPLKOynr+ZXP6ebu/2y6f9nPsDLtborh0H4ngMK5HPA2MuVwofarzcEGL/tiU9wayDRTVJ6EYaUBg6gHUFaYiAYrD0jXp6WDpXsHKBtvn0BEMpy0sUZv22cFrhdlmBdFYkXYh3ZUTvQYmb7whFcMcKhQhRl/sNTUVWmqMoyJI8B1j/d9fuqL+CbQ8wdvNtBLyekzHGg5Ph2tY6a7fXqH7qUw3USoS/Gz4iKPdjqvmjoQkkWCGd8yyDut1d8PXwubNzdxj51ePjG5zJI7PAiaPRIphHQzUVfv+HHuKUIhL27g8fjQNs1DUp86+N+wEE9B5//mmZzcQajh0YKiBaAmrEK1O+dYAhhi98jBfOicJPYGShZBYNB/vEUXXB4CKDDezAv3nzeLLdsbxbjcjVswIOYiBQuhSjB1zkSa8ubA0C8wfWAhfHerKlOJPKoJO4NzUBwqZgxe71hBeFtdgEJ5ewLmuTACaObOTPCnNNIYFid9m4UYaiFdpQICCHPidJJKGl0RCyNewA6mLRmcMTEUc9ViKlih/tHMIOfzmsnlzMRCz4AtC0BJqHTbt00N3YFRh3eOhsq7Zbo0fR9TW7EiHbE7pD5yGqhlNyQO8zFpVHVr9HrWbZdhYdgiJvJaWDqawEqzx8Yf+hydSTzpWgu9xMU+wyPv3547D0GB42QA1Ywto0fpyqkNi6klsug86ysP//bH/+Y6PkDUfbod3l1rO58xKvGov5u2FH4ogsOcHyeiFIpF8QHA4uUNxJSIayWNg/Mt2jq30OSNl9CP0SuAIhMD3zCcEjJq+k54IKhr9YR4uuNX8rohfum0eILaH90wcjTu85TQxsuv4EhQm5FJ4wJoSSUwqhPQ7Q47blzbuDdG5yoUcgWECcMTb+HAsIuJUJIIpKH0+XYAtY18aAsaJslCOoauLkECgByjKSJ5fGGG0ufnuRazBRf/zFdkFpIl0H1jX4qRj6IpAMG4YT/JZE9K6MLtgkZJ1LTCGyxNThl/UE72fffszOm1wxf77NamXPQmYP+86TBVU1nHxV/SF3eqG+E5WNHM0e0avj+tHJMURqwU5RwNeMkF5+jZ0PqPK9MpvzjqGdBDo9yy7kIXREalHQ+0OMDGEBK8/7XoiR+jqaFT8RV53xW+8XowzbkEkjDQse+QGp5kYNMEj+mNexjzGzc2Xz5zNejh1DJomQsLqK3H8MJc+OWbZPJ20WxJflV0IA42NaNv3ZNQjYowkGb9VfWoIGGZFtfKo6xuSlyAh0WYsLS8T6OqAUDp8B+v9egYvKasUaYeNFonvgy2769on1vVu2zUAEoLC0TkdZi+cVsdw1c/3A7GC7rZ7vHPQjvSfzf2BFGeid9gm8BdTydLHy5sad0l6AG477HxzkVgJOPqy61n2cbN2pIK1xvhi1J2haxeNK3Oe91kMjzAFhgmxlUz1Jr0PLjHIFwr1BNL+xFD5vV93oEEQkgwHPd0zsr+lpd0iqwd0zR2slpwV7abGZRIZUcBEgorIB8m6CA+0rM/ksGj0PUMo4BaEmHbgxJesIq9txWjSxyetP8YDNhovzpU8DU2KlkSUAPvjQ8uIB1ZnKIS/pwXLU6zE5UhNCBlKxj4FM+4yioSMRJqQse173cF+bj4cyIVImFtkhTMUrLkHEXmQzXiZsqhEKo7PJXKDICvEBpCQxXfn2IeH949N87l7XHY/d93DY3+/PmyRqvXw3dWMxfn5uBf9WTFm/S1C0kOgcNT5qNOBRCHWgdXuO7D8JLCySFnXbOb9bk7wzu4mWBELt0TPHQZnOEVj8pauayCZY3Ap1+XwcYOx2vzE1x22mHwOoyLlrw1ZmCSAvaYxTwsb3coiJHRlcbvH3eEBaLSb3FEDhozVUEZI/CDZjhWRJCTOla4YS/di2CMe2x7GwsYm6EM4E+xje+NasGJFqOhGh4dEfnxAV7E6l6YkIayD34PSCwAAxQcy1lCeoajRepeKSqSLQcTYydKjuPJmEyQCWbumkN0BW/31VBUbRZtmJAQeco4reUgTLX0UPUihX8vCWy48ghKkIpQh6o4gn/MOcDpH6lkYhSuRIUpOU3G6EODJMQBwgwpCOvtrVUsWcnP96nHxar/6wOf/kAOE4IBEosl7hJLw2+fMa8AbZngS/+rtSfObF07GIMaN+T1qeWKTCSiqQ9TxsQfFmJSmcoABljimWgx0gRhAWg8wdz4gWzjxgUK1RfhayhKBClIayOY5P4L0vBwx8wEv21426S5Oai8EjChymWqtT10LbbUlX6Llm0vM42XEWbHFxuMTwcTVuLiAFMLuwhiJDFoPBSMNdMMQDLea4does5h880fxiK9Dng7rXP7bbYuIMOy337BCQnc5n72Ye8Srgb7JlSvxo2ixx0cYLBzGd1SZSGG7POuWq5jgqLNdR4dJB/llh6TuEVnMNPKnSYnmAb4R9wpVBL5vnN7NYD1k4xZLMOB+EVWgJmKEmJTfXbS/vWSofPj+iliMw15CUdhFIWWxRPpRehwAJNVzxbgu8/1ZPuWETDOTAv36dhI7SM5ut86UM/JQK9YbajMfbu5MAIs1NantGZmBe9DMNC1VWdFqr91HKxjBpldy2IQQMW1PrMeZ4fqIsW6zhIUuCokNSb9TaBwh1xh2hhQpjQ5xzf3Wl/4ATOEX0shZQnRNRmVJDKNMfkbFxfnkrACintGPMb8GQh7I2CAI0raf7h3PFqxRKAAAIABJREFU+3Tf/Yi5/9Ri70DdOZNX0NuzlhAaC+WBGrgjWQsoAjsUvzpHz816csktJMQKZS8v2pdX3YtLx3uHLVTU7fqZr8DfH57uDyyBv9+TCI8FOzujV8OvNw/B74LiMro4XWYdQQ6LTOQBfYWXQg/9d6+Hf3zTvj9zqGQkpEyuUhAmaiOEvffjWXAGwcWrZfvq3B1tDAmJlRM8Y+d5lMHTweFKpC1eQGKn8SMJEQAGEVcGjgjDughFVFToKxIxRF6S1tY3VyTvEEZwSoWRWZKCVTOQz12cUzp9JdrOwAuE1JsA2hAyEgkhnUVC6UDskhJ2p6R9kABBtFkHme/ljcNQZYMYioiYGxEG/SMhSVlYdx3JVD/dtH++bv74Bae7/bRvUWh3xG+79pKhUdJ/GCzEkkpsSemTkGbCavYo8TCGLGJ/SaDkgmHt9tvXGsNYFBJy05x8QRoOnx72dzvm9M23hwUJBnuMCMZsY99j6/54LYcdlEjklVFPFugDhiAOQl60f/+6/d+/GTivsZGscDcqLwCBNpFIQ/w4YBcnHfT7zYvm2yu0scYqibgn95KDJ0kKdHXF9ESlh2lapcuCTb6X/GLGIqC4pw5F4NtgSIaQ7oyPQUViIzgn2Pw1bY1ug7Q0lB9dQ1ExPSIocRCQkhFK6Kd0OZgfowURxCdm6BVrCqDBHbRHL2EpYGvxKpx1RlaZWlStBTtQEN7xAgjo6ghQrZsvEJNRkXX7AVGbNz/f+qnonx4ONJgiX+GTEDJdtm9OpOI358N3L414YeIBXjq7bs/X+nAY9kQu9AJNz03Yj3RLsry+SZ6gqhdenjVPT91PC77RqG+928/uN4wGs/KXo1dkm5EZe4lb+aL5HndqThjP4Bac9IJBmIsBf/fbq+FvXup3oiSdPJSeGUAyNOj+5cm1kBkgRPOgUV1Q7AxtDPnZB6LQFxtkqCfJj52eFdV9RyF00niEWXIXETeonaEJFv+1I0JmEJWsqITuLyqqAXjRrBtNDewJNAqmOMxR2hvzm8xKc7fAdlbdQ6CZ1DY5FOoQUYINynDpigANPYdmM3re7gEWxs/9uHGNNAizxyOJUgZZaA3TsXnY9cDo+fDf20+4kpvMYw2bkEdDkJcdQl2dzqEiyXN+1TRDMASUSXvE9IeP7NhdS3VG5sdmi+fXMayKR3SeD2kSLSLa8HY1vD81XmgnFB68YehxPseI55tG2/2MRIWfH1zCjdrPlj1r4F6cte9f2ZDTVfN5g+PI0THe3171v3nR/+aqf3+hhNH9WxzYALUt6eGuxExvSs40H73AT8f2gKXgD2xaCAkLJvLgoqykIp2wOgiE50OPmKYUg1bBmELfkr7L9w7oJln3SG2oaw5w9kQ5p1YIU6pVxYb68RPrasu6jYPhB4MN8/rhZdcYzwIWJtAsnQtF8i1hYexneNAEZQjJGBshdnQOBjfMQqsSUsJ21/vBdn+x5JPvNolaUM3wOMtEGxKER2AWCGmfbA+k3Zi16HbbfMBlu4cx383a96vub18gDUR/HBpj3Uo6PBbFdJX3fE+enmzHR8IikURJAIA2w3ojIVmz1PWENIFktLb5yByu+QxFArszDKcmeKCFhOgOr2jVvIeQ73rZ/wxD5nE4fWxnj47k/MPr/h9eHb6/0oglFphUoHSM0YqEykiCJRxPnJovQUJINCXLUJOuAfEQR6j4juTbVb9B7vvhDFpmtiHpDYzCIVPEkpBIhpIM8bAwGZYc/xLl0RCJeRjfzerqvxDEdUbZ2KHEL4aQ9NBEcOAnAlIlkTqoVESPzhAChFR2R4nUnzbO60dhyUjQI4aDUCmq1q1jVTg9b8jD1I20GgHK8osEPhQaJNhluXSQCSCRmOFyo36Q2v4J6YXkL1fDdxf9P7zo3121Ly8bUtQvTDyJU+qHCUzm3PKtBZZjh/vQJBhNcJ9pZOpVzDxkEfvoVa1OzlstyVR+T5fxAbQFG5wL9uFTxJ1OBZhOyLYik5FUj9Vw8tAuT4f5Ccljw9+8Gv7+Vf+bS6uOQCgPRkukgkFBEppp9WcMbyJqvfx6PmcVqAEX5f2FX/xlUO/FSU9/zrLxp5jKB/JjHJ+JC68JjXQyrg788IqLVFIDWmrqf8deWAspytXWOHIA/YChiMtJjboY8bl3aR4ECWVJHqXzShn3yPgEbBqFYpzIUvKJlx72qc+sILyOIsHmT83PLQu/Nu/yKRMyAPUUtK8deCp74fZlw0e6yRlbZxwcujJuTLEXrN48nxFyfHNKQnrzu8v+9dWOScuYGzCmrah/fCNgD/v3n257utU/3pJDZRINRWEK4djRob5gAhecKB/baANBDPIxQ+NieP+y+WI+iosSldtzd9YhH3RRYAVmpdkaAi7kyYdHTKp+c+oYi/O3xrg1JqF8w9FxImM3Jjp/fvJ7UFCRoc3X8gfGavPyHFEQVwgMhYMoeB/P+OVT9/qpeUtchsjZYLqTmpMHyDUh7IcrEpMwjtZIquIgf0yeep2i2ARmMMUX/iCR5d8+EV42wvtmuSde+PZsfsn0qcXcrjTkpyiZWa3NEAITOg79yWLmJKDFDL2KUoaQaDxyZ+7O1bSoGTBigA6HpNODpttnLsA1hj4rP9Mb0y40eOYQvT3rWBGaWt+c9XRyr1fk1e3JRyLsaVJwdIy1M/+SCNbj8Pub/t8+MVVo/vnJrzBaSAiJccToIH4Fatx8eXjAzgxCDgjc+81w54cVdT9CSPfbVXcHx2TiO3lKDkSYrTS82+HzoGA6w2OgasQpfTS4s0eAWckBgJA/P0pO9Cq6irXYQkh7BGokH26JmzUwqZD4LT0U+mj28ql5FUIy+IzvQSCCxEYS5rCt3u2aSwyizJZip06ZOLuqNWrdEy9p9hGGrhlkGCiVP/XfP+BZHxbt5vXJlnlqb1cnlycnSz42oG8TcZaQo0QK3Omc3eqNtaOUneBo4uznc2fGoGmRSDvFmAVguSQSpTrDKHDakZ0XyrCmIv/2Rfv9i9n3L5kZczhdkAZIQvo+AW6dHYpJa7QXSY4lOxtC/l+fDteb7nrjBC4XistoOwIB9lcYyXaPQUJ8BQh5hd2Bidg2X8gjfWjXBDw7Z8AzWE+G3+zk4CLxTFVg0NugjzuBDsphYCMoLW1ahGQom4QVgwZEU83Je9JDJ8MIQqLbnVtzTqKlHiFUwS1Q78xnDH5hb7xE3z4Nbxiww7bgYw8MqpOBjSp+YVYchFEiTfGg/1EbhSfBVvHSVynFCkE/8LlDsI1EErT70/Xwzx/h5sM3Z9vXZ0/fnh9Y5uxySWrLUrNINpAH5rhvCkUlDcSy+JaEuY29KMMIjvxtE89l2humBDitaQIs6MtwD5ONrwiat4tNc7ppz0kQ4QMXfGUBTlzibLVkw2Kmv1yZ+gfvsjyLbEN9UMSwCMnNDiD/5dbJLj/fd58e/cY0T2EiYtYiBCAOF4WOXdvPzsBeDVFyqJ3YKXrSFBAzHpCpfqs7S/bipzujg6/OuptVw37G6L9MTzygPs+DfScSXWrGUJmCiMfGzlDGH78waclpJOYzMq5LMjGpGy+Ap6ebIOyZAJzdC7utwaNoXOHi9XnzfQahPjTGkhiQoo8gpREHH153ei9WBVRH/uRjXwwdPDEmF68faebFzAMcQAuJ80wbZXjrDWvDMVnsavbdSxLVmAECPrVt1U0gHQY1sgogOiItgXKSoP4G9nEql6Ovf+kZu+mJL//00F7e2l+/P+vfrfjaVk8M6Hw1e83YHxbHvn1PmivDNiYoZ9IyJawc7EWtoUqxtxn5JDgXVaJNRr+C3NCXYFMwrvSX2xknWGjkUOGx0RN8e9mztD5CcOnQkl8BZxAA44isVKN5sDhjdfRednVEbk0lYoSezhVP4OebFgG9PGPvLkNIh4fJLfFIgMrGgj9swuhkx0lIwEQC2BnvZA4NJgamCukjTDr7htmDVz16BaWKvxHUGbNzpkS+K0Gw65SZ9BeamhAKub8j2MS3FzftH68Z5e2A52LZoasYgk2vFioWLvIL+kHsWvcmn5F1oj9mMymWt5jv9BFn3Yur5bvX7Tevhpfny/MThr2losMjCviRkMZ4FAUGAejAMLRw4Pi8wheyfYY9wwg/Pc4WNwKKfiLR9vXpfj6fnZGWivl03r0jIpVPLQLcOKuIAGm+xIAZgkesdwR7aHP4j2bwMAuBEIBlbgKz4H646UhQ5nuF6HaGqV8RLrjE53MyFF5ExpWcWgzIsFkm4mCodSuWDs/0BELwc7JyCb3SR+7kD7Kkzs6a87P2bMVkx37V9iRWrdo941YucG2M0jEHbN0nxjXXDj6QzY2JRECgspYIPrBoxbcv2n98R3S0f7mkBBLvIRwrHchWQGLYL4TEqCGzDRsVWWVO4E+PaN7+mujrTXd9z2w1PxD2gnyUVZzsDEZBQKyT0lGQEAdjvR2ckzpl5TAUf8dHglHW9A6r7upy8e71/JvXsHV3htekw5Lxv4xrzM2MS09lz0cIlERFPN8LgyMkG/7hxqghM0hQrVhddCknXX+1PDyd7fDYiCMvSATRntRnwnCiXPudHDXsskO3+v6inzTJTXYYEE/rL7fNP39i8qVp5vQraDM6Epah+fYCn52Be6atuEZPRiEyIOrIgWkcOzCA3BPNSnbMbH8gqxZaMgbhjOWH9k+3LVNxl0zZXBmhvmACAhly7UHGYjo0EHdMMoksmpXafCFD/EF3sIwsDCV4Gvfmu6vuH95hapGZ1Z+0e0YMMKhRzDioZpMkzE4bcXLoibH+QDuDBOd3RCQOcglB5r2Rk3EiAwtehXjjnsgJ5wwHYRyRaYabATyVXoVFkjlgpFsMF+cd0ea3r9p3L5PfnB3SOSkSVa//6W/dGCUl48U8wR1cIjjo/QXWiuEIpt+tmRdBjmQ/wyrYPkHvDqHEjwEp4xSLLGYVG8oeBKxjCmLoaqAYj/EO80npdB+2A9bNv1y3//Kl/QOTQImEARCyeDZgGX5DXO2VIc1XZ3zXiNYQXbAfEFK36Of8wfilovmMz2A5QAeu0ZsZPrEJ8pedp+NzRFkPh9lTz9D0bL4Acg22LDVgOhaut9lNRCroDk6d800QioDq377hI3tJg1OGYPWlsU6TW3TeCiqK9zxqhp10td9eDOs3+nx8K4K87bXfRIXSplugJpMR4qfg8FC1+uKUwx1+SpTQSgZwLuFRh3pImkGjdGer/r+8aX93ySim6dE2PMdMF9Zes48UK4UlBTRaP2nXdnKnHaL5/StGM0z0e8ISecSanUPF2/vZBd7YyYy+4fzUiCXjsDZYW8zSYVm77hASm6IaS72fNsPPdyTLkLw6/OGu++P97I/3qlmaTSopRuari/b9Vcu0L/B4gUpkUXBhLcLVgLkICx4hWdLH6adOEBdTxUiasra0D9trA7Obb0GmLjMoZiagORmlK8VkUo+dgnofQjLDG3MdQcTxx1ag7eQM0POh2ON2l8aBK+mCQBJgiDKzn2QyIeQSmZvfo89ac52wmL48eMT2KfbDLmNxN/IB2Mm4CRUdQpQKo/lkBJR8BsKiftHHKBgwdO/JXiAchqgUCaeu0aSPjHAqkTGHVRZHiUTYMbFYzYiZyVhiH68NVJI2Tx7UTip2H1YDRgTWBMtYYXnzIlYl0VT5xV6DoiGfeoa+0xFvDSuzsD9vcPnJDd//4cvww3r+I3MbnkDs8ApKEFRjCuPF7P0VagC4zcOYu9QPaChFAlyIW8wE2wN+aQCOeU/Uhs+wHs7gBodKqQ7yGChntNepwk7EWT+gVHShHefx25bFwh4NvmA3Ma/hwtkajDOTsY6/gYKFoR0tkmzAoGGl3EUlQL5YihAS3MUzbxgOM5j16mT43YWTNf9yOvywxNQggcZIGeYxRike6vVDj1MgEf3K5fihEvM/wlJgFVsdToKhGSvFkaP3RU7Q3kFESBY2SmzqSMipRSOOtKd9B8P1m8Q8T0kE2rcd/TA0GpwLyBIoWFMX2+GcKaVbnCeW09AQxSqrcLB6P6OARMu4LiEjJWSmMwuaiQZ/uR1ucZiQRTo5PO4zMnp7wgvfkWZ/Tn6i2b2FONmswJZ8wjbqlsmjtYOXIUUxkV5C3okmHpxouGsvMBlYIoApjG33KAmcLSz6ML3K7mBZONyYy+ZtdkZFvsNrumSymLUW1kI4ZcZaIOZ4rMmtozyKVrCjHnb+156OUYJTkZ8ByZoizrHSaktBNSwMPwEGRNLUn7OQ/4BZgAPK5wbeXzob9fscbZ6bMU0rqhM5Nh1ZuOwXW/Rr+gGm/Jz23w0ECvqX7ezdvPvmpMOIYJw5qyr0hIYZGbxlIpLLrcx+vp/94dq8GJKw0dfs9D1oD5No4ZjRUm4+M+Hvdoafywpoy/ns/bL7hhmmK6ybgfkS354PGvoEZUBxuqMakuBoNAnIwnMAnYZx2/lVtEM05zf9EKoCl5JEQgaeyXh7PBC8dSkKDMInhuQy3EO3GutRX4DwCPYdQnmJmjnF6+1fLrRyXaMjhSuFBNfkb2mTn7ljF8UfDc+jlAYMirVwUoSQcizcqxV5DcaeyHPHlsmiN6h6IGEQLnMQKvOeUcaudwKQk2GBxAmmoDT8EILVseAaoSuU/DtCipDwIT3t1QlfgT28WO7fzIbb5ezmzCl6f7wb/nTXf94ettAHxmfYuTOSRJ4/zgiRdPOFssKCxjRZ4YyBAEOMC47EOx75LOLaHAOi3sQKiF4SNHCc71JyujTdMpMlYn9l8g3RGPFTBBNt+T1ddFonP4NORv7Q+TqdHFk21iw3UoRcZMe8bEb1TFVketvMBE/7dN0BhcPBHJI1Te1JhMvV0+j9rArrNJlWMFMRsVLQPA/zcEhmT8HoJUjprBZG0+i/yfLlo9OafqbqCAOz9ZiiRDAEN8EwW4RYE40MF2L90zf0iCEYH8cNt2h743Qa4S8veG1kpCD4F1skUhwikS86nKc90yIeT1hojPG2gaRskhm+MCB/e7jbO6EEEI0/GaoBk86XS6zVcOvThuTBHjkgDZ7O0wgb7jBFM1WRiSmz5puZs9j/lhntmKlXTl9ikCgoo+MBWRpe6lHNRUEG+iIhp1yyI4xEIvDSPbScO8N7T0CSyEFuGRtH3zIaQwCRIzrYeX34IRLSoIy54BNiIm+VkoQXTffq1LO0rzglRtZX4QhM6bMCmbvURMjoNBk/WO5J7+iTykMR3sraXPuDPRF0gdq1J7Tjf6I7hE+FqdS+4IVX0hfSX4wcU0RLiYFdO6Ny50SU9eQldxmOFprdQUYWQS7GnV4Mw3ckjIOdBctyMPxLtq75zpViY5aN7dVkhRkYnSCh4YJVf1QzhgOgNmNkyX7AY9HB+O6KeCwjfFrIDA3GTQ8IgQbMFDOWvjeJAEwpqeKu/gRq/kftFkILfg0QU7giwZKZyzwDB0g/jTuZVh0Y1h0fyaMRfe7wvF2YbUocTnNfYmlchJFE+fj4BDTviD4R4WsUnaKiXizQtHqNb4qht4hO0JWJi8ZWeUU+mWYWhz2jTXHsRNsqNKiSkPlmbRATnAQtxXUwllYS6ofgOuqO1KBvuZ1oDus44REyBwPX8LDvyKInkxgrY0va6cHkU1ahwGkjxAqsFEhMhOM5Cxm4xmc+hY5xT6rAuSkg0PWEdJKRikdUiBWJkPiJibXKK+0uiyryERyNDQ/f8o5DUnrqYigo9QXC/T4pCXlChRlUiTtOKRkVYFVeT8H8ydsjUSU315TX2G0A43151ofz5lFerNmrQhsmCi05MwEqNWjDp2hZJI0UeHkjZdnQiLEIGPESwzgkF7zit6oa1cpwTCDjX0l/iJkGyXFyCIpcT980fpLnGYiAAM4oG8g0ZIIO4wy7XbffdXy23YUFtIb297vd+WqRhZNniCADM+77A4nLry67VxeEbAgEdgSUmTyFq0PKIMIanOsGCQF1BwI2WcDJtTilYLB8X9vEE0iYSIqAVGeZZ9yrHI4Uqn0E1hznS0Kv/bvqSxGLoKnQUW0hWmRJzJd6o2+0Ap8FKmkXLiFMgT1kpq56VDDHLYwVaoQeka0JJO13OYQbGbpwi9ZJJ1AsZi0V0fBVC0h5gjRyAz+Dolz2aAMje0Fa6pUHJ5L7kJhU9nHasD0J8DBc3DevXb0EKpo1KiGZGoh1atSmZxDqhn3rGBNjqldEIAGZdQBIwdoQ8G1eM232anhx7ooGpp/U16lqREDYCrJAWT+Ug5G20fjZAZSN04mKaUDuV1tKkgXc9tXAQvonp4tk/pumGYygP4kKnogf6aiCqdY9BVbJR8yk0LqTCo+AcVp2rKBFWUSs/ZEGBWx5JHBPpVejR36Qb7KnAMlqAaFjQVL0KqKlUK7P9+7aFDJiAR0vp94eH5v+ABMKisdgYjiFFNuTwYXG9qeMP/MRY8IWpNaTITHD7l+dzFgHlMlZiFrHRHczQTSsCYKjWs9IoDWbr+Cr+gqZ0zFwp7bwob2+6LOPK7VTmJkaCRbs1mwC9AmSNHcdnSA4gAdi5DOrUmrHOouePGDX35mbXRD7KqiqOqrF6TCrmqA6dEk/mxN9Er2YPFxgO7aenxzHEwrxXyH12fUwSYTH54PyFPuMe6rYlJMmTVuB9fUSt4qQmHKiisdHYlpkwTG+mzoUT3DD0fi/c88GEu+Y62uYipAcSfv0kY4NuboEgwyMSXHU7gJPxpgNzC6dBeeJaEh3JKW0IMBaKchCZpovR8rAaRMw8Iwoz/HYLhESFhcRucqJei/AGsCEvVAehOld+cSpjbQPoxTjnOmtpWNFQFWcuuo0R+9IiWCk4AVOe3SoyO1c50m0tYTMO2qy2sVkkGc0JeDVlTqmEWnXeDcXqhT+8KtIUlenMkVYATlqCkbxIpRiLMCyKZ5Ft+nlKtDCjwAS+qHZvEdY1tckAH1YKOLKZkSnS6lbrO/zdPQXYLFbR0oP7o6ISDmB0D4jdmJpMEH75Tv2NXmwtvTvYQqArBZYOvdBLd4kYXqmdDFTlaAdc+GIFdjxs5wS+R+ZP5xaR+wUBCnYrotwI8o37Qj0VqpAW8FIRX4Is8MEeWxC7whdIAmaiuyFk+PNqWouFJ+m0YWK4OZZQ+u8IKx+MCqDji+6TXlUWcp6vldMVsf8Ht8vUlcbbIQvVwHVSNrNSCG+F/FVO6DonSiLuAHiqmK6U0Fpsa1MLaXc8kP1JYRWHAMhrbWhbBYXnRc+cEsRqrBUYYuCMk/SGN5x0it29b48OR/gStLwLZAH08h6qQr1Z2pO0alpPPro2CkUTF6Qxja3SvOCLcjuuwEtRVWRPjBt1dSgggcoIAw0AkWdQDU21DdGdAW0IIEytQCjqnT+ar6F9WjeBLYcg55JWKhTXAqtIlMdUyk6Vwk1hlKZCoZLSH+toLOzfIiKWa1aMIJWMBzbEsQopxiBtaV5PIdQHYG3cUWlKqH4NldsfOEpkilJ0pKv/YV0iqGpkw8zWES1jEJL5oI96x2RFKyLIR5Mu6klBdfBSoMeX6FIg1Bxvo+kydizD1ihRUVarGVqZhobMqcKZVEoeTEPPX/OWrxcxwKzjs8I2eyZoxmrWGxOXcL44jNa0hRdQno+7kXRBHuxmLV3slAxVisuI8m7zAsHCQxTO28Q/JXQRc36Pm8DvbgS6pQkCkSHAJpUA3uFOYXExqo93OW7IClalqfTCavBbb1tUCPwIs9amggsRs/Al9adF9WHQc5En9QkVJqWXBSyBA8yjYZbaS6XrasKPSIhHUpaFgao+nRUwAFNDr15Is7iRKBqWm5NLRdQ3S1KKD4cQbJyS8jP1FC/OBIQUAqUyErWy0PWY8nVvYdRbAi7ikjPSdcuEQmfTqm5ymgGrqQLYKydkKbTjXZNZ0c7GHVSjMWGNUygC7BtLAoVtQRzEhdVa7VaXFuWbKPCiUPoMb4jxWp7hoSiUjJlfEKgjx5kmlF0hYiM7jIPmZiZJFFkyriqRgVMC7Oho0TmTnEFIixjSiRqn2xpqw5TCAR3uQWjiCMvwwq227BCgGTjV/GZdQtYgEvwsShV747PpqiJB6YneG6ukuHFhOLG2qsCazJhO3AEKv+XmhqpE2LYQMUCgUyaMjPLs9i8MFNrMGspLvKhGZJK7PXTiIDqsYq3GZ6O/On1MIwQlvRzxZakrbUpkGWdRXoozF8QmPVHY0K7vv4tq1Fss4DTuEiC3MWqnNfr7vxuznIrfDeePFAinyKq9ipewAKVfZ91liM0AVCgh11GEANrgTQKtAOZ9kK8z1c0suIdUV9OLNbNGAfGI36aixmlMiyw1K/hZh2WOuFJ+P56i0QamYjwjZSu50SQr8rNwhgM1xPjSbVL3eQ8VTJ2Gz7mjU14zeIIBGTzDrFpdgF1mIECLC+yhuqwgGq3LRJc67Pa1OtpkssjsCVq+SVT1+38itxBmFhUvkOZKAMGPVjTiAkIhJ9Yhut+xyIxe1dIIA9X7EFIls8Eg/YI5HagkxnXBabUEUAKHE+ocwrGUc8EX4APrGkLAhoUjRhPc0rTp92ymUrLrCqcWrwfQ0finnX+GOhgPf7yHxKwiqK0Jssfyzxyr1UGwnEDw+n8i+oZZ1C6SlOVWEQnlRKlUOoNg3iFzYg9jyGzrAfIugwsTnzfd2TdIZFOYzahnhkwBsodbgAs1Yflh5YxFSgmYR1RYMufUbEobUmJcIpgVXhQVggX6+kUNBYTS0NrHSUyXzM2PY7wU/+w2z+yPAxzV00BEX5SDm/WMzLwIDsKwzkkhR2OUmREUkFGhSidGGJUHREMdYoRuWjnlAsqoaDMjYpU2HkpbSUEliQBV3RBLdRO3iV3XVXH13g6bz/HxIidgq+KDrDBCVsNYxXIQpFS5AKqBSt5SvY7tsvbQld49MUjB0uYcbKuKeox9F0IxvUnMhTnNhVUZeaSJQamX9QSGAuwPKHIHeHmUTOycpvzdNoi0swStFbG1yCeU7Q7x1RWAAAZiUlEQVTck2PIBGZdozBBXiTfqXkkxOE8E0MOIFxjDyGKRKBBUCS15/G0PAIy8rVAW5K8PEIaJks4N+JZnKr4Y7FjtnJkw9lErzLIDPPJdKwCmxkj6kCTVJy/kCGGsS7Qk2HwGG8iwTpz/Lrli651ewQl8Pq8VfBCkDySNsrSu1wqBvN2dJ4GM/XhPjJiwrBfkrjSrQhQqo7wygAixEKrWBkmdZftMOnHwMjjRWRvpzxb4LCc74j+OoI7ackAsose9GSfELsn24rVqEhb9ds8PV/VY947VRowVjmmDSCUTp1T8oIemLOxTdZMvg6NuqvUSFPuxEeIqC4SmeNuIZYEUNHsGsGMNbIElkddamcYAiXi7vy1qDIYxVBKCkqhXswuHlwMIZ+boajkmZrqSAIYuf9whImD0yZ5Ahpb5oEFk/lZW5Vc2E1zA3Ye8IQ/gV+KhEjjmfwFCSdammgGj1lMCJjmlpCPRaWjijody6ziYWXNG65ajbQM2oumlOD6YR4NOdA4uxOzvAiIZ4EzVij7+Hj48Hgw67An15VBE9fdRdrIKgbb5utYr+BBPxDtBDamULFWwMbVcklWI9t9T9Aq8STMkAR6g/Wgm1ePWBAD/lYPAjbYZ0QP1iH7OZ9lNOkJSUJXURQswos8ZhqwxaTlargUmkb6VUACipkMxJpJjB5yLIJRTgoQOXUsqlB9JLKKG+FMyVIoqMyPr1v4eMR7ODG1h5g0JP4Zu+v7KJGj3pjIlyIn0PkrE+fCyDIjbqwgD46ljzQNqlQ/QgBRIAE6EgwoL5EDc70wUD8+9H++3bMLqLYio2jOzHVJ0xn5Osfe1ByC5Ks0D8gOjzNEw8qxp836FP3mmBKtMBL5VWOF/CNoAiIV9W0yFpXQGFcpE3liDkLNEyV/zjw8kpjVyEKs9RAb0CbKzNbwTCJNUGZyNS1i+Qk+V8KRp6AiabX/wRYi2Ud68tcU+w+er0s8WKUdT7yeH6UEwS44Ac0yO4uaMuxB38O0sNgCQUvVBvlgTRvgq6OoAvDI+cUyFh5G44nsHOBswY7Fwbli7+Kua1cNYUF3kmK4xeS9TCvzWzvkiIpo8yfslqRljCVnB5jaKlNgAXEESGSF+BRWUmbpmoK0kimR40SC0kgVjQQM1uI/eEzjYCleZ/464S1zz7KUA2MtGIMHZVDPneTvAwsX+IZvUqizhbKwABv9q4lta80LVh5gGFjVasc5dqI+NG4lRPxQxN3q+PWB/7czni+hKWkOn5a6sTKNWHbmr7dQ0flnWdMlQYSitqrWdltzBE3dVJAUciwvZddVHjYeEv61M4CQxQ+OUoE7BqeyupRDpHQwPMZ05atVxzg2qY5MGSjweNuOPLSUkNLSVcawgwijY0wyKhJC2nFSCj0T+UeMvyaqngGCsmVUoQKtbzhZ8BEqtY4GlyN6Lm7joqQM8DEDfNEekO4skUNWFXylgTphjRE9+mOdSMp3IcR+mzmzKEykkcE+lilwVH00MSa0+HhMjwTN/z+TURznpePRAmm3iJZaIEFxBCPsUtEx9JJIHvApexVRonoNqUJKT4pW3s3/2o5nOSkEWESFI2FVCbnhG00qJb8DwRTUJcPa3TuWxb5szVCVclZH4CMxGGsrKnJkNeis+MfQtza2qzDEujWPbcnSkJQonNFw0aaZamkhbqMBGNjkKqQ8BouTctbbfuPahcOWzwyAgiyRg/zpvJY2rCY519gdPJj0tRt2Gz5shSwScrJPQF1XekRpr2imMHmoyKZEHtE0ou0//fP1Qc4K9UURlUSoWk/Q1HB80VVHunwslFFZ2Mfnw+JBwATXsYi67v2UPD5TV6XlaOUjfnAu7E/adNbaZKA4y5Aw53vlvFSS/1nHQccImCrEGruRzfkCZikOy7h0oYhKlTFLRApCUmbt1VhyLVHltisILNgpSabgUqCsn+W60DU6bQlP2h4R25W344kX6aNx3HxnPIEpeWnhKxh0Zqm5mI45WiOjg8AgG6UTpgqL8nL5kSnlf3SrOsenLa0KQzemCwHIWMwGr8E3APBENd7YQ06rxRo5guMWNB+RkxInTIXzxVNVJCoswD4DVwwHn9Ryxo3JxmehRh5mvpUTX1wNplbVThi9kBajRJBGBBj1pqslrZ65tFkYynsYTQgWtCSvgHgCPgBf8KIZhP6NhAWVmbBhqQLjtQJQjJPiC2xwRq2thrdK7I2JnsxUnOBIcybifX05EsA8BZKk4XkkO2tR200wKYWgChWjKaKReBmMib04RC4h9z+4/bJa3x9hr8IsUS1jcFyrzKNcPjJMNGi8ZCFI9Xkh8BShE0KSlt7hpCrIiSQcn5Nfiq1RQdgRfOuDZL5HnEWsVhiJ6dMk6rGc28XAyqguj66PMmK/EGDtQX0Ew+IhJFTEZCV/s0xfKpGQm0yaiQanv2SVUDKYq6FhCMopKkZIsmGwsNwkZAb1hkEyEwUSoCGYmlN8G64FplE98ZYv858bLhPVv+JTAAs0hRMdmcqJ56viDT+KoxFyAQgiRdX/OCHrnQD7bCtsU5KwyZ9iJwMdUJS0UmkZEkjCsoOq0aqIo5kALHbZ7NryQYrkYgsD+NfLFsRLKihedqG4PV6/n2SLRLKSgR/BYNyfzCBnyDKVgvlZDrzY3nBxzkacewZfZNaR4sWnPJg4Sz6/C7Qi7hASlAHRTiqS/79fcTl1C3nWYQgijwUCORhnFU9M5aok4IdxA0AOueT9aiMnYU6p6GWmQ7Hegha0RaMlxJwf9YxRXRLpDQsRkhT7HxOS65b+DEDBdyvo6jxoSTNSY/CELKJ/AAXmpaNmJHHLbEho6zJCfg+FPjmUFo4yWsJWEyFDrpSWgr0zsXphxLq8Bw1Ij3ZyL+sJERZnGcqsuYCnRRUs5pGF7lxcRT4euSI+h0xHAVVtwQ5EQm63y/IbjkVkIgHpSMyCS0o4iyTwkTuoxHT+Il/xLt5GRqejbCrWmuJrJ5Rj0v2MWfoUnhpjYtqqIkPOg+s020ZLHOqngZT5/1R3NspV3EgUjm1iIJCq7L7/Q+5WJbAmBvJ957Q042tj2JDdqgzD9b0z+uk/tVotqeWuB5alOy1LRsWIkjFxE5DBSlZpX1StqajVpbInr50oAJiaBigjiXJ76+aKT4RMIYAx5jirma1eJRNAw8h8Bv6gpzhuNPN0kEvxQ4GNLHpVKnuSVEbfxB/A6vkpK3bYK/kG+8KpoHHHx5yMRkjHXYrZ9q1FMvOX3ciOHZfzACjxHhEflIZ+BRacW/b5+ic2LqW7MAuGqzaUXtGemmYsCBd961llDEqg73+8vCbGAtslg+ggCQdsTPPbPOWIoIlzWM7Izcnd61+9SezyNTQFVCUmDJso2ZAHGrvcZ1Rr2ZTa5tq5jkfDwhIm1qABtmyRQgQn7wwvBxyZbM+n5kF5udi5ij84mSegV+21Wo8PQ8Z84vpyYSNBt3CJeRK3LdJ+hRhwV+6ZjbVFESJi0To+66SNsoszmTtOYqfFGfHyRRcQ3aULJZykpwrEkZCU+NvYH1GdmVxmdvm87m3es273ytmx7C2h0WBwMqCkNOLDBJ3TpwQAghIvL3ulgaVtIo3MyiCjjIuIIsfGGY4bYXH47x4QZt95TUfMcEDccjvdeyrvXHQrLhVOle1K15fNXopCI7GniSBzP7/K8fW94z3Rqd9RdKqUt/Xot84DTTGMqVNGTqPt+0hsltxAXkKDMGgjNkROLMGfAuZcqnfDkW+4YKMin+YuI9MarJXf5WWkC4OX/pDRXbYFst2e9bps+kw4NnZDuBOI3Zx3spDb0mF/VqLAfmN//cBMp7IDC5m5g+IMQwlTkw3b1NZMqbx154v0LUvLRX8H98gdNeJ3ZYBLl8HaYWLW4yNgL8ZL9lIFn978qUG3eHL5t7W0ust3l7+lVc7U0aViXCCaCDvH+kmjcScsLlJSlYzpLL01h0CVumhLJgCs0hdkBi+fhhp9JOGVx86u5JcUdFWVj9TeR4bTtwXzJsIJNatKTnfVuEHdG8+CGyaqSUrvKUNNH6jW1TqFxcqHxmBSLu5kg8TO2d/DywE1pfbFUb7fTtU9fPEFY+ci0TPZJ+VOodvilvApzkwk3ghHYukIZe0s8/Uk094oamVheCnqtAdp04YzzcefvgtS4W2wkW3wLWpXDpIClY1A0I2Eo+GiGS6IeMIrWjxqetEwRVsYJbln0fBOtAm5CDutZuhIhgrCFBeo8rYehUVuEz1FulOFRagPznAcLKusNN0J/Mdfn+kjm3jI+DjnxRNBxt6zRTKsvmEvP7Fb3+PwzdxsxrLaYfF8jZhKna51CCnSHEOj3klmLj59EUaHj6GZ3aHNz4a5XDaWlvc27HDxES9TRopriRGU0DuVycejRSIr3pWPzZQWEcEqSOZuAbUBip/JIicHO5NzXf2xP4tryzEX1/pcEJ4yP/r6VUZS2sbgEJTTo9A65fJFYyedWiNVUDqmIy4JYhm4YZgjxGJVpzW0LaYNBeiF+Ix5I9B5ZgVlclIGLQiOaUNsVXwCdCQc6YutoYww0sIIIiqZNgxlmzsvzISVIL0yZOCBPKQaez0riuMJUXNzK35RekCaowOYTDJ7iHYOv8Tw1QKWkS4uyQ5fpwc+MFwRMId0OYqJ3dfG7HLmzGsTaf1Yo6Ii3gRqiZCHn8AK6YjJ5wYVI80QtO0FQzu27KP2I89z8+crjGzlgeO5S/rm4kvnUzRkEoKCqXZIsA2fcjH0a2eW1tOs8hLkRCIjvjJXHtrAamX6VxbwX7cOoU7uWYzj2TEekmX0p7FKmL5w+FFnYapQcvwrc/keXsrVJUJkvUb937MB0Kg3GlDIJKFWwQW3OyFC8dniryF9Jis1qQ3HFY6SkQE8E3YUCAM0Oh1+EFHCYywDdfV8BEkcrLeYT1MJHBXdDEo5B8bd/GRmqBGhlHsdfjCOtDdZjJTslvlfXpttj/M5UAjBEFhWSGTNlZ4q3NM0FDeDC+3mlEiN8ltNLhprEm2nHcV6QzirHPhnL+YHAh0wcrhhnQcBY6neyZBP7O5gIldL1KNmBCpV7SYKF6WiNATY2JWeo23456zVYIkUS+voFGqCEvOX0wz/+eYTGzojZKkpM+c5Sz4LajM3kJpUBuCFs+0VwQpkJFzaCsJ6i+Mih4WJGUQQoux4+oEwokxS4ky4YaoyNeqA1wcZh0Atgc2Lh4wUt3U9ya5zggrWgHDk0h/GBYoAkqvejJ01JISQcjUs65/AajvdXORLxRZXX2Q8BDJLMrGkKrqOt+zou+IQIJQPr1C5+F0ZRDO8pzBEOF4bDWRLD0dJJnBZ+5Ne2wEmljbnO5EdxwKebsY3YECLfHtjyFaDqr810kT6TXLVL1DLOVQQg0FJDIuYfz8iwfJXxSv8eTs+niQDHq7BPFjjjDNEI952Zj/YBmw0gzh9SaVM5zOYtM4/1SIHwi/+OcQtoAW5uUq19EQbUxNE4Qeq6tEiFXGwtLbBlEEyucUNggS8oPdlzP76ztMsPGLinjCfn1kqgG+FLor9m9mk76zGuZzQUwbSY0NkSmDqCvbTjtl6xzyiXMzxKwSd1vlunFEjXiWfGMnLMufAzqdMWbA8wGgiWTtoJA9W6TGuzXEJdJkWQc6K8YMSQoOE/SA8/39+d6RomK7cxjKI57pm4yilQFG5/opqDdyX1wVzTq9NG15J/eYV7FwydVgMEr1H5/k6/dbi+gwLkk05l8Pr3XxVy+BF4oA0fS64NBFeNsYb0J0jbJncpi7WWum/Np4IhVRVUI7GSeDDnNHZkyU2ifHpqQocjpDocQYFe0ko08xr8olPpxZGc5d8SlR0qRgoiK4uYHLUE1fxNCVyJ30typBYk8RAYkepbSr4HjnFMkVENJhS/df763+/u0Em8Mbdes6eZ8s2IPK0RaXIyktS/nyFkS3+2z6Hiy1bbbUgLeAHF7Vbc/tiqbtwKtpv0UW8Aq1taR4KSVur/aW9BQJA66YrYrMQ52+gxe6MxMURirglX7y6vXlL6IKVmzoQlimuvlfXX+nhI+Yoi4ZZ8kNksTvOfPvIObFsJcNpLCMJv8tU1+orhn6FRZCQtrQwhAezzllMiiLYJe7JO5qX5fAWUfglAiQEjJrKi2HhSCtvGHDDSM5pYx7tzasc30SwDCCnwwaGIUXEgfriTOfzGUZuIRFuwTxdhefiYX7yxjv9RUuQGfPNYtqTzKc5itgqa+GVLFaTypfEVj5aEc9wMGL80yhRgBiW715/fpGlHjQywuYRGAhBZvWUmzU1p8W2XQsqm2IhOlKPaUNbhO54wlyEiFwgGcZ/crbZO+dwjsc/pNhA8msQNpOv/LNWaVM+rmBaGDkQl3oQ+Wwog/grpyyUf5cBULSuR8JLMyv3EX8rYWGviLvkiueQEfglb6pJ/qn/GUaa6tlr4D6naXvPYJ2aaS+0sOqexYpC4i9HYvwLYRY1MowSb58WzoCvQpL3PMpwBQMTC5G0xvOl6RCU4J5gSxxSCf/uPReVoNa/feBoJ+zPhGjP/hMXTDhlkaGj7l95zM0UB+5p1l+xgBF3ORt6cF1yEAVrtyiZ7s0AkfE+CGzEyqUEAiQ0wSR4gDDzP0xdETKDpbR1L+Ae8WQgl96QwjkNzkVjeVUkpvgYETJBIWEn2TBVOaMW6eN4JfeYZnMPuWOphizh32oiPv0eRqbAKXR/p8xqTv2qqS6jN0XI/6NB9MmoE6KHhSzQSRiHZavdNL+ih2fVhYwmy6xf51khmnkYfTOTDJL2Iu+vOOvswzvONmX1DcfBXHmQSgJMwRwjzGD5ORJyV6QdZDYToXsZy9uUGTLKBqM4E5wdc0lGMiDuUsqglIGlUlWIQVcfk5LmMIOK7Lk5BZRfcDKxbsnuYVhRzRxQCCMJ6cfwyUIi4bAQdwR56dRxELIKklOjWU3tCo9sFtYCWGa3NAtlh2yWoMfgO6+w4LiKaqeyIbwtcnq1zcusuQkU2nQhKlfLETVNVRAU3CiUKBGesGSCH07oa/Qy6auEE7yNhogCxN7BWY/gs0KVA4Q+vSOAmqdX0wLITQAS/CKcOGSsHm5Giyw3TXgyXUDwKScqc5AtQW8JQvsLawyIwBuO0iJVA4pYW2Sgi3oQsJh2jhJByxFtWqThMbICCO3PZBajCBkp8119GUYSxCblysufCTvsUhLLREwINAIiQNbQnu76lpHxIR0sDMVGEr6NkWQvmcsvSzuuvpxnNnKVZ7vkTAj6JI9Ta8vxV9ppRLuNMMmyXlnt6ksSpcmpbzXWksKy0KgpySF2+O6EOjlJzciS+MccYsX0It6ZOmhoc65m61ZUPkN9CjLamuP5HDxGhGO0H6cKvpSFBOHFN4ZxQdcYiS/CC422I6UqnnogCNz+zcQy+zRkLkNb1uAgKcwleNp1VhH4xrlP5rFDDttydvgk9j6HJxD3lOlHzuX75JGy3i66iFaQkCHmQceQ9dtV6yBSdOazz4bkecaTdMZeUnl+7sz5Al1WHr6Wiz5OriFa9A3gBuSIqZxKh7Q4yqtWZ1IFJy9Y5uvwkXhAbPPzOAo/MTpowhnyay1mPZStnSCShr2/IcQ5S7YIkX1ze3tNyFmDrOV8JDqnrPkQMG+bYgDzSlviZZSOwifQjjRRjwDktCiTiAnXRTrjQoWRVS7MYv5IgMziaax7Y0+TnQ8YSe1IA8V6+hjb7VxAo3woy14FIz8WPN+vWg/Mpg7x7sPUB6xnXq9EBSdvdgkbzCTyzeT0hXg2qUy1vwj1+CRRKYx+QwvRIrFU2XGYqVDjvmNWZOuyh8HCS3pEDcnPLs16/eM969UYqN3eao+w9pBuyZtY7T3b0hoCjgBUpQzIGyDZUZaEm5nt+UxbRKJiL5heiLOpW0Z6jjknZGYbWApm8B+M6GhiHrsaPcoqqxLhqZpHISkomziLJPpaN6CBdl87R56sXw+fPsjwpayn3I+/niB7UM8qbOqzuyxbA0wpuPQ0T6RxGO1gA5xhJ4MHudgozvnCbWB4IsQbyEy00WCsjeNQbw+3h5GEbGV+gQ4prccx6oF5ITrjT3MKIAsOWyi/YJKdvPpICTOFzKsFqEbvOoqswNlXbZmUp3WtFkiHajkbhlaeRLnOwPw1Vusq+X/5F6gjvkv0L+saXranlAghAD81BenqaB8fr1670S7n5qpbr195yDONzzDBnDSVcJb64dIVPbxkTSEY/l3Wn9oKoUDO67a4slMOcONve4lCJzgwHFvXLUeSodv1hE/e+F5b5S71cZ3Hk+9Xrc+V/he/u6Ruiw+evhJzaaMBqR6jw5GL9DRwMSYyndLZUOYkYs/cddimV1OPpgsRZz3ABj4jbziZz/x/CMgFWKMwkp7U/ZPC0oThlkejEZAei2hddKucsZUjp3Jpj1UNpUlyPY37yv/nprGO3P/fb8/iMlSWhZmsggAeYJkRgx76eCh6I+s2yBhjGWHSCUlk+6FpydKt1U3LuGgVFv8EOE88op6wcl65eoIB/gu8iScOR/ICgPVqvFZuvs6/zYG/SYsMGTYxh8RfEKNlkEjrGJo20fI5tsbc/JFqMYb59L/sHBZaxQMGpLLdFx9cLGSFqBAulUidC+Jq3VSXGgXr0MPFoybi7vhb7qAYqJ7n6t+EkScuSs/Bb6PXByBbNm30fQ6B9tN+P5WgJoaH5cMi9PByl2IaS1rseKotLoj6dwNYCAEA7g6zL6FcOVv7qZzHphbFTiEPq/PXHwnl3IS/99pYAAAAAElFTkSuQmCC;" vertex="1" parent="JNj1z8LvOt_FmI-8M0Pt-37">
          <mxGeometry x="130" y="300" width="40" height="39.47" as="geometry" />
        </mxCell>
        <mxCell id="JNj1z8LvOt_FmI-8M0Pt-14" value="" style="endArrow=none;dashed=1;html=1;rounded=0;" edge="1" parent="JNj1z8LvOt_FmI-8M0Pt-37" source="JNj1z8LvOt_FmI-8M0Pt-13">
          <mxGeometry width="50" height="50" relative="1" as="geometry">
            <mxPoint x="400" y="330" as="sourcePoint" />
            <mxPoint x="260" y="260" as="targetPoint" />
          </mxGeometry>
        </mxCell>
        <mxCell id="JNj1z8LvOt_FmI-8M0Pt-7" value="&lt;div&gt;GitHub API &lt;br&gt;&lt;/div&gt;&lt;div&gt;HTTPS&lt;/div&gt;&lt;div&gt;Personal Access &lt;br&gt;&lt;/div&gt;&lt;div&gt;Token (PAT)&lt;/div&gt;" style="text;html=1;resizable=0;autosize=1;align=center;verticalAlign=middle;points=[];fillColor=none;strokeColor=none;rounded=0;" vertex="1" parent="JNj1z8LvOt_FmI-8M0Pt-37">
          <mxGeometry x="205" y="344.47" width="110" height="70" as="geometry" />
        </mxCell>
        <mxCell id="JNj1z8LvOt_FmI-8M0Pt-17" value="" style="sketch=0;outlineConnect=0;fontColor=#232F3E;gradientColor=none;fillColor=#232F3D;strokeColor=none;dashed=0;verticalLabelPosition=bottom;verticalAlign=top;align=center;html=1;fontSize=12;fontStyle=0;aspect=fixed;pointerEvents=1;shape=mxgraph.aws4.user;" vertex="1" parent="JNj1z8LvOt_FmI-8M0Pt-37">
          <mxGeometry x="10" y="540" width="78" height="78" as="geometry" />
        </mxCell>
        <mxCell id="JNj1z8LvOt_FmI-8M0Pt-19" value="" style="endArrow=none;html=1;rounded=0;" edge="1" parent="JNj1z8LvOt_FmI-8M0Pt-37">
          <mxGeometry width="50" height="50" relative="1" as="geometry">
            <mxPoint x="70" y="580" as="sourcePoint" />
            <mxPoint x="160" y="580" as="targetPoint" />
          </mxGeometry>
        </mxCell>
        <mxCell id="JNj1z8LvOt_FmI-8M0Pt-20" value="" style="endArrow=classic;html=1;rounded=0;" edge="1" parent="JNj1z8LvOt_FmI-8M0Pt-37">
          <mxGeometry width="50" height="50" relative="1" as="geometry">
            <mxPoint x="160" y="580" as="sourcePoint" />
            <mxPoint x="160" y="510" as="targetPoint" />
          </mxGeometry>
        </mxCell>
        <mxCell id="JNj1z8LvOt_FmI-8M0Pt-21" value="Git Push" style="text;html=1;resizable=0;autosize=1;align=center;verticalAlign=middle;points=[];fillColor=none;strokeColor=none;rounded=0;" vertex="1" parent="JNj1z8LvOt_FmI-8M0Pt-37">
          <mxGeometry x="115" y="580" width="70" height="30" as="geometry" />
        </mxCell>
        <mxCell id="JNj1z8LvOt_FmI-8M0Pt-26" value="&lt;div&gt;Action: &lt;br&gt;&lt;/div&gt;&lt;div&gt;Build &amp;amp; Upload&lt;/div&gt;" style="text;html=1;resizable=0;autosize=1;align=center;verticalAlign=middle;points=[];fillColor=none;strokeColor=none;rounded=0;" vertex="1" parent="JNj1z8LvOt_FmI-8M0Pt-37">
          <mxGeometry x="100" y="359.47" width="100" height="40" as="geometry" />
        </mxCell>
        <mxCell id="JNj1z8LvOt_FmI-8M0Pt-28" value="" style="endArrow=none;html=1;rounded=0;" edge="1" parent="JNj1z8LvOt_FmI-8M0Pt-37">
          <mxGeometry width="50" height="50" relative="1" as="geometry">
            <mxPoint x="150" y="360" as="sourcePoint" />
            <mxPoint x="149.5" y="339.47" as="targetPoint" />
            <Array as="points">
              <mxPoint x="149.5" y="359.47" />
            </Array>
          </mxGeometry>
        </mxCell>
        <mxCell id="JNj1z8LvOt_FmI-8M0Pt-29" value="&lt;h1 class=&quot;lb-h2 blog-post-title&quot;&gt;Integrating w/GitHub – EC2, Cloud9, DynamoDB &amp;amp; S3 Architecture&lt;br&gt;&lt;/h1&gt;" style="text;html=1;resizable=0;autosize=1;align=center;verticalAlign=middle;points=[];fillColor=none;strokeColor=none;rounded=0;" vertex="1" parent="JNj1z8LvOt_FmI-8M0Pt-37">
          <mxGeometry x="30" y="20" width="780" height="70" as="geometry" />
        </mxCell>
        <mxCell id="sA9aP726tT9n3mgilnBe-17" value="GitHub Repository" style="text;html=1;resizable=0;autosize=1;align=center;verticalAlign=middle;points=[];fillColor=none;strokeColor=none;rounded=0;" parent="JNj1z8LvOt_FmI-8M0Pt-37" vertex="1">
          <mxGeometry x="110" y="460" width="120" height="30" as="geometry" />
        </mxCell>
        <mxCell id="sA9aP726tT9n3mgilnBe-1" value="AWS Cloud" style="points=[[0,0],[0.25,0],[0.5,0],[0.75,0],[1,0],[1,0.25],[1,0.5],[1,0.75],[1,1],[0.75,1],[0.5,1],[0.25,1],[0,1],[0,0.75],[0,0.5],[0,0.25]];outlineConnect=0;gradientColor=none;html=1;whiteSpace=wrap;fontSize=12;fontStyle=0;container=1;pointerEvents=0;collapsible=0;recursiveResize=0;shape=mxgraph.aws4.group;grIcon=mxgraph.aws4.group_aws_cloud;strokeColor=#232F3E;fillColor=none;verticalAlign=top;align=left;spacingLeft=30;fontColor=#232F3E;dashed=0;" parent="JNj1z8LvOt_FmI-8M0Pt-37" vertex="1">
          <mxGeometry x="340" y="80" width="474" height="470" as="geometry" />
        </mxCell>
        <mxCell id="sA9aP726tT9n3mgilnBe-9" value="" style="sketch=0;points=[[0,0,0],[0.25,0,0],[0.5,0,0],[0.75,0,0],[1,0,0],[0,1,0],[0.25,1,0],[0.5,1,0],[0.75,1,0],[1,1,0],[0,0.25,0],[0,0.5,0],[0,0.75,0],[1,0.25,0],[1,0.5,0],[1,0.75,0]];outlineConnect=0;fontColor=#232F3E;gradientColor=#4D72F3;gradientDirection=north;fillColor=#3334B9;strokeColor=#ffffff;dashed=0;verticalLabelPosition=bottom;verticalAlign=top;align=center;html=1;fontSize=12;fontStyle=0;aspect=fixed;shape=mxgraph.aws4.resourceIcon;resIcon=mxgraph.aws4.dynamodb;" parent="sA9aP726tT9n3mgilnBe-1" vertex="1">
          <mxGeometry x="366" y="181" width="78" height="78" as="geometry" />
        </mxCell>
        <mxCell id="sA9aP726tT9n3mgilnBe-13" value="" style="sketch=0;points=[[0,0,0],[0.25,0,0],[0.5,0,0],[0.75,0,0],[1,0,0],[0,1,0],[0.25,1,0],[0.5,1,0],[0.75,1,0],[1,1,0],[0,0.25,0],[0,0.5,0],[0,0.75,0],[1,0.25,0],[1,0.5,0],[1,0.75,0]];points=[[0,0,0],[0.25,0,0],[0.5,0,0],[0.75,0,0],[1,0,0],[0,1,0],[0.25,1,0],[0.5,1,0],[0.75,1,0],[1,1,0],[0,0.25,0],[0,0.5,0],[0,0.75,0],[1,0.25,0],[1,0.5,0],[1,0.75,0]];outlineConnect=0;fontColor=#232F3E;gradientColor=#F34482;gradientDirection=north;fillColor=#BC1356;strokeColor=#ffffff;dashed=0;verticalLabelPosition=bottom;verticalAlign=top;align=center;html=1;fontSize=12;fontStyle=0;aspect=fixed;shape=mxgraph.aws4.resourceIcon;resIcon=mxgraph.aws4.config;" parent="sA9aP726tT9n3mgilnBe-1" vertex="1">
          <mxGeometry x="366" y="70" width="78" height="78" as="geometry" />
        </mxCell>
        <mxCell id="sA9aP726tT9n3mgilnBe-10" value="" style="sketch=0;points=[[0,0,0],[0.25,0,0],[0.5,0,0],[0.75,0,0],[1,0,0],[0,1,0],[0.25,1,0],[0.5,1,0],[0.75,1,0],[1,1,0],[0,0.25,0],[0,0.5,0],[0,0.75,0],[1,0.25,0],[1,0.5,0],[1,0.75,0]];outlineConnect=0;fontColor=#232F3E;gradientColor=#60A337;gradientDirection=north;fillColor=#277116;strokeColor=#ffffff;dashed=0;verticalLabelPosition=bottom;verticalAlign=top;align=center;html=1;fontSize=12;fontStyle=0;aspect=fixed;shape=mxgraph.aws4.resourceIcon;resIcon=mxgraph.aws4.s3;" parent="sA9aP726tT9n3mgilnBe-1" vertex="1">
          <mxGeometry x="366" y="292" width="78" height="78" as="geometry" />
        </mxCell>
        <mxCell id="JNj1z8LvOt_FmI-8M0Pt-23" value="Amazon S3" style="text;html=1;resizable=0;autosize=1;align=center;verticalAlign=middle;points=[];fillColor=none;strokeColor=none;rounded=0;" vertex="1" parent="sA9aP726tT9n3mgilnBe-1">
          <mxGeometry x="360" y="370" width="90" height="30" as="geometry" />
        </mxCell>
        <mxCell id="JNj1z8LvOt_FmI-8M0Pt-24" value="Amazon DynamoDB" style="text;html=1;resizable=0;autosize=1;align=center;verticalAlign=middle;points=[];fillColor=none;strokeColor=none;rounded=0;" vertex="1" parent="sA9aP726tT9n3mgilnBe-1">
          <mxGeometry x="340" y="259" width="130" height="30" as="geometry" />
        </mxCell>
        <mxCell id="JNj1z8LvOt_FmI-8M0Pt-25" value="AWS Configure" style="text;html=1;resizable=0;autosize=1;align=center;verticalAlign=middle;points=[];fillColor=none;strokeColor=none;rounded=0;" vertex="1" parent="sA9aP726tT9n3mgilnBe-1">
          <mxGeometry x="350" y="148" width="110" height="30" as="geometry" />
        </mxCell>
        <mxCell id="sA9aP726tT9n3mgilnBe-2" value="Availability Zone us-east-1d" style="fillColor=none;strokeColor=#147EBA;dashed=1;verticalAlign=top;fontStyle=0;fontColor=#147EBA;" parent="sA9aP726tT9n3mgilnBe-1" vertex="1">
          <mxGeometry x="45" y="40" width="415" height="350" as="geometry" />
        </mxCell>
        <mxCell id="sA9aP726tT9n3mgilnBe-3" value="EC2 instance contents" style="points=[[0,0],[0.25,0],[0.5,0],[0.75,0],[1,0],[1,0.25],[1,0.5],[1,0.75],[1,1],[0.75,1],[0.5,1],[0.25,1],[0,1],[0,0.75],[0,0.5],[0,0.25]];outlineConnect=0;gradientColor=none;html=1;whiteSpace=wrap;fontSize=12;fontStyle=0;container=1;pointerEvents=0;collapsible=0;recursiveResize=0;shape=mxgraph.aws4.group;grIcon=mxgraph.aws4.group_ec2_instance_contents;strokeColor=#D86613;fillColor=none;verticalAlign=top;align=left;spacingLeft=30;fontColor=#D86613;dashed=0;" parent="sA9aP726tT9n3mgilnBe-1" vertex="1">
          <mxGeometry x="20" y="70" width="320" height="300" as="geometry" />
        </mxCell>
        <mxCell id="sA9aP726tT9n3mgilnBe-5" value="Public subnet 3.83.225.120" style="points=[[0,0],[0.25,0],[0.5,0],[0.75,0],[1,0],[1,0.25],[1,0.5],[1,0.75],[1,1],[0.75,1],[0.5,1],[0.25,1],[0,1],[0,0.75],[0,0.5],[0,0.25]];outlineConnect=0;gradientColor=none;html=1;whiteSpace=wrap;fontSize=12;fontStyle=0;container=1;pointerEvents=0;collapsible=0;recursiveResize=0;shape=mxgraph.aws4.group;grIcon=mxgraph.aws4.group_security_group;grStroke=0;strokeColor=#248814;fillColor=#E9F3E6;verticalAlign=top;align=left;spacingLeft=30;fontColor=#248814;dashed=0;" parent="sA9aP726tT9n3mgilnBe-3" vertex="1">
          <mxGeometry x="40" y="35" width="250" height="145" as="geometry" />
        </mxCell>
        <mxCell id="sA9aP726tT9n3mgilnBe-8" value="" style="sketch=0;outlineConnect=0;fontColor=#232F3E;gradientColor=none;fillColor=#2E27AD;strokeColor=none;dashed=0;verticalLabelPosition=bottom;verticalAlign=top;align=center;html=1;fontSize=12;fontStyle=0;aspect=fixed;shape=mxgraph.aws4.cloud9;" parent="sA9aP726tT9n3mgilnBe-5" vertex="1">
          <mxGeometry x="82" y="60" width="101.4" height="65" as="geometry" />
        </mxCell>
        <mxCell id="JNj1z8LvOt_FmI-8M0Pt-8" value="Cloud9 IDE" style="text;html=1;resizable=0;autosize=1;align=center;verticalAlign=middle;points=[];fillColor=none;strokeColor=none;rounded=0;" vertex="1" parent="sA9aP726tT9n3mgilnBe-5">
          <mxGeometry x="92.69999999999999" y="125" width="80" height="30" as="geometry" />
        </mxCell>
        <mxCell id="sA9aP726tT9n3mgilnBe-6" value="&lt;div&gt;Private subnet 172.31.83.20 &lt;span style=&quot;border-block: unset; border-inline: unset; border-start-start-radius: unset; border-start-end-radius: unset; border-end-start-radius: unset; border-end-end-radius: unset; overflow-inline: unset; overflow-block: unset; overscroll-behavior-inline: unset; overscroll-behavior-block: unset; margin-block: unset; margin-inline: unset; scroll-margin-block: unset; scroll-margin-inline: unset; padding-block: unset; padding-inline: unset; scroll-padding-block: unset; scroll-padding-inline: unset; inset-block: unset; inset-inline: unset; block-size: unset; min-block-size: unset; max-block-size: unset; inline-size: unset; min-inline-size: unset; max-inline-size: unset; background: unset; background-blend-mode: unset; border: unset; border-radius: unset; box-decoration-break: unset; -moz-float-edge: unset; display: unset; position: fixed; float: unset; clear: unset; vertical-align: unset; overflow: unset; overflow-anchor: unset; transition: unset; animation: unset; transform: unset; rotate: unset; scale: unset; translate: unset; offset: unset; scroll-behavior: unset; scroll-snap-align: unset; scroll-snap-type: unset; overscroll-behavior: unset; isolation: unset; break-after: unset; break-before: unset; break-inside: unset; resize: unset; perspective: unset; perspective-origin: unset; backface-visibility: unset; transform-box: unset; transform-style: unset; transform-origin: unset; contain: unset; -moz-appearance: unset; -moz-orient: unset; will-change: unset; shape-image-threshold: unset; shape-margin: unset; shape-outside: unset; touch-action: unset; -webkit-line-clamp: unset; columns: unset; column-fill: unset; column-rule: unset; column-span: unset; content: unset; counter-increment: unset; counter-reset: unset; counter-set: unset; opacity: unset; box-shadow: unset; clip: rect(0px, 0px, 0px, 0px); filter: unset; mix-blend-mode: unset; font: unset; font-synthesis: unset; visibility: unset; writing-mode: unset; text-orientation: unset; color-adjust: unset; image-rendering: unset; image-orientation: unset; dominant-baseline: unset; text-anchor: unset; color-interpolation: unset; color-interpolation-filters: unset; fill: unset; fill-opacity: unset; fill-rule: unset; shape-rendering: unset; stroke: unset; stroke-width: unset; stroke-linecap: unset; stroke-linejoin: unset; stroke-miterlimit: unset; stroke-opacity: unset; stroke-dasharray: unset; stroke-dashoffset: unset; clip-rule: unset; marker: unset; paint-order: unset; -moz-context-properties: unset; border-collapse: unset; empty-cells: unset; caption-side: unset; border-spacing: unset; color: unset; text-transform: unset; hyphens: unset; -moz-text-size-adjust: unset; text-indent: unset; overflow-wrap: unset; word-break: unset; text-justify: unset; text-align-last: unset; text-align: unset; letter-spacing: unset; word-spacing: unset; text-shadow: unset; text-emphasis: unset; text-emphasis-position: unset; -moz-tab-size: unset; line-break: unset; -webkit-text-fill-color: unset; -webkit-text-stroke: unset; ruby-align: unset; ruby-position: unset; text-combine-upright: unset; text-rendering: unset; -moz-control-character-visibility: unset; text-underline-offset: unset; text-underline-position: unset; text-decoration-skip-ink: unset; cursor: unset; pointer-events: unset; -moz-user-input: unset; -moz-user-modify: unset; -moz-user-focus: unset; caret-color: unset; scrollbar-color: unset; list-style: unset; quotes: unset; -moz-image-region: unset; margin: unset; scroll-margin: unset; outline: unset; -moz-outline-radius: unset; outline-offset: unset; padding: unset; scroll-padding: unset; top: 0px; right: unset; bottom: unset; left: unset; z-index: unset; flex-flow: unset; place-content: unset; place-items: unset; flex: unset; place-self: unset; order: unset; width: unset; min-width: unset; max-width: unset; height: unset; min-height: unset; max-height: unset; box-sizing: unset; object-fit: unset; object-position: unset; grid-area: unset; grid: unset; gap: unset; vector-effect: unset; stop-color: unset; stop-opacity: unset; flood-color: unset; flood-opacity: unset; lighting-color: unset; mask-type: unset; clip-path: unset; mask: unset; x: unset; y: unset; cx: unset; cy: unset; rx: unset; ry: unset; r: unset; table-layout: unset; text-overflow: unset; text-decoration: unset; ime-mode: unset; scrollbar-width: unset; user-select: text; -moz-window-dragging: unset; -moz-force-broken-image-icon: unset; -moz-box-align: unset; -moz-box-direction: unset; -moz-box-flex: unset; -moz-box-orient: unset; -moz-box-pack: unset; -moz-box-ordinal-group: unset;&quot;&gt;172.31.83.20&lt;/span&gt;&lt;/div&gt;" style="points=[[0,0],[0.25,0],[0.5,0],[0.75,0],[1,0],[1,0.25],[1,0.5],[1,0.75],[1,1],[0.75,1],[0.5,1],[0.25,1],[0,1],[0,0.75],[0,0.5],[0,0.25]];outlineConnect=0;gradientColor=none;html=1;whiteSpace=wrap;fontSize=12;fontStyle=0;container=1;pointerEvents=0;collapsible=0;recursiveResize=0;shape=mxgraph.aws4.group;grIcon=mxgraph.aws4.group_security_group;grStroke=0;strokeColor=#147EBA;fillColor=#E6F2F8;verticalAlign=top;align=left;spacingLeft=30;fontColor=#147EBA;dashed=0;" parent="sA9aP726tT9n3mgilnBe-3" vertex="1">
          <mxGeometry x="40" y="190" width="250" height="100" as="geometry" />
        </mxCell>
        <mxCell id="sA9aP726tT9n3mgilnBe-16" value="&lt;div&gt;GitHub &lt;br&gt;&lt;/div&gt;&lt;div&gt;Actions&lt;/div&gt;&lt;div&gt;CI/CD&lt;/div&gt;&lt;div&gt;Workflow&lt;br&gt;&lt;/div&gt;" style="text;html=1;resizable=0;autosize=1;align=center;verticalAlign=middle;points=[];fillColor=none;strokeColor=none;rounded=0;" parent="JNj1z8LvOt_FmI-8M0Pt-37" vertex="1">
          <mxGeometry x="40" y="265" width="70" height="70" as="geometry" />
        </mxCell>
        <mxCell id="sA9aP726tT9n3mgilnBe-14" style="shape=image;editableCssRules=.*;image=data:image/svg+xml,PHN2ZyB2aWV3Qm94PSIwIDAgMjQgMjQiIHhtbG5zPSJodHRwOi8vd3d3LnczLm9yZy8yMDAwL3N2ZyI+PHN0eWxlPip7ZmlsbDojMTgxNzE3fTwvc3R5bGU+PHBhdGggZD0iTTEyIC4yOTdjLTYuNjMgMC0xMiA1LjM3My0xMiAxMiAwIDUuMzAzIDMuNDM4IDkuOCA4LjIwNSAxMS4zODUuNi4xMTMuODItLjI1OC44Mi0uNTc3IDAtLjI4NS0uMDEtMS4wNC0uMDE1LTIuMDQtMy4zMzguNzI0LTQuMDQyLTEuNjEtNC4wNDItMS42MUM0LjQyMiAxOC4wNyAzLjYzMyAxNy43IDMuNjMzIDE3LjdjLTEuMDg3LS43NDQuMDg0LS43MjkuMDg0LS43MjkgMS4yMDUuMDg0IDEuODM4IDEuMjM2IDEuODM4IDEuMjM2IDEuMDcgMS44MzUgMi44MDkgMS4zMDUgMy40OTUuOTk4LjEwOC0uNzc2LjQxNy0xLjMwNS43Ni0xLjYwNS0yLjY2NS0uMy01LjQ2Ni0xLjMzMi01LjQ2Ni01LjkzIDAtMS4zMS40NjUtMi4zOCAxLjIzNS0zLjIyLS4xMzUtLjMwMy0uNTQtMS41MjMuMTA1LTMuMTc2IDAgMCAxLjAwNS0uMzIyIDMuMyAxLjIzLjk2LS4yNjcgMS45OC0uMzk5IDMtLjQwNSAxLjAyLjAwNiAyLjA0LjEzOCAzIC40MDUgMi4yOC0xLjU1MiAzLjI4NS0xLjIzIDMuMjg1LTEuMjMuNjQ1IDEuNjUzLjI0IDIuODczLjEyIDMuMTc2Ljc2NS44NCAxLjIzIDEuOTEgMS4yMyAzLjIyIDAgNC42MS0yLjgwNSA1LjYyNS01LjQ3NSA1LjkyLjQyLjM2LjgxIDEuMDk2LjgxIDIuMjIgMCAxLjYwNi0uMDE1IDIuODk2LS4wMTUgMy4yODYgMCAuMzE1LjIxLjY5LjgyNS41N0MyMC41NjUgMjIuMDkyIDI0IDE3LjU5MiAyNCAxMi4yOTdjMC02LjYyNy01LjM3My0xMi0xMi0xMiIvPjwvc3ZnPg==;" parent="JNj1z8LvOt_FmI-8M0Pt-37" vertex="1">
          <mxGeometry x="50" y="390" width="80" height="100" as="geometry" />
        </mxCell>
        <mxCell id="JNj1z8LvOt_FmI-8M0Pt-13" value="" style="sketch=0;outlineConnect=0;fontColor=#232F3E;gradientColor=none;fillColor=#BF0816;strokeColor=none;dashed=0;verticalLabelPosition=bottom;verticalAlign=top;align=center;html=1;fontSize=12;fontStyle=0;aspect=fixed;pointerEvents=1;shape=mxgraph.aws4.addon;" vertex="1" parent="JNj1z8LvOt_FmI-8M0Pt-37">
          <mxGeometry x="230" y="308.7" width="60" height="30.77" as="geometry" />
        </mxCell>
        <mxCell id="JNj1z8LvOt_FmI-8M0Pt-12" value="" style="edgeStyle=none;orthogonalLoop=1;jettySize=auto;html=1;rounded=0;entryX=0.339;entryY=0.457;entryDx=0;entryDy=0;entryPerimeter=0;" edge="1" parent="JNj1z8LvOt_FmI-8M0Pt-37" target="sA9aP726tT9n3mgilnBe-2">
          <mxGeometry width="80" relative="1" as="geometry">
            <mxPoint x="180" y="280" as="sourcePoint" />
            <mxPoint x="480" y="310" as="targetPoint" />
            <Array as="points" />
          </mxGeometry>
        </mxCell>
        <mxCell id="sA9aP726tT9n3mgilnBe-12" value="" style="fillColor=none;strokeColor=#5A6C86;dashed=1;verticalAlign=top;fontStyle=0;fontColor=#5A6C86;" parent="JNj1z8LvOt_FmI-8M0Pt-37" vertex="1">
          <mxGeometry x="15" y="240" width="300" height="260" as="geometry" />
        </mxCell>
        <mxCell id="JNj1z8LvOt_FmI-8M0Pt-15" value="" style="endArrow=none;dashed=1;html=1;rounded=0;entryX=0.411;entryY=0.4;entryDx=0;entryDy=0;entryPerimeter=0;" edge="1" parent="JNj1z8LvOt_FmI-8M0Pt-37" target="sA9aP726tT9n3mgilnBe-2">
          <mxGeometry width="50" height="50" relative="1" as="geometry">
            <mxPoint x="260" y="260" as="sourcePoint" />
            <mxPoint x="450" y="280" as="targetPoint" />
          </mxGeometry>
        </mxCell>
      </root>
    </mxGraphModel>
  </diagram>
</mxfile>
